<?xml version="1.0" encoding="UTF-8" standalone="no"?>
<!DOCTYPE svg PUBLIC "-//W3C//DTD SVG 1.1//EN"
 "http://www.w3.org/Graphics/SVG/1.1/DTD/svg11.dtd">
<!-- Generated by graphviz version 2.43.0 (0)
 -->
<!-- Title: snakemake_dag Pages: 1 -->
<svg width="404pt" height="364pt"
 viewBox="0.00 0.00 404.29 364.00" xmlns="http://www.w3.org/2000/svg" xmlns:xlink="http://www.w3.org/1999/xlink">
<g id="graph0" class="graph" transform="scale(1 1) rotate(0) translate(4 360)">
<title>snakemake_dag</title>
<polygon fill="white" stroke="transparent" points="-4,4 -4,-360 400.29,-360 400.29,4 -4,4"/>
<!-- 0 -->
<g id="node1" class="node">
<title>0</title>
<path fill="none" stroke="#d85656" stroke-width="2" d="M324.25,-36C324.25,-36 294.25,-36 294.25,-36 288.25,-36 282.25,-30 282.25,-24 282.25,-24 282.25,-12 282.25,-12 282.25,-6 288.25,0 294.25,0 294.25,0 324.25,0 324.25,0 330.25,0 336.25,-6 336.25,-12 336.25,-12 336.25,-24 336.25,-24 336.25,-30 330.25,-36 324.25,-36"/>
<text text-anchor="middle" x="309.25" y="-15.5" font-family="sans" font-size="10.00">all</text>
</g>
<!-- 1 -->
<g id="node2" class="node">
<title>1</title>
<path fill="none" stroke="#56d8a9" stroke-width="2" d="M179.25,-356C179.25,-356 111.25,-356 111.25,-356 105.25,-356 99.25,-350 99.25,-344 99.25,-344 99.25,-332 99.25,-332 99.25,-326 105.25,-320 111.25,-320 111.25,-320 179.25,-320 179.25,-320 185.25,-320 191.25,-326 191.25,-332 191.25,-332 191.25,-344 191.25,-344 191.25,-350 185.25,-356 179.25,-356"/>
<text text-anchor="middle" x="145.25" y="-335.5" font-family="sans" font-size="10.00">samtools_faidx</text>
</g>
<!-- 1&#45;&gt;0 -->
<g id="edge1" class="edge">
<title>1&#45;&gt;0</title>
<path fill="none" stroke="grey" stroke-width="2" d="M191.56,-334.12C233.47,-329.38 294.93,-316.88 337.25,-284 368.38,-259.82 371.14,-245.1 381.25,-207 396.66,-149 405.9,-125.27 378.25,-72 370.9,-57.84 357.87,-46.34 345.1,-37.72"/>
<polygon fill="grey" stroke="grey" stroke-width="2" points="346.69,-34.59 336.37,-32.21 342.96,-40.51 346.69,-34.59"/>
</g>
<!-- 2 -->
<g id="node3" class="node">
<title>2</title>
<path fill="none" stroke="#d8cb56" stroke-width="2" d="M64.25,-281.5C64.25,-281.5 34.25,-281.5 34.25,-281.5 28.25,-281.5 22.25,-275.5 22.25,-269.5 22.25,-269.5 22.25,-257.5 22.25,-257.5 22.25,-251.5 28.25,-245.5 34.25,-245.5 34.25,-245.5 64.25,-245.5 64.25,-245.5 70.25,-245.5 76.25,-251.5 76.25,-257.5 76.25,-257.5 76.25,-269.5 76.25,-269.5 76.25,-275.5 70.25,-281.5 64.25,-281.5"/>
<text text-anchor="middle" x="49.25" y="-261" font-family="sans" font-size="10.00">simug</text>
</g>
<!-- 1&#45;&gt;2 -->
<g id="edge6" class="edge">
<title>1&#45;&gt;2</title>
<path fill="none" stroke="grey" stroke-width="2" d="M122.5,-319.82C109.83,-310.25 93.87,-298.2 80.09,-287.79"/>
<polygon fill="grey" stroke="grey" stroke-width="2" points="81.93,-284.79 71.84,-281.56 77.71,-290.38 81.93,-284.79"/>
</g>
<!-- 3 -->
<g id="node4" class="node">
<title>3</title>
<path fill="none" stroke="#d88d56" stroke-width="2" d="M315.75,-284C315.75,-284 224.75,-284 224.75,-284 218.75,-284 212.75,-278 212.75,-272 212.75,-272 212.75,-255 212.75,-255 212.75,-249 218.75,-243 224.75,-243 224.75,-243 315.75,-243 315.75,-243 321.75,-243 327.75,-249 327.75,-255 327.75,-255 327.75,-272 327.75,-272 327.75,-278 321.75,-284 315.75,-284"/>
<text text-anchor="middle" x="270.25" y="-272" font-family="sans" font-size="10.00">generate_mutations</text>
<text text-anchor="middle" x="270.25" y="-261" font-family="sans" font-size="10.00">N: 100</text>
<text text-anchor="middle" x="270.25" y="-250" font-family="sans" font-size="10.00">R: 2</text>
</g>
<!-- 1&#45;&gt;3 -->
<g id="edge8" class="edge">
<title>1&#45;&gt;3</title>
<path fill="none" stroke="grey" stroke-width="2" d="M174.88,-319.82C190.61,-310.69 210.24,-299.31 227.59,-289.24"/>
<polygon fill="grey" stroke="grey" stroke-width="2" points="229.53,-292.16 236.42,-284.12 226.02,-286.11 229.53,-292.16"/>
</g>
<!-- 7 -->
<g id="node8" class="node">
<title>7</title>
<path fill="none" stroke="#afd856" stroke-width="2" d="M67.75,-207C67.75,-207 30.75,-207 30.75,-207 24.75,-207 18.75,-201 18.75,-195 18.75,-195 18.75,-156 18.75,-156 18.75,-150 24.75,-144 30.75,-144 30.75,-144 67.75,-144 67.75,-144 73.75,-144 79.75,-150 79.75,-156 79.75,-156 79.75,-195 79.75,-195 79.75,-201 73.75,-207 67.75,-207"/>
<text text-anchor="middle" x="49.25" y="-195" font-family="sans" font-size="10.00">iss_base</text>
<text text-anchor="middle" x="49.25" y="-184" font-family="sans" font-size="10.00">AF: 0.6</text>
<text text-anchor="middle" x="49.25" y="-173" font-family="sans" font-size="10.00">N: 100</text>
<text text-anchor="middle" x="49.25" y="-162" font-family="sans" font-size="10.00">NR: 7000</text>
<text text-anchor="middle" x="49.25" y="-151" font-family="sans" font-size="10.00">R: 2</text>
</g>
<!-- 1&#45;&gt;7 -->
<g id="edge13" class="edge">
<title>1&#45;&gt;7</title>
<path fill="none" stroke="grey" stroke-width="2" d="M134.98,-319.82C120.24,-295.18 92.67,-249.09 72.77,-215.82"/>
<polygon fill="grey" stroke="grey" stroke-width="2" points="75.77,-214.02 67.63,-207.23 69.76,-217.61 75.77,-214.02"/>
</g>
<!-- 9 -->
<g id="node10" class="node">
<title>9</title>
<path fill="none" stroke="#afd856" stroke-width="2" d="M146.75,-207C146.75,-207 109.75,-207 109.75,-207 103.75,-207 97.75,-201 97.75,-195 97.75,-195 97.75,-156 97.75,-156 97.75,-150 103.75,-144 109.75,-144 109.75,-144 146.75,-144 146.75,-144 152.75,-144 158.75,-150 158.75,-156 158.75,-156 158.75,-195 158.75,-195 158.75,-201 152.75,-207 146.75,-207"/>
<text text-anchor="middle" x="128.25" y="-195" font-family="sans" font-size="10.00">iss_base</text>
<text text-anchor="middle" x="128.25" y="-184" font-family="sans" font-size="10.00">AF: 0.8</text>
<text text-anchor="middle" x="128.25" y="-173" font-family="sans" font-size="10.00">N: 100</text>
<text text-anchor="middle" x="128.25" y="-162" font-family="sans" font-size="10.00">NR: 7000</text>
<text text-anchor="middle" x="128.25" y="-151" font-family="sans" font-size="10.00">R: 2</text>
</g>
<!-- 1&#45;&gt;9 -->
<g id="edge16" class="edge">
<title>1&#45;&gt;9</title>
<path fill="none" stroke="grey" stroke-width="2" d="M143.43,-319.82C140.87,-295.6 136.11,-250.65 132.6,-217.53"/>
<polygon fill="grey" stroke="grey" stroke-width="2" points="136.04,-216.81 131.51,-207.23 129.08,-217.55 136.04,-216.81"/>
</g>
<!-- 2&#45;&gt;0 -->
<g id="edge2" class="edge">
<title>2&#45;&gt;0</title>
<path fill="none" stroke="grey" stroke-width="2" d="M32.34,-245.12C23.61,-234.91 13.85,-221.24 9.25,-207 0.65,-180.35 -5.75,-167.64 9.25,-144 66.93,-53.11 205.27,-28.26 272,-21.51"/>
<polygon fill="grey" stroke="grey" stroke-width="2" points="272.44,-24.98 282.07,-20.57 271.79,-18.01 272.44,-24.98"/>
</g>
<!-- 2&#45;&gt;7 -->
<g id="edge14" class="edge">
<title>2&#45;&gt;7</title>
<path fill="none" stroke="grey" stroke-width="2" d="M49.25,-245.1C49.25,-237.01 49.25,-227.02 49.25,-217.2"/>
<polygon fill="grey" stroke="grey" stroke-width="2" points="52.75,-217.1 49.25,-207.1 45.75,-217.1 52.75,-217.1"/>
</g>
<!-- 2&#45;&gt;9 -->
<g id="edge17" class="edge">
<title>2&#45;&gt;9</title>
<path fill="none" stroke="grey" stroke-width="2" d="M65.24,-245.1C73.29,-236.33 83.4,-225.33 93.14,-214.72"/>
<polygon fill="grey" stroke="grey" stroke-width="2" points="95.95,-216.84 100.14,-207.1 90.8,-212.1 95.95,-216.84"/>
</g>
<!-- 3&#45;&gt;0 -->
<g id="edge3" class="edge">
<title>3&#45;&gt;0</title>
<path fill="none" stroke="grey" stroke-width="2" d="M319.67,-242.89C334.8,-234.27 349.7,-222.5 358.25,-207 387.23,-154.46 380.12,-127.87 358.25,-72 354.06,-61.28 346.56,-51.43 338.67,-43.2"/>
<polygon fill="grey" stroke="grey" stroke-width="2" points="341.01,-40.59 331.4,-36.13 336.13,-45.61 341.01,-40.59"/>
</g>
<!-- 8 -->
<g id="node9" class="node">
<title>8</title>
<path fill="none" stroke="#5692d8" stroke-width="2" d="M241.75,-196C241.75,-196 188.75,-196 188.75,-196 182.75,-196 176.75,-190 176.75,-184 176.75,-184 176.75,-167 176.75,-167 176.75,-161 182.75,-155 188.75,-155 188.75,-155 241.75,-155 241.75,-155 247.75,-155 253.75,-161 253.75,-167 253.75,-167 253.75,-184 253.75,-184 253.75,-190 247.75,-196 241.75,-196"/>
<text text-anchor="middle" x="215.25" y="-184" font-family="sans" font-size="10.00">iss_mutated</text>
<text text-anchor="middle" x="215.25" y="-173" font-family="sans" font-size="10.00">AF: 0.6</text>
<text text-anchor="middle" x="215.25" y="-162" font-family="sans" font-size="10.00">NR: 7000</text>
</g>
<!-- 3&#45;&gt;8 -->
<g id="edge15" class="edge">
<title>3&#45;&gt;8</title>
<path fill="none" stroke="grey" stroke-width="2" d="M257.77,-242.99C250.58,-231.74 241.41,-217.4 233.43,-204.92"/>
<polygon fill="grey" stroke="grey" stroke-width="2" points="236.21,-202.77 227.87,-196.24 230.31,-206.55 236.21,-202.77"/>
</g>
<!-- 10 -->
<g id="node11" class="node">
<title>10</title>
<path fill="none" stroke="#5692d8" stroke-width="2" d="M336.75,-196C336.75,-196 283.75,-196 283.75,-196 277.75,-196 271.75,-190 271.75,-184 271.75,-184 271.75,-167 271.75,-167 271.75,-161 277.75,-155 283.75,-155 283.75,-155 336.75,-155 336.75,-155 342.75,-155 348.75,-161 348.75,-167 348.75,-167 348.75,-184 348.75,-184 348.75,-190 342.75,-196 336.75,-196"/>
<text text-anchor="middle" x="310.25" y="-184" font-family="sans" font-size="10.00">iss_mutated</text>
<text text-anchor="middle" x="310.25" y="-173" font-family="sans" font-size="10.00">AF: 0.8</text>
<text text-anchor="middle" x="310.25" y="-162" font-family="sans" font-size="10.00">NR: 7000</text>
</g>
<!-- 3&#45;&gt;10 -->
<g id="edge18" class="edge">
<title>3&#45;&gt;10</title>
<path fill="none" stroke="grey" stroke-width="2" d="M279.33,-242.99C284.46,-231.96 290.97,-217.96 296.69,-205.65"/>
<polygon fill="grey" stroke="grey" stroke-width="2" points="300.03,-206.78 301.07,-196.24 293.68,-203.83 300.03,-206.78"/>
</g>
<!-- 4 -->
<g id="node5" class="node">
<title>4</title>
<path fill="none" stroke="#70d856" stroke-width="2" d="M239.25,-108C239.25,-108 183.25,-108 183.25,-108 177.25,-108 171.25,-102 171.25,-96 171.25,-96 171.25,-84 171.25,-84 171.25,-78 177.25,-72 183.25,-72 183.25,-72 239.25,-72 239.25,-72 245.25,-72 251.25,-78 251.25,-84 251.25,-84 251.25,-96 251.25,-96 251.25,-102 245.25,-108 239.25,-108"/>
<text text-anchor="middle" x="211.25" y="-87.5" font-family="sans" font-size="10.00">merge_reads</text>
</g>
<!-- 4&#45;&gt;0 -->
<g id="edge4" class="edge">
<title>4&#45;&gt;0</title>
<path fill="none" stroke="grey" stroke-width="2" d="M235.23,-71.88C247.8,-62.89 263.38,-51.76 277,-42.03"/>
<polygon fill="grey" stroke="grey" stroke-width="2" points="279.08,-44.85 285.19,-36.19 275.01,-39.15 279.08,-44.85"/>
</g>
<!-- 5 -->
<g id="node6" class="node">
<title>5</title>
<path fill="none" stroke="#70d856" stroke-width="2" d="M337.25,-108C337.25,-108 281.25,-108 281.25,-108 275.25,-108 269.25,-102 269.25,-96 269.25,-96 269.25,-84 269.25,-84 269.25,-78 275.25,-72 281.25,-72 281.25,-72 337.25,-72 337.25,-72 343.25,-72 349.25,-78 349.25,-84 349.25,-84 349.25,-96 349.25,-96 349.25,-102 343.25,-108 337.25,-108"/>
<text text-anchor="middle" x="309.25" y="-87.5" font-family="sans" font-size="10.00">merge_reads</text>
</g>
<!-- 5&#45;&gt;0 -->
<g id="edge5" class="edge">
<title>5&#45;&gt;0</title>
<path fill="none" stroke="grey" stroke-width="2" d="M309.25,-71.7C309.25,-63.98 309.25,-54.71 309.25,-46.11"/>
<polygon fill="grey" stroke="grey" stroke-width="2" points="312.75,-46.1 309.25,-36.1 305.75,-46.1 312.75,-46.1"/>
</g>
<!-- 6 -->
<g id="node7" class="node">
<title>6</title>
<path fill="none" stroke="#56d873" stroke-width="2" d="M69.25,-356C69.25,-356 25.25,-356 25.25,-356 19.25,-356 13.25,-350 13.25,-344 13.25,-344 13.25,-332 13.25,-332 13.25,-326 19.25,-320 25.25,-320 25.25,-320 69.25,-320 69.25,-320 75.25,-320 81.25,-326 81.25,-332 81.25,-332 81.25,-344 81.25,-344 81.25,-350 75.25,-356 69.25,-356"/>
<text text-anchor="middle" x="47.25" y="-335.5" font-family="sans" font-size="10.00">vcf2model</text>
</g>
<!-- 6&#45;&gt;2 -->
<g id="edge7" class="edge">
<title>6&#45;&gt;2</title>
<path fill="none" stroke="grey" stroke-width="2" d="M47.73,-319.82C47.96,-311.42 48.24,-301.12 48.5,-291.69"/>
<polygon fill="grey" stroke="grey" stroke-width="2" points="52,-291.65 48.78,-281.56 45.01,-291.46 52,-291.65"/>
</g>
<!-- 7&#45;&gt;4 -->
<g id="edge9" class="edge">
<title>7&#45;&gt;4</title>
<path fill="none" stroke="grey" stroke-width="2" d="M79.82,-149.44C82.61,-147.51 85.44,-145.67 88.25,-144 111.35,-130.3 138.64,-118.17 161.65,-108.99"/>
<polygon fill="grey" stroke="grey" stroke-width="2" points="163.18,-112.15 171.22,-105.24 160.63,-105.63 163.18,-112.15"/>
</g>
<!-- 8&#45;&gt;4 -->
<g id="edge10" class="edge">
<title>8&#45;&gt;4</title>
<path fill="none" stroke="grey" stroke-width="2" d="M214.3,-154.71C213.78,-143.86 213.13,-130.23 212.56,-118.37"/>
<polygon fill="grey" stroke="grey" stroke-width="2" points="216.05,-117.92 212.07,-108.1 209.05,-118.26 216.05,-117.92"/>
</g>
<!-- 9&#45;&gt;5 -->
<g id="edge11" class="edge">
<title>9&#45;&gt;5</title>
<path fill="none" stroke="grey" stroke-width="2" d="M159.1,-149.61C162.12,-147.6 165.2,-145.69 168.25,-144 176.71,-139.32 222.39,-122.38 259.51,-108.89"/>
<polygon fill="grey" stroke="grey" stroke-width="2" points="261.01,-112.07 269.22,-105.37 258.62,-105.49 261.01,-112.07"/>
</g>
<!-- 10&#45;&gt;5 -->
<g id="edge12" class="edge">
<title>10&#45;&gt;5</title>
<path fill="none" stroke="grey" stroke-width="2" d="M310.01,-154.71C309.88,-143.86 309.72,-130.23 309.58,-118.37"/>
<polygon fill="grey" stroke="grey" stroke-width="2" points="313.08,-118.06 309.46,-108.1 306.08,-118.14 313.08,-118.06"/>
</g>
</g>
</svg>
