<?xml version="1.0" encoding="UTF-8" standalone="no"?>
<!DOCTYPE svg PUBLIC "-//W3C//DTD SVG 1.1//EN"
 "http://www.w3.org/Graphics/SVG/1.1/DTD/svg11.dtd">
<!-- Generated by graphviz version 2.43.0 (0)
 -->
<!-- Title: snakemake_dag Pages: 1 -->
<svg width="271pt" height="364pt"
 viewBox="0.00 0.00 271.12 364.00" xmlns="http://www.w3.org/2000/svg" xmlns:xlink="http://www.w3.org/1999/xlink">
<g id="graph0" class="graph" transform="scale(1 1) rotate(0) translate(4 360)">
<title>snakemake_dag</title>
<polygon fill="white" stroke="transparent" points="-4,4 -4,-360 267.12,-360 267.12,4 -4,4"/>
<!-- 0 -->
<g id="node1" class="node">
<title>0</title>
<path fill="none" stroke="#70d856" stroke-width="2" stroke-dasharray="5,2" d="M214,-36C214,-36 184,-36 184,-36 178,-36 172,-30 172,-24 172,-24 172,-12 172,-12 172,-6 178,0 184,0 184,0 214,0 214,0 220,0 226,-6 226,-12 226,-12 226,-24 226,-24 226,-30 220,-36 214,-36"/>
<text text-anchor="middle" x="199" y="-15.5" font-family="sans" font-size="10.00">all</text>
</g>
<!-- 1 -->
<g id="node2" class="node">
<title>1</title>
<path fill="none" stroke="#56d873" stroke-width="2" stroke-dasharray="5,2" d="M187,-356C187,-356 119,-356 119,-356 113,-356 107,-350 107,-344 107,-344 107,-332 107,-332 107,-326 113,-320 119,-320 119,-320 187,-320 187,-320 193,-320 199,-326 199,-332 199,-332 199,-344 199,-344 199,-350 193,-356 187,-356"/>
<text text-anchor="middle" x="153" y="-335.5" font-family="sans" font-size="10.00">samtools_faidx</text>
</g>
<!-- 1&#45;&gt;0 -->
<g id="edge1" class="edge">
<title>1&#45;&gt;0</title>
<path fill="none" stroke="grey" stroke-width="2" d="M199.16,-320.8C215.7,-312.51 232.58,-300.57 242,-284 259.08,-253.94 284.15,-247.26 230,-72 227.09,-62.58 222.23,-53.04 217.22,-44.7"/>
<polygon fill="grey" stroke="grey" stroke-width="2" points="220.12,-42.75 211.8,-36.19 214.22,-46.51 220.12,-42.75"/>
</g>
<!-- 2 -->
<g id="node3" class="node">
<title>2</title>
<path fill="none" stroke="#56d8a9" stroke-width="2" stroke-dasharray="5,2" d="M49,-281.5C49,-281.5 19,-281.5 19,-281.5 13,-281.5 7,-275.5 7,-269.5 7,-269.5 7,-257.5 7,-257.5 7,-251.5 13,-245.5 19,-245.5 19,-245.5 49,-245.5 49,-245.5 55,-245.5 61,-251.5 61,-257.5 61,-257.5 61,-269.5 61,-269.5 61,-275.5 55,-281.5 49,-281.5"/>
<text text-anchor="middle" x="34" y="-261" font-family="sans" font-size="10.00">simug</text>
</g>
<!-- 1&#45;&gt;2 -->
<g id="edge5" class="edge">
<title>1&#45;&gt;2</title>
<path fill="none" stroke="grey" stroke-width="2" d="M124.8,-319.82C108.41,-309.83 87.59,-297.15 70.03,-286.45"/>
<polygon fill="grey" stroke="grey" stroke-width="2" points="71.54,-283.27 61.18,-281.06 67.9,-289.25 71.54,-283.27"/>
</g>
<!-- 3 -->
<g id="node4" class="node">
<title>3</title>
<path fill="none" stroke="#d85656" stroke-width="2" stroke-dasharray="5,2" d="M220.5,-284C220.5,-284 129.5,-284 129.5,-284 123.5,-284 117.5,-278 117.5,-272 117.5,-272 117.5,-255 117.5,-255 117.5,-249 123.5,-243 129.5,-243 129.5,-243 220.5,-243 220.5,-243 226.5,-243 232.5,-249 232.5,-255 232.5,-255 232.5,-272 232.5,-272 232.5,-278 226.5,-284 220.5,-284"/>
<text text-anchor="middle" x="175" y="-272" font-family="sans" font-size="10.00">generate_mutations</text>
<text text-anchor="middle" x="175" y="-261" font-family="sans" font-size="10.00">N: 100</text>
<text text-anchor="middle" x="175" y="-250" font-family="sans" font-size="10.00">R: 2</text>
</g>
<!-- 1&#45;&gt;3 -->
<g id="edge7" class="edge">
<title>1&#45;&gt;3</title>
<path fill="none" stroke="grey" stroke-width="2" d="M158.21,-319.82C160.58,-312.03 163.44,-302.6 166.12,-293.75"/>
<polygon fill="grey" stroke="grey" stroke-width="2" points="169.49,-294.71 169.05,-284.12 162.79,-292.67 169.49,-294.71"/>
</g>
<!-- 6 -->
<g id="node7" class="node">
<title>6</title>
<path fill="none" stroke="#5692d8" stroke-width="2" stroke-dasharray="5,2" d="M97.5,-207C97.5,-207 60.5,-207 60.5,-207 54.5,-207 48.5,-201 48.5,-195 48.5,-195 48.5,-156 48.5,-156 48.5,-150 54.5,-144 60.5,-144 60.5,-144 97.5,-144 97.5,-144 103.5,-144 109.5,-150 109.5,-156 109.5,-156 109.5,-195 109.5,-195 109.5,-201 103.5,-207 97.5,-207"/>
<text text-anchor="middle" x="79" y="-195" font-family="sans" font-size="10.00">iss_base</text>
<text text-anchor="middle" x="79" y="-184" font-family="sans" font-size="10.00">AF: 0.6</text>
<text text-anchor="middle" x="79" y="-173" font-family="sans" font-size="10.00">N: 100</text>
<text text-anchor="middle" x="79" y="-162" font-family="sans" font-size="10.00">NR: 7000</text>
<text text-anchor="middle" x="79" y="-151" font-family="sans" font-size="10.00">R: 2</text>
</g>
<!-- 1&#45;&gt;6 -->
<g id="edge10" class="edge">
<title>1&#45;&gt;6</title>
<path fill="none" stroke="grey" stroke-width="2" d="M135.46,-319.74C126.42,-309.98 115.88,-297.14 109,-284 98.11,-263.2 90.8,-238.01 86.13,-217.24"/>
<polygon fill="grey" stroke="grey" stroke-width="2" points="89.55,-216.49 84.05,-207.44 82.71,-217.95 89.55,-216.49"/>
</g>
<!-- 2&#45;&gt;0 -->
<g id="edge2" class="edge">
<title>2&#45;&gt;0</title>
<path fill="none" stroke="grey" stroke-width="2" d="M30.85,-245.48C27.26,-221.59 23.7,-177.31 39,-144 63.35,-90.99 123.07,-54.28 162.26,-34.95"/>
<polygon fill="grey" stroke="grey" stroke-width="2" points="164.24,-37.89 171.75,-30.41 161.22,-31.57 164.24,-37.89"/>
</g>
<!-- 2&#45;&gt;6 -->
<g id="edge11" class="edge">
<title>2&#45;&gt;6</title>
<path fill="none" stroke="grey" stroke-width="2" d="M43.11,-245.1C47.47,-236.75 52.89,-226.39 58.19,-216.27"/>
<polygon fill="grey" stroke="grey" stroke-width="2" points="61.45,-217.59 62.99,-207.1 55.25,-214.34 61.45,-217.59"/>
</g>
<!-- 3&#45;&gt;0 -->
<g id="edge3" class="edge">
<title>3&#45;&gt;0</title>
<path fill="none" stroke="grey" stroke-width="2" d="M193.33,-242.8C201.34,-232.86 209.85,-220.14 214,-207 232.09,-149.79 222.25,-131.43 214,-72 212.82,-63.48 210.61,-54.39 208.25,-46.2"/>
<polygon fill="grey" stroke="grey" stroke-width="2" points="211.52,-44.94 205.24,-36.41 204.83,-46.99 211.52,-44.94"/>
</g>
<!-- 7 -->
<g id="node8" class="node">
<title>7</title>
<path fill="none" stroke="#afd856" stroke-width="2" stroke-dasharray="5,2" d="M192.5,-196C192.5,-196 139.5,-196 139.5,-196 133.5,-196 127.5,-190 127.5,-184 127.5,-184 127.5,-167 127.5,-167 127.5,-161 133.5,-155 139.5,-155 139.5,-155 192.5,-155 192.5,-155 198.5,-155 204.5,-161 204.5,-167 204.5,-167 204.5,-184 204.5,-184 204.5,-190 198.5,-196 192.5,-196"/>
<text text-anchor="middle" x="166" y="-184" font-family="sans" font-size="10.00">iss_mutated</text>
<text text-anchor="middle" x="166" y="-173" font-family="sans" font-size="10.00">AF: 0.6</text>
<text text-anchor="middle" x="166" y="-162" font-family="sans" font-size="10.00">NR: 7000</text>
</g>
<!-- 3&#45;&gt;7 -->
<g id="edge12" class="edge">
<title>3&#45;&gt;7</title>
<path fill="none" stroke="grey" stroke-width="2" d="M172.96,-242.99C171.83,-232.18 170.4,-218.51 169.13,-206.38"/>
<polygon fill="grey" stroke="grey" stroke-width="2" points="172.59,-205.82 168.07,-196.24 165.63,-206.55 172.59,-205.82"/>
</g>
<!-- 4 -->
<g id="node5" class="node">
<title>4</title>
<path fill="none" stroke="#d8cb56" stroke-width="2" stroke-dasharray="5,2" d="M193,-108C193,-108 137,-108 137,-108 131,-108 125,-102 125,-96 125,-96 125,-84 125,-84 125,-78 131,-72 137,-72 137,-72 193,-72 193,-72 199,-72 205,-78 205,-84 205,-84 205,-96 205,-96 205,-102 199,-108 193,-108"/>
<text text-anchor="middle" x="165" y="-87.5" font-family="sans" font-size="10.00">merge_reads</text>
</g>
<!-- 4&#45;&gt;0 -->
<g id="edge4" class="edge">
<title>4&#45;&gt;0</title>
<path fill="none" stroke="grey" stroke-width="2" d="M173.4,-71.7C177.27,-63.73 181.95,-54.1 186.24,-45.26"/>
<polygon fill="grey" stroke="grey" stroke-width="2" points="189.47,-46.63 190.69,-36.1 183.17,-43.57 189.47,-46.63"/>
</g>
<!-- 5 -->
<g id="node6" class="node">
<title>5</title>
<path fill="none" stroke="#56c9d8" stroke-width="2" stroke-dasharray="5,2" d="M56,-356C56,-356 12,-356 12,-356 6,-356 0,-350 0,-344 0,-344 0,-332 0,-332 0,-326 6,-320 12,-320 12,-320 56,-320 56,-320 62,-320 68,-326 68,-332 68,-332 68,-344 68,-344 68,-350 62,-356 56,-356"/>
<text text-anchor="middle" x="34" y="-335.5" font-family="sans" font-size="10.00">vcf2model</text>
</g>
<!-- 5&#45;&gt;2 -->
<g id="edge6" class="edge">
<title>5&#45;&gt;2</title>
<path fill="none" stroke="grey" stroke-width="2" d="M34,-319.82C34,-311.42 34,-301.12 34,-291.69"/>
<polygon fill="grey" stroke="grey" stroke-width="2" points="37.5,-291.56 34,-281.56 30.5,-291.56 37.5,-291.56"/>
</g>
<!-- 6&#45;&gt;4 -->
<g id="edge8" class="edge">
<title>6&#45;&gt;4</title>
<path fill="none" stroke="grey" stroke-width="2" d="M109.56,-144.83C119.47,-135.21 130.34,-124.66 139.8,-115.46"/>
<polygon fill="grey" stroke="grey" stroke-width="2" points="142.32,-117.9 147.05,-108.42 137.44,-112.88 142.32,-117.9"/>
</g>
<!-- 7&#45;&gt;4 -->
<g id="edge9" class="edge">
<title>7&#45;&gt;4</title>
<path fill="none" stroke="grey" stroke-width="2" d="M165.76,-154.71C165.63,-143.86 165.47,-130.23 165.33,-118.37"/>
<polygon fill="grey" stroke="grey" stroke-width="2" points="168.82,-118.06 165.2,-108.1 161.82,-118.14 168.82,-118.06"/>
</g>
</g>
</svg>
