<?xml version="1.0" encoding="UTF-8" standalone="no"?>
<!DOCTYPE svg PUBLIC "-//W3C//DTD SVG 1.1//EN"
 "http://www.w3.org/Graphics/SVG/1.1/DTD/svg11.dtd">
<!-- Generated by graphviz version 2.43.0 (0)
 -->
<!-- Title: snakemake_dag Pages: 1 -->
<svg width="347pt" height="364pt"
 viewBox="0.00 0.00 347.46 364.00" xmlns="http://www.w3.org/2000/svg" xmlns:xlink="http://www.w3.org/1999/xlink">
<g id="graph0" class="graph" transform="scale(1 1) rotate(0) translate(4 360)">
<title>snakemake_dag</title>
<polygon fill="white" stroke="transparent" points="-4,4 -4,-360 343.46,-360 343.46,4 -4,4"/>
<!-- 0 -->
<g id="node1" class="node">
<title>0</title>
<path fill="none" stroke="#d8bc56" stroke-width="2" d="M206.25,-36C206.25,-36 176.25,-36 176.25,-36 170.25,-36 164.25,-30 164.25,-24 164.25,-24 164.25,-12 164.25,-12 164.25,-6 170.25,0 176.25,0 176.25,0 206.25,0 206.25,0 212.25,0 218.25,-6 218.25,-12 218.25,-12 218.25,-24 218.25,-24 218.25,-30 212.25,-36 206.25,-36"/>
<text text-anchor="middle" x="191.25" y="-15.5" font-family="sans" font-size="10.00">all</text>
</g>
<!-- 1 -->
<g id="node2" class="node">
<title>1</title>
<path fill="none" stroke="#bed856" stroke-width="2" d="M178.25,-356C178.25,-356 110.25,-356 110.25,-356 104.25,-356 98.25,-350 98.25,-344 98.25,-344 98.25,-332 98.25,-332 98.25,-326 104.25,-320 110.25,-320 110.25,-320 178.25,-320 178.25,-320 184.25,-320 190.25,-326 190.25,-332 190.25,-332 190.25,-344 190.25,-344 190.25,-350 184.25,-356 178.25,-356"/>
<text text-anchor="middle" x="144.25" y="-335.5" font-family="sans" font-size="10.00">samtools_faidx</text>
</g>
<!-- 1&#45;&gt;0 -->
<g id="edge1" class="edge">
<title>1&#45;&gt;0</title>
<path fill="none" stroke="grey" stroke-width="2" d="M190.48,-336.16C229.19,-332.71 282.3,-320.95 309.25,-284 365.51,-206.84 336.94,-144.04 274.25,-72 261.39,-57.23 243.43,-45.07 227.5,-36.14"/>
<polygon fill="grey" stroke="grey" stroke-width="2" points="228.88,-32.9 218.41,-31.26 225.56,-39.07 228.88,-32.9"/>
</g>
<!-- 2 -->
<g id="node3" class="node">
<title>2</title>
<path fill="none" stroke="#d88d56" stroke-width="2" d="M63.25,-281.5C63.25,-281.5 33.25,-281.5 33.25,-281.5 27.25,-281.5 21.25,-275.5 21.25,-269.5 21.25,-269.5 21.25,-257.5 21.25,-257.5 21.25,-251.5 27.25,-245.5 33.25,-245.5 33.25,-245.5 63.25,-245.5 63.25,-245.5 69.25,-245.5 75.25,-251.5 75.25,-257.5 75.25,-257.5 75.25,-269.5 75.25,-269.5 75.25,-275.5 69.25,-281.5 63.25,-281.5"/>
<text text-anchor="middle" x="48.25" y="-261" font-family="sans" font-size="10.00">simug</text>
</g>
<!-- 1&#45;&gt;2 -->
<g id="edge6" class="edge">
<title>1&#45;&gt;2</title>
<path fill="none" stroke="grey" stroke-width="2" d="M121.5,-319.82C108.82,-310.25 92.87,-298.2 79.09,-287.79"/>
<polygon fill="grey" stroke="grey" stroke-width="2" points="80.92,-284.79 70.83,-281.56 76.7,-290.38 80.92,-284.79"/>
</g>
<!-- 3 -->
<g id="node4" class="node">
<title>3</title>
<path fill="none" stroke="#88d856" stroke-width="2" d="M287.75,-284C287.75,-284 196.75,-284 196.75,-284 190.75,-284 184.75,-278 184.75,-272 184.75,-272 184.75,-255 184.75,-255 184.75,-249 190.75,-243 196.75,-243 196.75,-243 287.75,-243 287.75,-243 293.75,-243 299.75,-249 299.75,-255 299.75,-255 299.75,-272 299.75,-272 299.75,-278 293.75,-284 287.75,-284"/>
<text text-anchor="middle" x="242.25" y="-272" font-family="sans" font-size="10.00">generate_mutations</text>
<text text-anchor="middle" x="242.25" y="-261" font-family="sans" font-size="10.00">N: 100</text>
<text text-anchor="middle" x="242.25" y="-250" font-family="sans" font-size="10.00">R: 2</text>
</g>
<!-- 1&#45;&gt;3 -->
<g id="edge8" class="edge">
<title>1&#45;&gt;3</title>
<path fill="none" stroke="grey" stroke-width="2" d="M167.47,-319.82C179.47,-310.94 194.35,-299.93 207.67,-290.08"/>
<polygon fill="grey" stroke="grey" stroke-width="2" points="209.77,-292.88 215.73,-284.12 205.61,-287.25 209.77,-292.88"/>
</g>
<!-- 5 -->
<g id="node6" class="node">
<title>5</title>
<path fill="none" stroke="#56d8c1" stroke-width="2" d="M66.75,-207C66.75,-207 29.75,-207 29.75,-207 23.75,-207 17.75,-201 17.75,-195 17.75,-195 17.75,-156 17.75,-156 17.75,-150 23.75,-144 29.75,-144 29.75,-144 66.75,-144 66.75,-144 72.75,-144 78.75,-150 78.75,-156 78.75,-156 78.75,-195 78.75,-195 78.75,-201 72.75,-207 66.75,-207"/>
<text text-anchor="middle" x="48.25" y="-195" font-family="sans" font-size="10.00">iss_base</text>
<text text-anchor="middle" x="48.25" y="-184" font-family="sans" font-size="10.00">AF: 0.6</text>
<text text-anchor="middle" x="48.25" y="-173" font-family="sans" font-size="10.00">N: 100</text>
<text text-anchor="middle" x="48.25" y="-162" font-family="sans" font-size="10.00">NR: 7000</text>
<text text-anchor="middle" x="48.25" y="-151" font-family="sans" font-size="10.00">R: 2</text>
</g>
<!-- 1&#45;&gt;5 -->
<g id="edge11" class="edge">
<title>1&#45;&gt;5</title>
<path fill="none" stroke="grey" stroke-width="2" d="M133.97,-319.82C119.23,-295.18 91.67,-249.09 71.77,-215.82"/>
<polygon fill="grey" stroke="grey" stroke-width="2" points="74.77,-214.02 66.63,-207.23 68.76,-217.61 74.77,-214.02"/>
</g>
<!-- 7 -->
<g id="node8" class="node">
<title>7</title>
<path fill="none" stroke="#56d88a" stroke-width="2" d="M173.75,-207C173.75,-207 108.75,-207 108.75,-207 102.75,-207 96.75,-201 96.75,-195 96.75,-195 96.75,-156 96.75,-156 96.75,-150 102.75,-144 108.75,-144 108.75,-144 173.75,-144 173.75,-144 179.75,-144 185.75,-150 185.75,-156 185.75,-156 185.75,-195 185.75,-195 185.75,-201 179.75,-207 173.75,-207"/>
<text text-anchor="middle" x="141.25" y="-195" font-family="sans" font-size="10.00">iss_unmutated</text>
<text text-anchor="middle" x="141.25" y="-184" font-family="sans" font-size="10.00">AF: 0.6</text>
<text text-anchor="middle" x="141.25" y="-173" font-family="sans" font-size="10.00">N: 100</text>
<text text-anchor="middle" x="141.25" y="-162" font-family="sans" font-size="10.00">NR: 7000</text>
<text text-anchor="middle" x="141.25" y="-151" font-family="sans" font-size="10.00">R: 2</text>
</g>
<!-- 1&#45;&gt;7 -->
<g id="edge13" class="edge">
<title>1&#45;&gt;7</title>
<path fill="none" stroke="grey" stroke-width="2" d="M143.93,-319.82C143.47,-295.6 142.63,-250.65 142.01,-217.53"/>
<polygon fill="grey" stroke="grey" stroke-width="2" points="145.51,-217.17 141.82,-207.23 138.51,-217.3 145.51,-217.17"/>
</g>
<!-- 2&#45;&gt;0 -->
<g id="edge2" class="edge">
<title>2&#45;&gt;0</title>
<path fill="none" stroke="grey" stroke-width="2" d="M31.33,-245.12C22.61,-234.91 12.84,-221.24 8.25,-207 -0.35,-180.35 -4.46,-168.95 8.25,-144 38.19,-85.19 110.17,-49.07 154.4,-31.64"/>
<polygon fill="grey" stroke="grey" stroke-width="2" points="155.84,-34.84 163.93,-28 153.34,-28.3 155.84,-34.84"/>
</g>
<!-- 2&#45;&gt;5 -->
<g id="edge12" class="edge">
<title>2&#45;&gt;5</title>
<path fill="none" stroke="grey" stroke-width="2" d="M48.25,-245.1C48.25,-237.01 48.25,-227.02 48.25,-217.2"/>
<polygon fill="grey" stroke="grey" stroke-width="2" points="51.75,-217.1 48.25,-207.1 44.75,-217.1 51.75,-217.1"/>
</g>
<!-- 2&#45;&gt;7 -->
<g id="edge14" class="edge">
<title>2&#45;&gt;7</title>
<path fill="none" stroke="grey" stroke-width="2" d="M67.07,-245.1C76.73,-236.16 88.91,-224.9 100.58,-214.1"/>
<polygon fill="grey" stroke="grey" stroke-width="2" points="103.19,-216.46 108.15,-207.1 98.43,-211.32 103.19,-216.46"/>
</g>
<!-- 3&#45;&gt;0 -->
<g id="edge3" class="edge">
<title>3&#45;&gt;0</title>
<path fill="none" stroke="grey" stroke-width="2" d="M265.49,-242.78C275.11,-233.1 285.18,-220.61 290.25,-207 300.02,-180.76 298.61,-170.72 290.25,-144 277.48,-103.24 244.14,-66.2 219.66,-43.21"/>
<polygon fill="grey" stroke="grey" stroke-width="2" points="221.8,-40.42 212.06,-36.25 217.07,-45.58 221.8,-40.42"/>
</g>
<!-- 8 -->
<g id="node9" class="node">
<title>8</title>
<path fill="none" stroke="#59d856" stroke-width="2" d="M268.75,-196C268.75,-196 215.75,-196 215.75,-196 209.75,-196 203.75,-190 203.75,-184 203.75,-184 203.75,-167 203.75,-167 203.75,-161 209.75,-155 215.75,-155 215.75,-155 268.75,-155 268.75,-155 274.75,-155 280.75,-161 280.75,-167 280.75,-167 280.75,-184 280.75,-184 280.75,-190 274.75,-196 268.75,-196"/>
<text text-anchor="middle" x="242.25" y="-184" font-family="sans" font-size="10.00">iss_mutated</text>
<text text-anchor="middle" x="242.25" y="-173" font-family="sans" font-size="10.00">AF: 0.6</text>
<text text-anchor="middle" x="242.25" y="-162" font-family="sans" font-size="10.00">NR: 7000</text>
</g>
<!-- 3&#45;&gt;8 -->
<g id="edge15" class="edge">
<title>3&#45;&gt;8</title>
<path fill="none" stroke="grey" stroke-width="2" d="M242.25,-242.99C242.25,-232.18 242.25,-218.51 242.25,-206.38"/>
<polygon fill="grey" stroke="grey" stroke-width="2" points="245.75,-206.24 242.25,-196.24 238.75,-206.24 245.75,-206.24"/>
</g>
<!-- 4 -->
<g id="node5" class="node">
<title>4</title>
<path fill="none" stroke="#56c1d8" stroke-width="2" d="M219.25,-108C219.25,-108 163.25,-108 163.25,-108 157.25,-108 151.25,-102 151.25,-96 151.25,-96 151.25,-84 151.25,-84 151.25,-78 157.25,-72 163.25,-72 163.25,-72 219.25,-72 219.25,-72 225.25,-72 231.25,-78 231.25,-84 231.25,-84 231.25,-96 231.25,-96 231.25,-102 225.25,-108 219.25,-108"/>
<text text-anchor="middle" x="191.25" y="-87.5" font-family="sans" font-size="10.00">merge_reads</text>
</g>
<!-- 4&#45;&gt;0 -->
<g id="edge4" class="edge">
<title>4&#45;&gt;0</title>
<path fill="none" stroke="grey" stroke-width="2" d="M191.25,-71.7C191.25,-63.98 191.25,-54.71 191.25,-46.11"/>
<polygon fill="grey" stroke="grey" stroke-width="2" points="194.75,-46.1 191.25,-36.1 187.75,-46.1 194.75,-46.1"/>
</g>
<!-- 5&#45;&gt;0 -->
<g id="edge5" class="edge">
<title>5&#45;&gt;0</title>
<path fill="none" stroke="grey" stroke-width="2" d="M76.18,-143.97C94.86,-123.58 120,-96.16 142.25,-72 150.78,-62.73 160.17,-52.57 168.43,-43.64"/>
<polygon fill="grey" stroke="grey" stroke-width="2" points="171.12,-45.89 175.34,-36.17 165.98,-41.13 171.12,-45.89"/>
</g>
<!-- 6 -->
<g id="node7" class="node">
<title>6</title>
<path fill="none" stroke="#d85656" stroke-width="2" d="M68.25,-356C68.25,-356 24.25,-356 24.25,-356 18.25,-356 12.25,-350 12.25,-344 12.25,-344 12.25,-332 12.25,-332 12.25,-326 18.25,-320 24.25,-320 24.25,-320 68.25,-320 68.25,-320 74.25,-320 80.25,-326 80.25,-332 80.25,-332 80.25,-344 80.25,-344 80.25,-350 74.25,-356 68.25,-356"/>
<text text-anchor="middle" x="46.25" y="-335.5" font-family="sans" font-size="10.00">vcf2model</text>
</g>
<!-- 6&#45;&gt;2 -->
<g id="edge7" class="edge">
<title>6&#45;&gt;2</title>
<path fill="none" stroke="grey" stroke-width="2" d="M46.72,-319.82C46.95,-311.42 47.24,-301.12 47.5,-291.69"/>
<polygon fill="grey" stroke="grey" stroke-width="2" points="51,-291.65 47.78,-281.56 44,-291.46 51,-291.65"/>
</g>
<!-- 7&#45;&gt;4 -->
<g id="edge9" class="edge">
<title>7&#45;&gt;4</title>
<path fill="none" stroke="grey" stroke-width="2" d="M159.58,-143.88C164.9,-134.99 170.66,-125.38 175.79,-116.82"/>
<polygon fill="grey" stroke="grey" stroke-width="2" points="178.92,-118.4 181.05,-108.03 172.91,-114.81 178.92,-118.4"/>
</g>
<!-- 8&#45;&gt;4 -->
<g id="edge10" class="edge">
<title>8&#45;&gt;4</title>
<path fill="none" stroke="grey" stroke-width="2" d="M230.16,-154.71C223.26,-143.41 214.53,-129.11 207.08,-116.93"/>
<polygon fill="grey" stroke="grey" stroke-width="2" points="209.89,-114.81 201.69,-108.1 203.92,-118.46 209.89,-114.81"/>
</g>
</g>
</svg>
