<?xml version="1.0" encoding="UTF-8" standalone="no"?>
<!DOCTYPE svg PUBLIC "-//W3C//DTD SVG 1.1//EN"
 "http://www.w3.org/Graphics/SVG/1.1/DTD/svg11.dtd">
<!-- Generated by graphviz version 2.43.0 (0)
 -->
<!-- Title: snakemake_dag Pages: 1 -->
<svg width="130pt" height="260pt"
 viewBox="0.00 0.00 130.00 260.00" xmlns="http://www.w3.org/2000/svg" xmlns:xlink="http://www.w3.org/1999/xlink">
<g id="graph0" class="graph" transform="scale(1 1) rotate(0) translate(4 256)">
<title>snakemake_dag</title>
<polygon fill="white" stroke="transparent" points="-4,4 -4,-256 126,-256 126,4 -4,4"/>
<!-- 0 -->
<g id="node1" class="node">
<title>0</title>
<path fill="none" stroke="#afd856" stroke-width="2" stroke-dasharray="5,2" d="M76,-36C76,-36 46,-36 46,-36 40,-36 34,-30 34,-24 34,-24 34,-12 34,-12 34,-6 40,0 46,0 46,0 76,0 76,0 82,0 88,-6 88,-12 88,-12 88,-24 88,-24 88,-30 82,-36 76,-36"/>
<text text-anchor="middle" x="61" y="-15.5" font-family="sans" font-size="10.00">all</text>
</g>
<!-- 1 -->
<g id="node2" class="node">
<title>1</title>
<path fill="none" stroke="#d85656" stroke-width="2" stroke-dasharray="5,2" d="M110,-108C110,-108 12,-108 12,-108 6,-108 0,-102 0,-96 0,-96 0,-84 0,-84 0,-78 6,-72 12,-72 12,-72 110,-72 110,-72 116,-72 122,-78 122,-84 122,-84 122,-96 122,-96 122,-102 116,-108 110,-108"/>
<text text-anchor="middle" x="61" y="-87.5" font-family="sans" font-size="10.00">reference_subsample</text>
</g>
<!-- 1&#45;&gt;0 -->
<g id="edge1" class="edge">
<title>1&#45;&gt;0</title>
<path fill="none" stroke="grey" stroke-width="2" d="M61,-71.7C61,-63.98 61,-54.71 61,-46.11"/>
<polygon fill="grey" stroke="grey" stroke-width="2" points="64.5,-46.1 61,-36.1 57.5,-46.1 64.5,-46.1"/>
</g>
<!-- 2 -->
<g id="node3" class="node">
<title>2</title>
<path fill="none" stroke="#56d8a9" stroke-width="2" stroke-dasharray="5,2" d="M101.5,-180C101.5,-180 20.5,-180 20.5,-180 14.5,-180 8.5,-174 8.5,-168 8.5,-168 8.5,-156 8.5,-156 8.5,-150 14.5,-144 20.5,-144 20.5,-144 101.5,-144 101.5,-144 107.5,-144 113.5,-150 113.5,-156 113.5,-156 113.5,-168 113.5,-168 113.5,-174 107.5,-180 101.5,-180"/>
<text text-anchor="middle" x="61" y="-159.5" font-family="sans" font-size="10.00">reference_convert</text>
</g>
<!-- 2&#45;&gt;1 -->
<g id="edge2" class="edge">
<title>2&#45;&gt;1</title>
<path fill="none" stroke="grey" stroke-width="2" d="M61,-143.7C61,-135.98 61,-126.71 61,-118.11"/>
<polygon fill="grey" stroke="grey" stroke-width="2" points="64.5,-118.1 61,-108.1 57.5,-118.1 64.5,-118.1"/>
</g>
<!-- 3 -->
<g id="node4" class="node">
<title>3</title>
<path fill="none" stroke="#56a9d8" stroke-width="2" stroke-dasharray="5,2" d="M91,-252C91,-252 31,-252 31,-252 25,-252 19,-246 19,-240 19,-240 19,-228 19,-228 19,-222 25,-216 31,-216 31,-216 91,-216 91,-216 97,-216 103,-222 103,-228 103,-228 103,-240 103,-240 103,-246 97,-252 91,-252"/>
<text text-anchor="middle" x="61" y="-231.5" font-family="sans" font-size="10.00">reference_get</text>
</g>
<!-- 3&#45;&gt;2 -->
<g id="edge3" class="edge">
<title>3&#45;&gt;2</title>
<path fill="none" stroke="grey" stroke-width="2" d="M61,-215.7C61,-207.98 61,-198.71 61,-190.11"/>
<polygon fill="grey" stroke="grey" stroke-width="2" points="64.5,-190.1 61,-180.1 57.5,-190.1 64.5,-190.1"/>
</g>
</g>
</svg>
