<?xml version="1.0" encoding="UTF-8" standalone="no"?>
<!DOCTYPE svg PUBLIC "-//W3C//DTD SVG 1.1//EN"
 "http://www.w3.org/Graphics/SVG/1.1/DTD/svg11.dtd">
<!-- Generated by graphviz version 2.43.0 (0)
 -->
<!-- Title: snakemake_dag Pages: 1 -->
<svg width="434pt" height="436pt"
 viewBox="0.00 0.00 434.38 436.00" xmlns="http://www.w3.org/2000/svg" xmlns:xlink="http://www.w3.org/1999/xlink">
<g id="graph0" class="graph" transform="scale(1 1) rotate(0) translate(4 432)">
<title>snakemake_dag</title>
<polygon fill="white" stroke="transparent" points="-4,4 -4,-432 430.38,-432 430.38,4 -4,4"/>
<!-- 0 -->
<g id="node1" class="node">
<title>0</title>
<path fill="none" stroke="#56d873" stroke-width="2" d="M354,-36C354,-36 324,-36 324,-36 318,-36 312,-30 312,-24 312,-24 312,-12 312,-12 312,-6 318,0 324,0 324,0 354,0 354,0 360,0 366,-6 366,-12 366,-12 366,-24 366,-24 366,-30 360,-36 354,-36"/>
<text text-anchor="middle" x="339" y="-15.5" font-family="sans" font-size="10.00">all</text>
</g>
<!-- 1 -->
<g id="node2" class="node">
<title>1</title>
<path fill="none" stroke="#56c9d8" stroke-width="2" d="M207,-356C207,-356 139,-356 139,-356 133,-356 127,-350 127,-344 127,-344 127,-332 127,-332 127,-326 133,-320 139,-320 139,-320 207,-320 207,-320 213,-320 219,-326 219,-332 219,-332 219,-344 219,-344 219,-350 213,-356 207,-356"/>
<text text-anchor="middle" x="173" y="-335.5" font-family="sans" font-size="10.00">samtools_faidx</text>
</g>
<!-- 1&#45;&gt;0 -->
<g id="edge1" class="edge">
<title>1&#45;&gt;0</title>
<path fill="none" stroke="grey" stroke-width="2" d="M219.35,-333.52C260.6,-328.37 320.78,-315.61 363,-284 395.28,-259.83 399.91,-245.77 411,-207 427.51,-149.3 435.65,-125.27 408,-72 400.65,-57.84 387.62,-46.34 374.85,-37.72"/>
<polygon fill="grey" stroke="grey" stroke-width="2" points="376.44,-34.59 366.12,-32.21 372.71,-40.51 376.44,-34.59"/>
</g>
<!-- 2 -->
<g id="node3" class="node">
<title>2</title>
<path fill="none" stroke="#d8cb56" stroke-width="2" d="M85,-281.5C85,-281.5 55,-281.5 55,-281.5 49,-281.5 43,-275.5 43,-269.5 43,-269.5 43,-257.5 43,-257.5 43,-251.5 49,-245.5 55,-245.5 55,-245.5 85,-245.5 85,-245.5 91,-245.5 97,-251.5 97,-257.5 97,-257.5 97,-269.5 97,-269.5 97,-275.5 91,-281.5 85,-281.5"/>
<text text-anchor="middle" x="70" y="-261" font-family="sans" font-size="10.00">simug</text>
</g>
<!-- 1&#45;&gt;2 -->
<g id="edge7" class="edge">
<title>1&#45;&gt;2</title>
<path fill="none" stroke="grey" stroke-width="2" d="M148.59,-319.82C134.87,-310.16 117.55,-297.97 102.67,-287.5"/>
<polygon fill="grey" stroke="grey" stroke-width="2" points="104.43,-284.45 94.23,-281.56 100.4,-290.18 104.43,-284.45"/>
</g>
<!-- 3 -->
<g id="node4" class="node">
<title>3</title>
<path fill="none" stroke="#70d856" stroke-width="2" d="M341.5,-284C341.5,-284 250.5,-284 250.5,-284 244.5,-284 238.5,-278 238.5,-272 238.5,-272 238.5,-255 238.5,-255 238.5,-249 244.5,-243 250.5,-243 250.5,-243 341.5,-243 341.5,-243 347.5,-243 353.5,-249 353.5,-255 353.5,-255 353.5,-272 353.5,-272 353.5,-278 347.5,-284 341.5,-284"/>
<text text-anchor="middle" x="296" y="-272" font-family="sans" font-size="10.00">generate_mutations</text>
<text text-anchor="middle" x="296" y="-261" font-family="sans" font-size="10.00">N: 100</text>
<text text-anchor="middle" x="296" y="-250" font-family="sans" font-size="10.00">R: 2</text>
</g>
<!-- 1&#45;&gt;3 -->
<g id="edge9" class="edge">
<title>1&#45;&gt;3</title>
<path fill="none" stroke="grey" stroke-width="2" d="M202.15,-319.82C217.64,-310.69 236.95,-299.31 254.02,-289.24"/>
<polygon fill="grey" stroke="grey" stroke-width="2" points="255.88,-292.21 262.71,-284.12 252.32,-286.18 255.88,-292.21"/>
</g>
<!-- 8 -->
<g id="node9" class="node">
<title>8</title>
<path fill="none" stroke="#d88d56" stroke-width="2" d="M91.5,-207C91.5,-207 48.5,-207 48.5,-207 42.5,-207 36.5,-201 36.5,-195 36.5,-195 36.5,-156 36.5,-156 36.5,-150 42.5,-144 48.5,-144 48.5,-144 91.5,-144 91.5,-144 97.5,-144 103.5,-150 103.5,-156 103.5,-156 103.5,-195 103.5,-195 103.5,-201 97.5,-207 91.5,-207"/>
<text text-anchor="middle" x="70" y="-195" font-family="sans" font-size="10.00">iss_base</text>
<text text-anchor="middle" x="70" y="-184" font-family="sans" font-size="10.00">AF: 0.6</text>
<text text-anchor="middle" x="70" y="-173" font-family="sans" font-size="10.00">N: 100</text>
<text text-anchor="middle" x="70" y="-162" font-family="sans" font-size="10.00">NR: 50000</text>
<text text-anchor="middle" x="70" y="-151" font-family="sans" font-size="10.00">R: 2</text>
</g>
<!-- 1&#45;&gt;8 -->
<g id="edge15" class="edge">
<title>1&#45;&gt;8</title>
<path fill="none" stroke="grey" stroke-width="2" d="M161.98,-319.82C146.16,-295.18 116.58,-249.09 95.23,-215.82"/>
<polygon fill="grey" stroke="grey" stroke-width="2" points="98.07,-213.76 89.72,-207.23 92.18,-217.54 98.07,-213.76"/>
</g>
<!-- 10 -->
<g id="node11" class="node">
<title>10</title>
<path fill="none" stroke="#d88d56" stroke-width="2" d="M176.5,-207C176.5,-207 133.5,-207 133.5,-207 127.5,-207 121.5,-201 121.5,-195 121.5,-195 121.5,-156 121.5,-156 121.5,-150 127.5,-144 133.5,-144 133.5,-144 176.5,-144 176.5,-144 182.5,-144 188.5,-150 188.5,-156 188.5,-156 188.5,-195 188.5,-195 188.5,-201 182.5,-207 176.5,-207"/>
<text text-anchor="middle" x="155" y="-195" font-family="sans" font-size="10.00">iss_base</text>
<text text-anchor="middle" x="155" y="-184" font-family="sans" font-size="10.00">AF: 0.8</text>
<text text-anchor="middle" x="155" y="-173" font-family="sans" font-size="10.00">N: 100</text>
<text text-anchor="middle" x="155" y="-162" font-family="sans" font-size="10.00">NR: 50000</text>
<text text-anchor="middle" x="155" y="-151" font-family="sans" font-size="10.00">R: 2</text>
</g>
<!-- 1&#45;&gt;10 -->
<g id="edge18" class="edge">
<title>1&#45;&gt;10</title>
<path fill="none" stroke="grey" stroke-width="2" d="M171.07,-319.82C168.36,-295.6 163.32,-250.65 159.6,-217.53"/>
<polygon fill="grey" stroke="grey" stroke-width="2" points="163.04,-216.78 158.45,-207.23 156.08,-217.56 163.04,-216.78"/>
</g>
<!-- 2&#45;&gt;0 -->
<g id="edge2" class="edge">
<title>2&#45;&gt;0</title>
<path fill="none" stroke="grey" stroke-width="2" d="M51.84,-245.34C42.47,-235.2 31.97,-221.53 27,-207 17.94,-180.51 11.66,-167.43 27,-144 88.29,-50.39 232.8,-26.88 301.48,-20.98"/>
<polygon fill="grey" stroke="grey" stroke-width="2" points="302.13,-24.44 311.83,-20.18 301.59,-17.46 302.13,-24.44"/>
</g>
<!-- 2&#45;&gt;8 -->
<g id="edge16" class="edge">
<title>2&#45;&gt;8</title>
<path fill="none" stroke="grey" stroke-width="2" d="M70,-245.1C70,-237.01 70,-227.02 70,-217.2"/>
<polygon fill="grey" stroke="grey" stroke-width="2" points="73.5,-217.1 70,-207.1 66.5,-217.1 73.5,-217.1"/>
</g>
<!-- 2&#45;&gt;10 -->
<g id="edge19" class="edge">
<title>2&#45;&gt;10</title>
<path fill="none" stroke="grey" stroke-width="2" d="M87.2,-245.1C95.95,-236.24 106.95,-225.11 117.53,-214.41"/>
<polygon fill="grey" stroke="grey" stroke-width="2" points="120.21,-216.68 124.75,-207.1 115.23,-211.76 120.21,-216.68"/>
</g>
<!-- 3&#45;&gt;0 -->
<g id="edge3" class="edge">
<title>3&#45;&gt;0</title>
<path fill="none" stroke="grey" stroke-width="2" d="M348.57,-242.83C364.06,-234.3 379.2,-222.59 388,-207 417.5,-154.75 409.87,-127.87 388,-72 383.8,-61.28 376.31,-51.43 368.42,-43.2"/>
<polygon fill="grey" stroke="grey" stroke-width="2" points="370.76,-40.59 361.15,-36.13 365.88,-45.61 370.76,-40.59"/>
</g>
<!-- 9 -->
<g id="node10" class="node">
<title>9</title>
<path fill="none" stroke="#d85656" stroke-width="2" d="M271.5,-196C271.5,-196 218.5,-196 218.5,-196 212.5,-196 206.5,-190 206.5,-184 206.5,-184 206.5,-167 206.5,-167 206.5,-161 212.5,-155 218.5,-155 218.5,-155 271.5,-155 271.5,-155 277.5,-155 283.5,-161 283.5,-167 283.5,-167 283.5,-184 283.5,-184 283.5,-190 277.5,-196 271.5,-196"/>
<text text-anchor="middle" x="245" y="-184" font-family="sans" font-size="10.00">iss_mutated</text>
<text text-anchor="middle" x="245" y="-173" font-family="sans" font-size="10.00">AF: 0.6</text>
<text text-anchor="middle" x="245" y="-162" font-family="sans" font-size="10.00">NR: 50000</text>
</g>
<!-- 3&#45;&gt;9 -->
<g id="edge17" class="edge">
<title>3&#45;&gt;9</title>
<path fill="none" stroke="grey" stroke-width="2" d="M284.43,-242.99C277.76,-231.74 269.26,-217.4 261.86,-204.92"/>
<polygon fill="grey" stroke="grey" stroke-width="2" points="264.81,-203.05 256.7,-196.24 258.79,-206.62 264.81,-203.05"/>
</g>
<!-- 11 -->
<g id="node12" class="node">
<title>11</title>
<path fill="none" stroke="#d85656" stroke-width="2" d="M366.5,-196C366.5,-196 313.5,-196 313.5,-196 307.5,-196 301.5,-190 301.5,-184 301.5,-184 301.5,-167 301.5,-167 301.5,-161 307.5,-155 313.5,-155 313.5,-155 366.5,-155 366.5,-155 372.5,-155 378.5,-161 378.5,-167 378.5,-167 378.5,-184 378.5,-184 378.5,-190 372.5,-196 366.5,-196"/>
<text text-anchor="middle" x="340" y="-184" font-family="sans" font-size="10.00">iss_mutated</text>
<text text-anchor="middle" x="340" y="-173" font-family="sans" font-size="10.00">AF: 0.8</text>
<text text-anchor="middle" x="340" y="-162" font-family="sans" font-size="10.00">NR: 50000</text>
</g>
<!-- 3&#45;&gt;11 -->
<g id="edge20" class="edge">
<title>3&#45;&gt;11</title>
<path fill="none" stroke="grey" stroke-width="2" d="M305.98,-242.99C311.68,-231.85 318.93,-217.68 325.27,-205.29"/>
<polygon fill="grey" stroke="grey" stroke-width="2" points="328.46,-206.73 329.9,-196.24 322.23,-203.54 328.46,-206.73"/>
</g>
<!-- 4 -->
<g id="node5" class="node">
<title>4</title>
<path fill="none" stroke="#5692d8" stroke-width="2" d="M269,-108C269,-108 213,-108 213,-108 207,-108 201,-102 201,-96 201,-96 201,-84 201,-84 201,-78 207,-72 213,-72 213,-72 269,-72 269,-72 275,-72 281,-78 281,-84 281,-84 281,-96 281,-96 281,-102 275,-108 269,-108"/>
<text text-anchor="middle" x="241" y="-87.5" font-family="sans" font-size="10.00">merge_reads</text>
</g>
<!-- 4&#45;&gt;0 -->
<g id="edge4" class="edge">
<title>4&#45;&gt;0</title>
<path fill="none" stroke="grey" stroke-width="2" d="M264.97,-71.88C277.55,-62.89 293.13,-51.76 306.75,-42.03"/>
<polygon fill="grey" stroke="grey" stroke-width="2" points="308.83,-44.85 314.93,-36.19 304.76,-39.15 308.83,-44.85"/>
</g>
<!-- 5 -->
<g id="node6" class="node">
<title>5</title>
<path fill="none" stroke="#5692d8" stroke-width="2" d="M367,-108C367,-108 311,-108 311,-108 305,-108 299,-102 299,-96 299,-96 299,-84 299,-84 299,-78 305,-72 311,-72 311,-72 367,-72 367,-72 373,-72 379,-78 379,-84 379,-84 379,-96 379,-96 379,-102 373,-108 367,-108"/>
<text text-anchor="middle" x="339" y="-87.5" font-family="sans" font-size="10.00">merge_reads</text>
</g>
<!-- 5&#45;&gt;0 -->
<g id="edge5" class="edge">
<title>5&#45;&gt;0</title>
<path fill="none" stroke="grey" stroke-width="2" d="M339,-71.7C339,-63.98 339,-54.71 339,-46.11"/>
<polygon fill="grey" stroke="grey" stroke-width="2" points="342.5,-46.1 339,-36.1 335.5,-46.1 342.5,-46.1"/>
</g>
<!-- 6 -->
<g id="node7" class="node">
<title>6</title>
<path fill="none" stroke="#56d8a9" stroke-width="2" d="M225.5,-428C225.5,-428 136.5,-428 136.5,-428 130.5,-428 124.5,-422 124.5,-416 124.5,-416 124.5,-404 124.5,-404 124.5,-398 130.5,-392 136.5,-392 136.5,-392 225.5,-392 225.5,-392 231.5,-392 237.5,-398 237.5,-404 237.5,-404 237.5,-416 237.5,-416 237.5,-422 231.5,-428 225.5,-428"/>
<text text-anchor="middle" x="181" y="-413" font-family="sans" font-size="10.00">cp_files</text>
<text text-anchor="middle" x="181" y="-402" font-family="sans" font-size="10.00">files: Qrob_PM1N.fa</text>
</g>
<!-- 6&#45;&gt;1 -->
<g id="edge6" class="edge">
<title>6&#45;&gt;1</title>
<path fill="none" stroke="grey" stroke-width="2" d="M179.02,-391.7C178.14,-383.98 177.08,-374.71 176.1,-366.11"/>
<polygon fill="grey" stroke="grey" stroke-width="2" points="179.57,-365.64 174.95,-356.1 172.61,-366.44 179.57,-365.64"/>
</g>
<!-- 7 -->
<g id="node8" class="node">
<title>7</title>
<path fill="none" stroke="#afd856" stroke-width="2" d="M90,-356C90,-356 46,-356 46,-356 40,-356 34,-350 34,-344 34,-344 34,-332 34,-332 34,-326 40,-320 46,-320 46,-320 90,-320 90,-320 96,-320 102,-326 102,-332 102,-332 102,-344 102,-344 102,-350 96,-356 90,-356"/>
<text text-anchor="middle" x="68" y="-335.5" font-family="sans" font-size="10.00">vcf2model</text>
</g>
<!-- 7&#45;&gt;2 -->
<g id="edge8" class="edge">
<title>7&#45;&gt;2</title>
<path fill="none" stroke="grey" stroke-width="2" d="M68.47,-319.82C68.71,-311.42 68.99,-301.12 69.25,-291.69"/>
<polygon fill="grey" stroke="grey" stroke-width="2" points="72.75,-291.65 69.53,-281.56 65.75,-291.46 72.75,-291.65"/>
</g>
<!-- 8&#45;&gt;4 -->
<g id="edge10" class="edge">
<title>8&#45;&gt;4</title>
<path fill="none" stroke="grey" stroke-width="2" d="M103.82,-149.48C106.87,-147.54 109.96,-145.68 113,-144 137.9,-130.24 167.12,-117.88 191.35,-108.56"/>
<polygon fill="grey" stroke="grey" stroke-width="2" points="192.6,-111.83 200.72,-105.02 190.13,-105.29 192.6,-111.83"/>
</g>
<!-- 9&#45;&gt;4 -->
<g id="edge11" class="edge">
<title>9&#45;&gt;4</title>
<path fill="none" stroke="grey" stroke-width="2" d="M244.05,-154.71C243.53,-143.86 242.88,-130.23 242.31,-118.37"/>
<polygon fill="grey" stroke="grey" stroke-width="2" points="245.79,-117.92 241.82,-108.1 238.8,-118.26 245.79,-117.92"/>
</g>
<!-- 10&#45;&gt;5 -->
<g id="edge12" class="edge">
<title>10&#45;&gt;5</title>
<path fill="none" stroke="grey" stroke-width="2" d="M188.76,-149.37C191.82,-147.45 194.93,-145.63 198,-144 206.51,-139.48 251.93,-122.61 288.95,-109.1"/>
<polygon fill="grey" stroke="grey" stroke-width="2" points="290.44,-112.28 298.64,-105.57 288.05,-105.7 290.44,-112.28"/>
</g>
<!-- 11&#45;&gt;5 -->
<g id="edge13" class="edge">
<title>11&#45;&gt;5</title>
<path fill="none" stroke="grey" stroke-width="2" d="M339.76,-154.71C339.63,-143.86 339.47,-130.23 339.33,-118.37"/>
<polygon fill="grey" stroke="grey" stroke-width="2" points="342.82,-118.06 339.2,-108.1 335.82,-118.14 342.82,-118.06"/>
</g>
<!-- 12 -->
<g id="node13" class="node">
<title>12</title>
<path fill="none" stroke="#56d8a9" stroke-width="2" d="M94,-428C94,-428 12,-428 12,-428 6,-428 0,-422 0,-416 0,-416 0,-404 0,-404 0,-398 6,-392 12,-392 12,-392 94,-392 94,-392 100,-392 106,-398 106,-404 106,-404 106,-416 106,-416 106,-422 100,-428 94,-428"/>
<text text-anchor="middle" x="53" y="-413" font-family="sans" font-size="10.00">cp_files</text>
<text text-anchor="middle" x="53" y="-402" font-family="sans" font-size="10.00">files: siteshz3P.vcf</text>
</g>
<!-- 12&#45;&gt;7 -->
<g id="edge14" class="edge">
<title>12&#45;&gt;7</title>
<path fill="none" stroke="grey" stroke-width="2" d="M56.71,-391.7C58.36,-383.98 60.35,-374.71 62.19,-366.11"/>
<polygon fill="grey" stroke="grey" stroke-width="2" points="65.66,-366.62 64.33,-356.1 58.82,-365.15 65.66,-366.62"/>
</g>
</g>
</svg>
