<?xml version="1.0" encoding="UTF-8" standalone="no"?>
<!DOCTYPE svg PUBLIC "-//W3C//DTD SVG 1.1//EN"
 "http://www.w3.org/Graphics/SVG/1.1/DTD/svg11.dtd">
<!-- Generated by graphviz version 2.43.0 (0)
 -->
<!-- Title: snakemake_dag Pages: 1 -->
<svg width="276pt" height="332pt"
 viewBox="0.00 0.00 276.00 332.00" xmlns="http://www.w3.org/2000/svg" xmlns:xlink="http://www.w3.org/1999/xlink">
<g id="graph0" class="graph" transform="scale(1 1) rotate(0) translate(4 328)">
<title>snakemake_dag</title>
<polygon fill="white" stroke="transparent" points="-4,4 -4,-328 272,-328 272,4 -4,4"/>
<!-- 0 -->
<g id="node1" class="node">
<title>0</title>
<path fill="none" stroke="#56d8a9" stroke-width="2" d="M147,-36C147,-36 117,-36 117,-36 111,-36 105,-30 105,-24 105,-24 105,-12 105,-12 105,-6 111,0 117,0 117,0 147,0 147,0 153,0 159,-6 159,-12 159,-12 159,-24 159,-24 159,-30 153,-36 147,-36"/>
<text text-anchor="middle" x="132" y="-15.5" font-family="sans" font-size="10.00">all</text>
</g>
<!-- 1 -->
<g id="node2" class="node">
<title>1</title>
<path fill="none" stroke="#59d856" stroke-width="2" stroke-dasharray="5,2" d="M110,-180C110,-180 12,-180 12,-180 6,-180 0,-174 0,-168 0,-168 0,-156 0,-156 0,-150 6,-144 12,-144 12,-144 110,-144 110,-144 116,-144 122,-150 122,-156 122,-156 122,-168 122,-168 122,-174 116,-180 110,-180"/>
<text text-anchor="middle" x="61" y="-159.5" font-family="sans" font-size="10.00">chromosomes_length</text>
</g>
<!-- 1&#45;&gt;0 -->
<g id="edge1" class="edge">
<title>1&#45;&gt;0</title>
<path fill="none" stroke="grey" stroke-width="2" d="M69.56,-143.87C81.82,-119.35 104.48,-74.03 118.87,-45.26"/>
<polygon fill="grey" stroke="grey" stroke-width="2" points="122.06,-46.7 123.41,-36.19 115.8,-43.57 122.06,-46.7"/>
</g>
<!-- 2 -->
<g id="node3" class="node">
<title>2</title>
<path fill="none" stroke="#56a9d8" stroke-width="2" d="M220,-108C220,-108 152,-108 152,-108 146,-108 140,-102 140,-96 140,-96 140,-84 140,-84 140,-78 146,-72 152,-72 152,-72 220,-72 220,-72 226,-72 232,-78 232,-84 232,-84 232,-96 232,-96 232,-102 226,-108 220,-108"/>
<text text-anchor="middle" x="186" y="-87.5" font-family="sans" font-size="10.00">generate_reads</text>
</g>
<!-- 2&#45;&gt;0 -->
<g id="edge2" class="edge">
<title>2&#45;&gt;0</title>
<path fill="none" stroke="grey" stroke-width="2" d="M172.65,-71.7C166.24,-63.39 158.44,-53.28 151.39,-44.14"/>
<polygon fill="grey" stroke="grey" stroke-width="2" points="154.07,-41.88 145.19,-36.1 148.53,-46.16 154.07,-41.88"/>
</g>
<!-- 3 -->
<g id="node4" class="node">
<title>3</title>
<path fill="none" stroke="#afd856" stroke-width="2" stroke-dasharray="5,2" d="M158.5,-324C158.5,-324 105.5,-324 105.5,-324 99.5,-324 93.5,-318 93.5,-312 93.5,-312 93.5,-300 93.5,-300 93.5,-294 99.5,-288 105.5,-288 105.5,-288 158.5,-288 158.5,-288 164.5,-288 170.5,-294 170.5,-300 170.5,-300 170.5,-312 170.5,-312 170.5,-318 164.5,-324 158.5,-324"/>
<text text-anchor="middle" x="132" y="-303.5" font-family="sans" font-size="10.00">get_genome</text>
</g>
<!-- 3&#45;&gt;1 -->
<g id="edge3" class="edge">
<title>3&#45;&gt;1</title>
<path fill="none" stroke="grey" stroke-width="2" d="M123.44,-287.87C111.18,-263.35 88.52,-218.03 74.13,-189.26"/>
<polygon fill="grey" stroke="grey" stroke-width="2" points="77.2,-187.57 69.59,-180.19 70.94,-190.7 77.2,-187.57"/>
</g>
<!-- 5 -->
<g id="node6" class="node">
<title>5</title>
<path fill="none" stroke="#d8ac56" stroke-width="2" stroke-dasharray="5,2" d="M228,-252C228,-252 148,-252 148,-252 142,-252 136,-246 136,-240 136,-240 136,-228 136,-228 136,-222 142,-216 148,-216 148,-216 228,-216 228,-216 234,-216 240,-222 240,-228 240,-228 240,-240 240,-240 240,-246 234,-252 228,-252"/>
<text text-anchor="middle" x="188" y="-231.5" font-family="sans" font-size="10.00">sample_reference</text>
</g>
<!-- 3&#45;&gt;5 -->
<g id="edge6" class="edge">
<title>3&#45;&gt;5</title>
<path fill="none" stroke="grey" stroke-width="2" d="M145.84,-287.7C152.49,-279.39 160.58,-269.28 167.89,-260.14"/>
<polygon fill="grey" stroke="grey" stroke-width="2" points="170.8,-262.1 174.32,-252.1 165.34,-257.73 170.8,-262.1"/>
</g>
<!-- 4 -->
<g id="node5" class="node">
<title>4</title>
<path fill="none" stroke="#d85656" stroke-width="2" d="M256,-180C256,-180 152,-180 152,-180 146,-180 140,-174 140,-168 140,-168 140,-156 140,-156 140,-150 146,-144 152,-144 152,-144 256,-144 256,-144 262,-144 268,-150 268,-156 268,-156 268,-168 268,-168 268,-174 262,-180 256,-180"/>
<text text-anchor="middle" x="204" y="-159.5" font-family="sans" font-size="10.00">uncompress_reference</text>
</g>
<!-- 4&#45;&gt;2 -->
<g id="edge4" class="edge">
<title>4&#45;&gt;2</title>
<path fill="none" stroke="grey" stroke-width="2" d="M199.55,-143.7C197.55,-135.9 195.13,-126.51 192.9,-117.83"/>
<polygon fill="grey" stroke="grey" stroke-width="2" points="196.28,-116.92 190.4,-108.1 189.5,-118.66 196.28,-116.92"/>
</g>
<!-- 5&#45;&gt;4 -->
<g id="edge5" class="edge">
<title>5&#45;&gt;4</title>
<path fill="none" stroke="grey" stroke-width="2" d="M191.96,-215.7C193.72,-207.98 195.84,-198.71 197.8,-190.11"/>
<polygon fill="grey" stroke="grey" stroke-width="2" points="201.27,-190.63 200.09,-180.1 194.45,-189.07 201.27,-190.63"/>
</g>
</g>
</svg>
