<?xml version="1.0" encoding="UTF-8" standalone="no"?>
<!DOCTYPE svg PUBLIC "-//W3C//DTD SVG 1.1//EN"
 "http://www.w3.org/Graphics/SVG/1.1/DTD/svg11.dtd">
<!-- Generated by graphviz version 2.43.0 (0)
 -->
<!-- Title: snakemake_dag Pages: 1 -->
<svg width="463pt" height="563pt"
 viewBox="0.00 0.00 462.59 563.00" xmlns="http://www.w3.org/2000/svg" xmlns:xlink="http://www.w3.org/1999/xlink">
<g id="graph0" class="graph" transform="scale(1 1) rotate(0) translate(4 559)">
<title>snakemake_dag</title>
<polygon fill="white" stroke="transparent" points="-4,4 -4,-559 458.59,-559 458.59,4 -4,4"/>
<!-- 0 -->
<g id="node1" class="node">
<title>0</title>
<path fill="none" stroke="#d85656" stroke-width="2" stroke-dasharray="5,2" d="M282.09,-36C282.09,-36 252.09,-36 252.09,-36 246.09,-36 240.09,-30 240.09,-24 240.09,-24 240.09,-12 240.09,-12 240.09,-6 246.09,0 252.09,0 252.09,0 282.09,0 282.09,0 288.09,0 294.09,-6 294.09,-12 294.09,-12 294.09,-24 294.09,-24 294.09,-30 288.09,-36 282.09,-36"/>
<text text-anchor="middle" x="267.09" y="-15.5" font-family="sans" font-size="10.00">all</text>
</g>
<!-- 1 -->
<g id="node2" class="node">
<title>1</title>
<path fill="none" stroke="#56c9d8" stroke-width="2" stroke-dasharray="5,2" d="M153.59,-264.5C153.59,-264.5 62.59,-264.5 62.59,-264.5 56.59,-264.5 50.59,-258.5 50.59,-252.5 50.59,-252.5 50.59,-240.5 50.59,-240.5 50.59,-234.5 56.59,-228.5 62.59,-228.5 62.59,-228.5 153.59,-228.5 153.59,-228.5 159.59,-228.5 165.59,-234.5 165.59,-240.5 165.59,-240.5 165.59,-252.5 165.59,-252.5 165.59,-258.5 159.59,-264.5 153.59,-264.5"/>
<text text-anchor="middle" x="108.09" y="-244" font-family="sans" font-size="10.00">generate_mutations</text>
</g>
<!-- 1&#45;&gt;0 -->
<g id="edge1" class="edge">
<title>1&#45;&gt;0</title>
<path fill="none" stroke="grey" stroke-width="2" d="M53.7,-228.48C35.63,-219.94 17.48,-207.56 7.09,-190 -2.19,-174.32 -2.49,-164.5 7.09,-149 56.27,-69.42 170.55,-36.93 229.87,-25.05"/>
<polygon fill="grey" stroke="grey" stroke-width="2" points="230.77,-28.45 239.93,-23.13 229.45,-21.57 230.77,-28.45"/>
</g>
<!-- 8 -->
<g id="node9" class="node">
<title>8</title>
<path fill="none" stroke="#70d856" stroke-width="2" stroke-dasharray="5,2" d="M129.59,-190C129.59,-190 28.59,-190 28.59,-190 22.59,-190 16.59,-184 16.59,-178 16.59,-178 16.59,-161 16.59,-161 16.59,-155 22.59,-149 28.59,-149 28.59,-149 129.59,-149 129.59,-149 135.59,-149 141.59,-155 141.59,-161 141.59,-161 141.59,-178 141.59,-178 141.59,-184 135.59,-190 129.59,-190"/>
<text text-anchor="middle" x="79.09" y="-178" font-family="sans" font-size="10.00">generate_reads</text>
<text text-anchor="middle" x="79.09" y="-167" font-family="sans" font-size="10.00">folder: mutated_reads</text>
<text text-anchor="middle" x="79.09" y="-156" font-family="sans" font-size="10.00">type: mutated</text>
</g>
<!-- 1&#45;&gt;8 -->
<g id="edge15" class="edge">
<title>1&#45;&gt;8</title>
<path fill="none" stroke="grey" stroke-width="2" d="M101.51,-228.48C98.2,-219.92 94.1,-209.31 90.31,-199.52"/>
<polygon fill="grey" stroke="grey" stroke-width="2" points="93.54,-198.17 86.67,-190.1 87.01,-200.69 93.54,-198.17"/>
</g>
<!-- 2 -->
<g id="node3" class="node">
<title>2</title>
<path fill="none" stroke="#70d856" stroke-width="2" stroke-dasharray="5,2" d="M442.59,-113C442.59,-113 353.59,-113 353.59,-113 347.59,-113 341.59,-107 341.59,-101 341.59,-101 341.59,-84 341.59,-84 341.59,-78 347.59,-72 353.59,-72 353.59,-72 442.59,-72 442.59,-72 448.59,-72 454.59,-78 454.59,-84 454.59,-84 454.59,-101 454.59,-101 454.59,-107 448.59,-113 442.59,-113"/>
<text text-anchor="middle" x="398.09" y="-101" font-family="sans" font-size="10.00">generate_reads</text>
<text text-anchor="middle" x="398.09" y="-90" font-family="sans" font-size="10.00">folder: base_reads1</text>
<text text-anchor="middle" x="398.09" y="-79" font-family="sans" font-size="10.00">type: base</text>
</g>
<!-- 2&#45;&gt;0 -->
<g id="edge2" class="edge">
<title>2&#45;&gt;0</title>
<path fill="none" stroke="grey" stroke-width="2" d="M362.64,-71.88C344.15,-61.65 321.57,-49.15 303.01,-38.88"/>
<polygon fill="grey" stroke="grey" stroke-width="2" points="304.7,-35.81 294.26,-34.03 301.31,-41.94 304.7,-35.81"/>
</g>
<!-- 3 -->
<g id="node4" class="node">
<title>3</title>
<path fill="none" stroke="#70d856" stroke-width="2" stroke-dasharray="5,2" d="M353.59,-267C353.59,-267 264.59,-267 264.59,-267 258.59,-267 252.59,-261 252.59,-255 252.59,-255 252.59,-238 252.59,-238 252.59,-232 258.59,-226 264.59,-226 264.59,-226 353.59,-226 353.59,-226 359.59,-226 365.59,-232 365.59,-238 365.59,-238 365.59,-255 365.59,-255 365.59,-261 359.59,-267 353.59,-267"/>
<text text-anchor="middle" x="309.09" y="-255" font-family="sans" font-size="10.00">generate_reads</text>
<text text-anchor="middle" x="309.09" y="-244" font-family="sans" font-size="10.00">folder: base_reads2</text>
<text text-anchor="middle" x="309.09" y="-233" font-family="sans" font-size="10.00">type: base</text>
</g>
<!-- 3&#45;&gt;0 -->
<g id="edge3" class="edge">
<title>3&#45;&gt;0</title>
<path fill="none" stroke="grey" stroke-width="2" d="M306.03,-225.88C302.94,-206.35 297.95,-175.56 293.09,-149 286.58,-113.38 278.25,-72.44 272.8,-46.18"/>
<polygon fill="grey" stroke="grey" stroke-width="2" points="276.19,-45.28 270.72,-36.21 269.33,-46.71 276.19,-45.28"/>
</g>
<!-- 4 -->
<g id="node5" class="node">
<title>4</title>
<path fill="none" stroke="#d8cb56" stroke-width="2" stroke-dasharray="5,2" d="M250.09,-110.5C250.09,-110.5 194.09,-110.5 194.09,-110.5 188.09,-110.5 182.09,-104.5 182.09,-98.5 182.09,-98.5 182.09,-86.5 182.09,-86.5 182.09,-80.5 188.09,-74.5 194.09,-74.5 194.09,-74.5 250.09,-74.5 250.09,-74.5 256.09,-74.5 262.09,-80.5 262.09,-86.5 262.09,-86.5 262.09,-98.5 262.09,-98.5 262.09,-104.5 256.09,-110.5 250.09,-110.5"/>
<text text-anchor="middle" x="222.09" y="-90" font-family="sans" font-size="10.00">merge_reads</text>
</g>
<!-- 4&#45;&gt;0 -->
<g id="edge4" class="edge">
<title>4&#45;&gt;0</title>
<path fill="none" stroke="grey" stroke-width="2" d="M232.75,-74.32C238.25,-65.47 245.05,-54.5 251.16,-44.67"/>
<polygon fill="grey" stroke="grey" stroke-width="2" points="254.2,-46.4 256.5,-36.06 248.26,-42.71 254.2,-46.4"/>
</g>
<!-- 5 -->
<g id="node6" class="node">
<title>5</title>
<path fill="none" stroke="#56d8a9" stroke-width="2" stroke-dasharray="5,2" d="M174.09,-411C174.09,-411 112.09,-411 112.09,-411 106.09,-411 100.09,-405 100.09,-399 100.09,-399 100.09,-387 100.09,-387 100.09,-381 106.09,-375 112.09,-375 112.09,-375 174.09,-375 174.09,-375 180.09,-375 186.09,-381 186.09,-387 186.09,-387 186.09,-399 186.09,-399 186.09,-405 180.09,-411 174.09,-411"/>
<text text-anchor="middle" x="143.09" y="-390.5" font-family="sans" font-size="10.00">reference_bed</text>
</g>
<!-- 5&#45;&gt;1 -->
<g id="edge5" class="edge">
<title>5&#45;&gt;1</title>
<path fill="none" stroke="grey" stroke-width="2" d="M138.94,-374.86C132.94,-350.09 121.79,-304.05 114.66,-274.63"/>
<polygon fill="grey" stroke="grey" stroke-width="2" points="117.99,-273.52 112.24,-264.62 111.19,-275.16 117.99,-273.52"/>
</g>
<!-- 6 -->
<g id="node7" class="node">
<title>6</title>
<path fill="none" stroke="#56d873" stroke-width="2" stroke-dasharray="5,2" d="M262.09,-339C262.09,-339 182.09,-339 182.09,-339 176.09,-339 170.09,-333 170.09,-327 170.09,-327 170.09,-315 170.09,-315 170.09,-309 176.09,-303 182.09,-303 182.09,-303 262.09,-303 262.09,-303 268.09,-303 274.09,-309 274.09,-315 274.09,-315 274.09,-327 274.09,-327 274.09,-333 268.09,-339 262.09,-339"/>
<text text-anchor="middle" x="222.09" y="-318.5" font-family="sans" font-size="10.00">sample_reference</text>
</g>
<!-- 5&#45;&gt;6 -->
<g id="edge13" class="edge">
<title>5&#45;&gt;6</title>
<path fill="none" stroke="grey" stroke-width="2" d="M162.62,-374.7C172.47,-365.97 184.58,-355.24 195.29,-345.75"/>
<polygon fill="grey" stroke="grey" stroke-width="2" points="197.62,-348.36 202.79,-339.1 192.98,-343.12 197.62,-348.36"/>
</g>
<!-- 6&#45;&gt;1 -->
<g id="edge6" class="edge">
<title>6&#45;&gt;1</title>
<path fill="none" stroke="grey" stroke-width="2" d="M195.07,-302.82C179.74,-293.07 160.36,-280.74 143.79,-270.2"/>
<polygon fill="grey" stroke="grey" stroke-width="2" points="145.23,-266.97 134.91,-264.56 141.47,-272.88 145.23,-266.97"/>
</g>
<!-- 6&#45;&gt;2 -->
<g id="edge7" class="edge">
<title>6&#45;&gt;2</title>
<path fill="none" stroke="grey" stroke-width="2" d="M274.38,-315.69C308.32,-310.01 350.65,-296.94 375.09,-267 408.32,-226.29 407.15,-161.41 402.89,-123.59"/>
<polygon fill="grey" stroke="grey" stroke-width="2" points="406.31,-122.71 401.57,-113.23 399.36,-123.59 406.31,-122.71"/>
</g>
<!-- 6&#45;&gt;3 -->
<g id="edge8" class="edge">
<title>6&#45;&gt;3</title>
<path fill="none" stroke="grey" stroke-width="2" d="M242.71,-302.82C253.16,-294.11 266.08,-283.35 277.73,-273.64"/>
<polygon fill="grey" stroke="grey" stroke-width="2" points="280.11,-276.21 285.55,-267.12 275.62,-270.83 280.11,-276.21"/>
</g>
<!-- 7 -->
<g id="node8" class="node">
<title>7</title>
<path fill="none" stroke="#70d856" stroke-width="2" stroke-dasharray="5,2" d="M272.59,-190C272.59,-190 171.59,-190 171.59,-190 165.59,-190 159.59,-184 159.59,-178 159.59,-178 159.59,-161 159.59,-161 159.59,-155 165.59,-149 171.59,-149 171.59,-149 272.59,-149 272.59,-149 278.59,-149 284.59,-155 284.59,-161 284.59,-161 284.59,-178 284.59,-178 284.59,-184 278.59,-190 272.59,-190"/>
<text text-anchor="middle" x="222.09" y="-178" font-family="sans" font-size="10.00">generate_reads</text>
<text text-anchor="middle" x="222.09" y="-167" font-family="sans" font-size="10.00">folder: mutated_reads</text>
<text text-anchor="middle" x="222.09" y="-156" font-family="sans" font-size="10.00">type: base</text>
</g>
<!-- 6&#45;&gt;7 -->
<g id="edge14" class="edge">
<title>6&#45;&gt;7</title>
<path fill="none" stroke="grey" stroke-width="2" d="M222.09,-302.85C222.09,-277.88 222.09,-231.14 222.09,-200.42"/>
<polygon fill="grey" stroke="grey" stroke-width="2" points="225.59,-200.28 222.09,-190.28 218.59,-200.28 225.59,-200.28"/>
</g>
<!-- 7&#45;&gt;4 -->
<g id="edge9" class="edge">
<title>7&#45;&gt;4</title>
<path fill="none" stroke="grey" stroke-width="2" d="M222.09,-148.79C222.09,-140.31 222.09,-130.24 222.09,-121.04"/>
<polygon fill="grey" stroke="grey" stroke-width="2" points="225.59,-120.78 222.09,-110.78 218.59,-120.78 225.59,-120.78"/>
</g>
<!-- 8&#45;&gt;4 -->
<g id="edge10" class="edge">
<title>8&#45;&gt;4</title>
<path fill="none" stroke="grey" stroke-width="2" d="M116.29,-148.99C135.95,-138.68 160.15,-125.99 180.44,-115.34"/>
<polygon fill="grey" stroke="grey" stroke-width="2" points="182.23,-118.36 189.46,-110.61 178.98,-112.16 182.23,-118.36"/>
</g>
<!-- 9 -->
<g id="node10" class="node">
<title>9</title>
<path fill="none" stroke="#5692d8" stroke-width="2" stroke-dasharray="5,2" d="M301.59,-483C301.59,-483 212.59,-483 212.59,-483 206.59,-483 200.59,-477 200.59,-471 200.59,-471 200.59,-459 200.59,-459 200.59,-453 206.59,-447 212.59,-447 212.59,-447 301.59,-447 301.59,-447 307.59,-447 313.59,-453 313.59,-459 313.59,-459 313.59,-471 313.59,-471 313.59,-477 307.59,-483 301.59,-483"/>
<text text-anchor="middle" x="257.09" y="-468" font-family="sans" font-size="10.00">uncompress</text>
<text text-anchor="middle" x="257.09" y="-457" font-family="sans" font-size="10.00">files: Qrob_PM1N.fa</text>
</g>
<!-- 9&#45;&gt;6 -->
<g id="edge11" class="edge">
<title>9&#45;&gt;6</title>
<path fill="none" stroke="grey" stroke-width="2" d="M249.09,-446.67C244.68,-436.47 239.43,-423.22 236.09,-411 230.54,-390.66 226.95,-367.07 224.8,-349.28"/>
<polygon fill="grey" stroke="grey" stroke-width="2" points="228.27,-348.84 223.67,-339.3 221.31,-349.63 228.27,-348.84"/>
</g>
<!-- 10 -->
<g id="node11" class="node">
<title>10</title>
<path fill="none" stroke="#afd856" stroke-width="2" stroke-dasharray="5,2" d="M339.59,-411C339.59,-411 256.59,-411 256.59,-411 250.59,-411 244.59,-405 244.59,-399 244.59,-399 244.59,-387 244.59,-387 244.59,-381 250.59,-375 256.59,-375 256.59,-375 339.59,-375 339.59,-375 345.59,-375 351.59,-381 351.59,-387 351.59,-387 351.59,-399 351.59,-399 351.59,-405 345.59,-411 339.59,-411"/>
<text text-anchor="middle" x="298.09" y="-396" font-family="sans" font-size="10.00">index</text>
<text text-anchor="middle" x="298.09" y="-385" font-family="sans" font-size="10.00">file: Qrob_PM1N.fa</text>
</g>
<!-- 9&#45;&gt;10 -->
<g id="edge17" class="edge">
<title>9&#45;&gt;10</title>
<path fill="none" stroke="grey" stroke-width="2" d="M267.23,-446.7C271.94,-438.64 277.65,-428.89 282.87,-419.98"/>
<polygon fill="grey" stroke="grey" stroke-width="2" points="286.04,-421.5 288.07,-411.1 280,-417.96 286.04,-421.5"/>
</g>
<!-- 10&#45;&gt;6 -->
<g id="edge12" class="edge">
<title>10&#45;&gt;6</title>
<path fill="none" stroke="grey" stroke-width="2" d="M279.3,-374.7C269.92,-366.05 258.41,-355.45 248.18,-346.03"/>
<polygon fill="grey" stroke="grey" stroke-width="2" points="250.39,-343.3 240.66,-339.1 245.65,-348.45 250.39,-343.3"/>
</g>
<!-- 11 -->
<g id="node12" class="node">
<title>11</title>
<path fill="none" stroke="#d88d56" stroke-width="2" stroke-dasharray="5,2" d="M280.09,-555C280.09,-555 234.09,-555 234.09,-555 228.09,-555 222.09,-549 222.09,-543 222.09,-543 222.09,-531 222.09,-531 222.09,-525 228.09,-519 234.09,-519 234.09,-519 280.09,-519 280.09,-519 286.09,-519 292.09,-525 292.09,-531 292.09,-531 292.09,-543 292.09,-543 292.09,-549 286.09,-555 280.09,-555"/>
<text text-anchor="middle" x="257.09" y="-534.5" font-family="sans" font-size="10.00">get_source</text>
</g>
<!-- 11&#45;&gt;9 -->
<g id="edge16" class="edge">
<title>11&#45;&gt;9</title>
<path fill="none" stroke="grey" stroke-width="2" d="M257.09,-518.7C257.09,-510.98 257.09,-501.71 257.09,-493.11"/>
<polygon fill="grey" stroke="grey" stroke-width="2" points="260.59,-493.1 257.09,-483.1 253.59,-493.1 260.59,-493.1"/>
</g>
</g>
</svg>
