<?xml version="1.0" encoding="UTF-8" standalone="no"?>
<!DOCTYPE svg PUBLIC "-//W3C//DTD SVG 1.1//EN"
 "http://www.w3.org/Graphics/SVG/1.1/DTD/svg11.dtd">
<!-- Generated by graphviz version 2.43.0 (0)
 -->
<!-- Title: snakemake_dag Pages: 1 -->
<svg width="251pt" height="414pt"
 viewBox="0.00 0.00 250.50 414.00" xmlns="http://www.w3.org/2000/svg" xmlns:xlink="http://www.w3.org/1999/xlink">
<g id="graph0" class="graph" transform="scale(1 1) rotate(0) translate(4 410)">
<title>snakemake_dag</title>
<polygon fill="white" stroke="transparent" points="-4,4 -4,-410 246.5,-410 246.5,4 -4,4"/>
<!-- 0 -->
<g id="node1" class="node">
<title>0</title>
<path fill="none" stroke="#56d873" stroke-width="2" d="M77.5,-36C77.5,-36 47.5,-36 47.5,-36 41.5,-36 35.5,-30 35.5,-24 35.5,-24 35.5,-12 35.5,-12 35.5,-6 41.5,0 47.5,0 47.5,0 77.5,0 77.5,0 83.5,0 89.5,-6 89.5,-12 89.5,-12 89.5,-24 89.5,-24 89.5,-30 83.5,-36 77.5,-36"/>
<text text-anchor="middle" x="62.5" y="-15.5" font-family="sans" font-size="10.00">all</text>
</g>
<!-- 1 -->
<g id="node2" class="node">
<title>1</title>
<path fill="none" stroke="#d85656" stroke-width="2" stroke-dasharray="5,2" d="M107.5,-334C107.5,-334 39.5,-334 39.5,-334 33.5,-334 27.5,-328 27.5,-322 27.5,-322 27.5,-310 27.5,-310 27.5,-304 33.5,-298 39.5,-298 39.5,-298 107.5,-298 107.5,-298 113.5,-298 119.5,-304 119.5,-310 119.5,-310 119.5,-322 119.5,-322 119.5,-328 113.5,-334 107.5,-334"/>
<text text-anchor="middle" x="73.5" y="-313.5" font-family="sans" font-size="10.00">samtools_faidx</text>
</g>
<!-- 1&#45;&gt;0 -->
<g id="edge1" class="edge">
<title>1&#45;&gt;0</title>
<path fill="none" stroke="grey" stroke-width="2" d="M44.46,-297.84C32.19,-288.87 19.2,-276.68 12.5,-262 -21.27,-187.91 22.11,-90.72 47.11,-44.96"/>
<polygon fill="grey" stroke="grey" stroke-width="2" points="50.29,-46.44 52.13,-36 44.18,-43.02 50.29,-46.44"/>
</g>
<!-- 2 -->
<g id="node3" class="node">
<title>2</title>
<path fill="none" stroke="#afd856" stroke-width="2" stroke-dasharray="5,2" d="M200.5,-259.5C200.5,-259.5 170.5,-259.5 170.5,-259.5 164.5,-259.5 158.5,-253.5 158.5,-247.5 158.5,-247.5 158.5,-235.5 158.5,-235.5 158.5,-229.5 164.5,-223.5 170.5,-223.5 170.5,-223.5 200.5,-223.5 200.5,-223.5 206.5,-223.5 212.5,-229.5 212.5,-235.5 212.5,-235.5 212.5,-247.5 212.5,-247.5 212.5,-253.5 206.5,-259.5 200.5,-259.5"/>
<text text-anchor="middle" x="185.5" y="-239" font-family="sans" font-size="10.00">simug</text>
</g>
<!-- 1&#45;&gt;2 -->
<g id="edge6" class="edge">
<title>1&#45;&gt;2</title>
<path fill="none" stroke="grey" stroke-width="2" d="M100.05,-297.82C115.11,-288.07 134.15,-275.74 150.43,-265.2"/>
<polygon fill="grey" stroke="grey" stroke-width="2" points="152.66,-267.93 159.15,-259.56 148.86,-262.05 152.66,-267.93"/>
</g>
<!-- 3 -->
<g id="node4" class="node">
<title>3</title>
<path fill="none" stroke="#5692d8" stroke-width="2" stroke-dasharray="5,2" d="M125,-262C125,-262 34,-262 34,-262 28,-262 22,-256 22,-250 22,-250 22,-233 22,-233 22,-227 28,-221 34,-221 34,-221 125,-221 125,-221 131,-221 137,-227 137,-233 137,-233 137,-250 137,-250 137,-256 131,-262 125,-262"/>
<text text-anchor="middle" x="79.5" y="-250" font-family="sans" font-size="10.00">generate_mutations</text>
<text text-anchor="middle" x="79.5" y="-239" font-family="sans" font-size="10.00">N: 100</text>
<text text-anchor="middle" x="79.5" y="-228" font-family="sans" font-size="10.00">R: 2</text>
</g>
<!-- 1&#45;&gt;3 -->
<g id="edge8" class="edge">
<title>1&#45;&gt;3</title>
<path fill="none" stroke="grey" stroke-width="2" d="M74.93,-297.82C75.56,-290.2 76.32,-281 77.04,-272.32"/>
<polygon fill="grey" stroke="grey" stroke-width="2" points="80.54,-272.37 77.88,-262.12 73.57,-271.8 80.54,-272.37"/>
</g>
<!-- 2&#45;&gt;0 -->
<g id="edge2" class="edge">
<title>2&#45;&gt;0</title>
<path fill="none" stroke="grey" stroke-width="2" d="M203.66,-223.34C213.04,-213.2 223.53,-199.53 228.5,-185 234.4,-167.76 236.07,-160.58 228.5,-144 203.34,-88.85 139.69,-52.25 98.92,-33.6"/>
<polygon fill="grey" stroke="grey" stroke-width="2" points="100.15,-30.32 89.59,-29.46 97.31,-36.72 100.15,-30.32"/>
</g>
<!-- 7 -->
<g id="node8" class="node">
<title>7</title>
<path fill="none" stroke="#d88d56" stroke-width="2" d="M207,-185C207,-185 164,-185 164,-185 158,-185 152,-179 152,-173 152,-173 152,-156 152,-156 152,-150 158,-144 164,-144 164,-144 207,-144 207,-144 213,-144 219,-150 219,-156 219,-156 219,-173 219,-173 219,-179 213,-185 207,-185"/>
<text text-anchor="middle" x="185.5" y="-173" font-family="sans" font-size="10.00">iss_base</text>
<text text-anchor="middle" x="185.5" y="-162" font-family="sans" font-size="10.00">AF: 0.6</text>
<text text-anchor="middle" x="185.5" y="-151" font-family="sans" font-size="10.00">NR: 50000</text>
</g>
<!-- 2&#45;&gt;7 -->
<g id="edge13" class="edge">
<title>2&#45;&gt;7</title>
<path fill="none" stroke="grey" stroke-width="2" d="M185.5,-223.48C185.5,-215.1 185.5,-204.76 185.5,-195.13"/>
<polygon fill="grey" stroke="grey" stroke-width="2" points="189,-195.1 185.5,-185.1 182,-195.1 189,-195.1"/>
</g>
<!-- 8 -->
<g id="node9" class="node">
<title>8</title>
<path fill="none" stroke="#70d856" stroke-width="2" d="M122,-185C122,-185 69,-185 69,-185 63,-185 57,-179 57,-173 57,-173 57,-156 57,-156 57,-150 63,-144 69,-144 69,-144 122,-144 122,-144 128,-144 134,-150 134,-156 134,-156 134,-173 134,-173 134,-179 128,-185 122,-185"/>
<text text-anchor="middle" x="95.5" y="-173" font-family="sans" font-size="10.00">iss_mutated</text>
<text text-anchor="middle" x="95.5" y="-162" font-family="sans" font-size="10.00">AF: 0.6</text>
<text text-anchor="middle" x="95.5" y="-151" font-family="sans" font-size="10.00">NR: 50000</text>
</g>
<!-- 2&#45;&gt;8 -->
<g id="edge15" class="edge">
<title>2&#45;&gt;8</title>
<path fill="none" stroke="grey" stroke-width="2" d="M165.08,-223.48C153.85,-214.12 139.67,-202.31 127.05,-191.79"/>
<polygon fill="grey" stroke="grey" stroke-width="2" points="128.95,-188.81 119.03,-185.1 124.47,-194.19 128.95,-188.81"/>
</g>
<!-- 3&#45;&gt;0 -->
<g id="edge3" class="edge">
<title>3&#45;&gt;0</title>
<path fill="none" stroke="grey" stroke-width="2" d="M64.76,-220.81C58.08,-210.68 50.93,-197.79 47.5,-185 34.52,-136.49 40.6,-121.75 47.5,-72 48.69,-63.48 50.89,-54.39 53.26,-46.2"/>
<polygon fill="grey" stroke="grey" stroke-width="2" points="56.67,-46.99 56.27,-36.41 49.98,-44.94 56.67,-46.99"/>
</g>
<!-- 3&#45;&gt;7 -->
<g id="edge12" class="edge">
<title>3&#45;&gt;7</title>
<path fill="none" stroke="grey" stroke-width="2" d="M107.08,-220.99C119.98,-211.86 135.52,-200.87 149.35,-191.08"/>
<polygon fill="grey" stroke="grey" stroke-width="2" points="151.56,-193.81 157.7,-185.17 147.52,-188.09 151.56,-193.81"/>
</g>
<!-- 3&#45;&gt;8 -->
<g id="edge14" class="edge">
<title>3&#45;&gt;8</title>
<path fill="none" stroke="grey" stroke-width="2" d="M83.71,-220.79C85.4,-212.87 87.38,-203.57 89.24,-194.88"/>
<polygon fill="grey" stroke="grey" stroke-width="2" points="92.67,-195.58 91.33,-185.07 85.82,-194.12 92.67,-195.58"/>
</g>
<!-- 4 -->
<g id="node5" class="node">
<title>4</title>
<path fill="none" stroke="#56d8a9" stroke-width="2" d="M124.5,-108C124.5,-108 68.5,-108 68.5,-108 62.5,-108 56.5,-102 56.5,-96 56.5,-96 56.5,-84 56.5,-84 56.5,-78 62.5,-72 68.5,-72 68.5,-72 124.5,-72 124.5,-72 130.5,-72 136.5,-78 136.5,-84 136.5,-84 136.5,-96 136.5,-96 136.5,-102 130.5,-108 124.5,-108"/>
<text text-anchor="middle" x="96.5" y="-87.5" font-family="sans" font-size="10.00">merge_reads</text>
</g>
<!-- 4&#45;&gt;0 -->
<g id="edge4" class="edge">
<title>4&#45;&gt;0</title>
<path fill="none" stroke="grey" stroke-width="2" d="M88.1,-71.7C84.23,-63.73 79.55,-54.1 75.26,-45.26"/>
<polygon fill="grey" stroke="grey" stroke-width="2" points="78.33,-43.57 70.81,-36.1 72.03,-46.63 78.33,-43.57"/>
</g>
<!-- 5 -->
<g id="node6" class="node">
<title>5</title>
<path fill="none" stroke="#56c9d8" stroke-width="2" stroke-dasharray="5,2" d="M106,-406C106,-406 17,-406 17,-406 11,-406 5,-400 5,-394 5,-394 5,-382 5,-382 5,-376 11,-370 17,-370 17,-370 106,-370 106,-370 112,-370 118,-376 118,-382 118,-382 118,-394 118,-394 118,-400 112,-406 106,-406"/>
<text text-anchor="middle" x="61.5" y="-391" font-family="sans" font-size="10.00">cp_files</text>
<text text-anchor="middle" x="61.5" y="-380" font-family="sans" font-size="10.00">files: Qrob_PM1N.fa</text>
</g>
<!-- 5&#45;&gt;1 -->
<g id="edge5" class="edge">
<title>5&#45;&gt;1</title>
<path fill="none" stroke="grey" stroke-width="2" d="M64.47,-369.7C65.79,-361.98 67.38,-352.71 68.86,-344.11"/>
<polygon fill="grey" stroke="grey" stroke-width="2" points="72.33,-344.55 70.57,-334.1 65.43,-343.37 72.33,-344.55"/>
</g>
<!-- 6 -->
<g id="node7" class="node">
<title>6</title>
<path fill="none" stroke="#d8cb56" stroke-width="2" stroke-dasharray="5,2" d="M209.5,-334C209.5,-334 165.5,-334 165.5,-334 159.5,-334 153.5,-328 153.5,-322 153.5,-322 153.5,-310 153.5,-310 153.5,-304 159.5,-298 165.5,-298 165.5,-298 209.5,-298 209.5,-298 215.5,-298 221.5,-304 221.5,-310 221.5,-310 221.5,-322 221.5,-322 221.5,-328 215.5,-334 209.5,-334"/>
<text text-anchor="middle" x="187.5" y="-313.5" font-family="sans" font-size="10.00">vcf2model</text>
</g>
<!-- 6&#45;&gt;2 -->
<g id="edge7" class="edge">
<title>6&#45;&gt;2</title>
<path fill="none" stroke="grey" stroke-width="2" d="M187.03,-297.82C186.8,-289.42 186.51,-279.12 186.25,-269.69"/>
<polygon fill="grey" stroke="grey" stroke-width="2" points="189.75,-269.46 185.98,-259.56 182.75,-269.65 189.75,-269.46"/>
</g>
<!-- 7&#45;&gt;4 -->
<g id="edge9" class="edge">
<title>7&#45;&gt;4</title>
<path fill="none" stroke="grey" stroke-width="2" d="M161.19,-143.69C150.17,-134.72 137.06,-124.04 125.53,-114.65"/>
<polygon fill="grey" stroke="grey" stroke-width="2" points="127.43,-111.68 117.47,-108.08 123.01,-117.11 127.43,-111.68"/>
</g>
<!-- 8&#45;&gt;4 -->
<g id="edge10" class="edge">
<title>8&#45;&gt;4</title>
<path fill="none" stroke="grey" stroke-width="2" d="M95.78,-143.69C95.89,-135.91 96.01,-126.84 96.13,-118.45"/>
<polygon fill="grey" stroke="grey" stroke-width="2" points="99.63,-118.37 96.27,-108.32 92.63,-118.27 99.63,-118.37"/>
</g>
<!-- 9 -->
<g id="node10" class="node">
<title>9</title>
<path fill="none" stroke="#56c9d8" stroke-width="2" stroke-dasharray="5,2" d="M230.5,-406C230.5,-406 148.5,-406 148.5,-406 142.5,-406 136.5,-400 136.5,-394 136.5,-394 136.5,-382 136.5,-382 136.5,-376 142.5,-370 148.5,-370 148.5,-370 230.5,-370 230.5,-370 236.5,-370 242.5,-376 242.5,-382 242.5,-382 242.5,-394 242.5,-394 242.5,-400 236.5,-406 230.5,-406"/>
<text text-anchor="middle" x="189.5" y="-391" font-family="sans" font-size="10.00">cp_files</text>
<text text-anchor="middle" x="189.5" y="-380" font-family="sans" font-size="10.00">files: siteshz3P.vcf</text>
</g>
<!-- 9&#45;&gt;6 -->
<g id="edge11" class="edge">
<title>9&#45;&gt;6</title>
<path fill="none" stroke="grey" stroke-width="2" d="M189.01,-369.7C188.79,-361.98 188.53,-352.71 188.28,-344.11"/>
<polygon fill="grey" stroke="grey" stroke-width="2" points="191.78,-344 187.99,-334.1 184.78,-344.2 191.78,-344"/>
</g>
</g>
</svg>
