<?xml version="1.0" encoding="UTF-8" standalone="no"?>
<!DOCTYPE svg PUBLIC "-//W3C//DTD SVG 1.1//EN"
 "http://www.w3.org/Graphics/SVG/1.1/DTD/svg11.dtd">
<!-- Generated by graphviz version 2.43.0 (0)
 -->
<!-- Title: snakemake_dag Pages: 1 -->
<svg width="598pt" height="332pt"
 viewBox="0.00 0.00 597.50 332.00" xmlns="http://www.w3.org/2000/svg" xmlns:xlink="http://www.w3.org/1999/xlink">
<g id="graph0" class="graph" transform="scale(1 1) rotate(0) translate(4 328)">
<title>snakemake_dag</title>
<polygon fill="white" stroke="transparent" points="-4,4 -4,-328 593.5,-328 593.5,4 -4,4"/>
<!-- 0 -->
<g id="node1" class="node">
<title>0</title>
<path fill="none" stroke="#56d89a" stroke-width="2" d="M289.5,-36C289.5,-36 259.5,-36 259.5,-36 253.5,-36 247.5,-30 247.5,-24 247.5,-24 247.5,-12 247.5,-12 247.5,-6 253.5,0 259.5,0 259.5,0 289.5,0 289.5,0 295.5,0 301.5,-6 301.5,-12 301.5,-12 301.5,-24 301.5,-24 301.5,-30 295.5,-36 289.5,-36"/>
<text text-anchor="middle" x="274.5" y="-15.5" font-family="sans" font-size="10.00">all</text>
</g>
<!-- 1 -->
<g id="node2" class="node">
<title>1</title>
<path fill="none" stroke="#569ad8" stroke-width="2" d="M69,-180C69,-180 12,-180 12,-180 6,-180 0,-174 0,-168 0,-168 0,-156 0,-156 0,-150 6,-144 12,-144 12,-144 69,-144 69,-144 75,-144 81,-150 81,-156 81,-156 81,-168 81,-168 81,-174 75,-180 69,-180"/>
<text text-anchor="middle" x="40.5" y="-165" font-family="sans" font-size="10.00">iss_cambium</text>
<text text-anchor="middle" x="40.5" y="-154" font-family="sans" font-size="10.00">cambium: 1</text>
</g>
<!-- 1&#45;&gt;0 -->
<g id="edge1" class="edge">
<title>1&#45;&gt;0</title>
<path fill="none" stroke="grey" stroke-width="2" d="M46.64,-143.96C54.76,-123.84 70.97,-90.75 95.5,-72 137.28,-40.07 198,-27.32 236.87,-22.27"/>
<polygon fill="grey" stroke="grey" stroke-width="2" points="237.71,-25.7 247.22,-21.04 236.88,-18.75 237.71,-25.7"/>
</g>
<!-- 2 -->
<g id="node3" class="node">
<title>2</title>
<path fill="none" stroke="#569ad8" stroke-width="2" d="M138,-252C138,-252 81,-252 81,-252 75,-252 69,-246 69,-240 69,-240 69,-228 69,-228 69,-222 75,-216 81,-216 81,-216 138,-216 138,-216 144,-216 150,-222 150,-228 150,-228 150,-240 150,-240 150,-246 144,-252 138,-252"/>
<text text-anchor="middle" x="109.5" y="-237" font-family="sans" font-size="10.00">iss_cambium</text>
<text text-anchor="middle" x="109.5" y="-226" font-family="sans" font-size="10.00">cambium: 2</text>
</g>
<!-- 2&#45;&gt;0 -->
<g id="edge2" class="edge">
<title>2&#45;&gt;0</title>
<path fill="none" stroke="grey" stroke-width="2" d="M109.42,-215.74C110.19,-183.61 116.25,-114.09 152.5,-72 174.21,-46.79 210.14,-33.17 237.39,-26.07"/>
<polygon fill="grey" stroke="grey" stroke-width="2" points="238.47,-29.42 247.36,-23.67 236.82,-22.61 238.47,-29.42"/>
</g>
<!-- 3 -->
<g id="node4" class="node">
<title>3</title>
<path fill="none" stroke="#569ad8" stroke-width="2" d="M237,-252C237,-252 180,-252 180,-252 174,-252 168,-246 168,-240 168,-240 168,-228 168,-228 168,-222 174,-216 180,-216 180,-216 237,-216 237,-216 243,-216 249,-222 249,-228 249,-228 249,-240 249,-240 249,-246 243,-252 237,-252"/>
<text text-anchor="middle" x="208.5" y="-237" font-family="sans" font-size="10.00">iss_cambium</text>
<text text-anchor="middle" x="208.5" y="-226" font-family="sans" font-size="10.00">cambium: 3</text>
</g>
<!-- 3&#45;&gt;0 -->
<g id="edge3" class="edge">
<title>3&#45;&gt;0</title>
<path fill="none" stroke="grey" stroke-width="2" d="M195.78,-215.7C174.67,-184.7 137.47,-118.58 166.5,-72 181.94,-47.23 212.7,-33.71 237.46,-26.54"/>
<polygon fill="grey" stroke="grey" stroke-width="2" points="238.53,-29.87 247.3,-23.92 236.73,-23.11 238.53,-29.87"/>
</g>
<!-- 4 -->
<g id="node5" class="node">
<title>4</title>
<path fill="none" stroke="#d6d856" stroke-width="2" d="M217.5,-108C217.5,-108 187.5,-108 187.5,-108 181.5,-108 175.5,-102 175.5,-96 175.5,-96 175.5,-84 175.5,-84 175.5,-78 181.5,-72 187.5,-72 187.5,-72 217.5,-72 217.5,-72 223.5,-72 229.5,-78 229.5,-84 229.5,-84 229.5,-96 229.5,-96 229.5,-102 223.5,-108 217.5,-108"/>
<text text-anchor="middle" x="202.5" y="-93" font-family="sans" font-size="10.00">iss_leaf</text>
<text text-anchor="middle" x="202.5" y="-82" font-family="sans" font-size="10.00">leaf: 1</text>
</g>
<!-- 4&#45;&gt;0 -->
<g id="edge4" class="edge">
<title>4&#45;&gt;0</title>
<path fill="none" stroke="grey" stroke-width="2" d="M220.3,-71.7C229.1,-63.14 239.88,-52.66 249.5,-43.3"/>
<polygon fill="grey" stroke="grey" stroke-width="2" points="252.18,-45.58 256.91,-36.1 247.3,-40.57 252.18,-45.58"/>
</g>
<!-- 5 -->
<g id="node6" class="node">
<title>5</title>
<path fill="none" stroke="#d6d856" stroke-width="2" d="M289.5,-108C289.5,-108 259.5,-108 259.5,-108 253.5,-108 247.5,-102 247.5,-96 247.5,-96 247.5,-84 247.5,-84 247.5,-78 253.5,-72 259.5,-72 259.5,-72 289.5,-72 289.5,-72 295.5,-72 301.5,-78 301.5,-84 301.5,-84 301.5,-96 301.5,-96 301.5,-102 295.5,-108 289.5,-108"/>
<text text-anchor="middle" x="274.5" y="-93" font-family="sans" font-size="10.00">iss_leaf</text>
<text text-anchor="middle" x="274.5" y="-82" font-family="sans" font-size="10.00">leaf: 2</text>
</g>
<!-- 5&#45;&gt;0 -->
<g id="edge5" class="edge">
<title>5&#45;&gt;0</title>
<path fill="none" stroke="grey" stroke-width="2" d="M274.5,-71.7C274.5,-63.98 274.5,-54.71 274.5,-46.11"/>
<polygon fill="grey" stroke="grey" stroke-width="2" points="278,-46.1 274.5,-36.1 271,-46.1 278,-46.1"/>
</g>
<!-- 6 -->
<g id="node7" class="node">
<title>6</title>
<path fill="none" stroke="#d6d856" stroke-width="2" d="M361.5,-108C361.5,-108 331.5,-108 331.5,-108 325.5,-108 319.5,-102 319.5,-96 319.5,-96 319.5,-84 319.5,-84 319.5,-78 325.5,-72 331.5,-72 331.5,-72 361.5,-72 361.5,-72 367.5,-72 373.5,-78 373.5,-84 373.5,-84 373.5,-96 373.5,-96 373.5,-102 367.5,-108 361.5,-108"/>
<text text-anchor="middle" x="346.5" y="-93" font-family="sans" font-size="10.00">iss_leaf</text>
<text text-anchor="middle" x="346.5" y="-82" font-family="sans" font-size="10.00">leaf: 3</text>
</g>
<!-- 6&#45;&gt;0 -->
<g id="edge6" class="edge">
<title>6&#45;&gt;0</title>
<path fill="none" stroke="grey" stroke-width="2" d="M328.7,-71.7C319.9,-63.14 309.12,-52.66 299.5,-43.3"/>
<polygon fill="grey" stroke="grey" stroke-width="2" points="301.7,-40.57 292.09,-36.1 296.82,-45.58 301.7,-40.57"/>
</g>
<!-- 7 -->
<g id="node8" class="node">
<title>7</title>
<path fill="none" stroke="#d6d856" stroke-width="2" d="M433.5,-108C433.5,-108 403.5,-108 403.5,-108 397.5,-108 391.5,-102 391.5,-96 391.5,-96 391.5,-84 391.5,-84 391.5,-78 397.5,-72 403.5,-72 403.5,-72 433.5,-72 433.5,-72 439.5,-72 445.5,-78 445.5,-84 445.5,-84 445.5,-96 445.5,-96 445.5,-102 439.5,-108 433.5,-108"/>
<text text-anchor="middle" x="418.5" y="-93" font-family="sans" font-size="10.00">iss_leaf</text>
<text text-anchor="middle" x="418.5" y="-82" font-family="sans" font-size="10.00">leaf: 1</text>
</g>
<!-- 7&#45;&gt;0 -->
<g id="edge7" class="edge">
<title>7&#45;&gt;0</title>
<path fill="none" stroke="grey" stroke-width="2" d="M391.41,-75.83C368.73,-64.81 336.14,-48.97 311.13,-36.81"/>
<polygon fill="grey" stroke="grey" stroke-width="2" points="312.48,-33.57 301.95,-32.35 309.42,-39.87 312.48,-33.57"/>
</g>
<!-- 8 -->
<g id="node9" class="node">
<title>8</title>
<path fill="none" stroke="#d6d856" stroke-width="2" d="M505.5,-108C505.5,-108 475.5,-108 475.5,-108 469.5,-108 463.5,-102 463.5,-96 463.5,-96 463.5,-84 463.5,-84 463.5,-78 469.5,-72 475.5,-72 475.5,-72 505.5,-72 505.5,-72 511.5,-72 517.5,-78 517.5,-84 517.5,-84 517.5,-96 517.5,-96 517.5,-102 511.5,-108 505.5,-108"/>
<text text-anchor="middle" x="490.5" y="-93" font-family="sans" font-size="10.00">iss_leaf</text>
<text text-anchor="middle" x="490.5" y="-82" font-family="sans" font-size="10.00">leaf: 2</text>
</g>
<!-- 8&#45;&gt;0 -->
<g id="edge8" class="edge">
<title>8&#45;&gt;0</title>
<path fill="none" stroke="grey" stroke-width="2" d="M463.17,-75.56C460.27,-74.29 457.34,-73.08 454.5,-72 406.08,-53.57 348.35,-37.58 311.56,-28.12"/>
<polygon fill="grey" stroke="grey" stroke-width="2" points="312.32,-24.7 301.77,-25.62 310.6,-31.48 312.32,-24.7"/>
</g>
<!-- 9 -->
<g id="node10" class="node">
<title>9</title>
<path fill="none" stroke="#d6d856" stroke-width="2" d="M577.5,-108C577.5,-108 547.5,-108 547.5,-108 541.5,-108 535.5,-102 535.5,-96 535.5,-96 535.5,-84 535.5,-84 535.5,-78 541.5,-72 547.5,-72 547.5,-72 577.5,-72 577.5,-72 583.5,-72 589.5,-78 589.5,-84 589.5,-84 589.5,-96 589.5,-96 589.5,-102 583.5,-108 577.5,-108"/>
<text text-anchor="middle" x="562.5" y="-93" font-family="sans" font-size="10.00">iss_leaf</text>
<text text-anchor="middle" x="562.5" y="-82" font-family="sans" font-size="10.00">leaf: 3</text>
</g>
<!-- 9&#45;&gt;0 -->
<g id="edge9" class="edge">
<title>9&#45;&gt;0</title>
<path fill="none" stroke="grey" stroke-width="2" d="M535.26,-75.33C532.34,-74.11 529.38,-72.97 526.5,-72 452.12,-47 361.28,-31.37 311.51,-24.01"/>
<polygon fill="grey" stroke="grey" stroke-width="2" points="311.93,-20.53 301.53,-22.56 310.93,-27.46 311.93,-20.53"/>
</g>
<!-- 10 -->
<g id="node11" class="node">
<title>10</title>
<path fill="none" stroke="#56d8d8" stroke-width="2" d="M173.5,-324C173.5,-324 143.5,-324 143.5,-324 137.5,-324 131.5,-318 131.5,-312 131.5,-312 131.5,-300 131.5,-300 131.5,-294 137.5,-288 143.5,-288 143.5,-288 173.5,-288 173.5,-288 179.5,-288 185.5,-294 185.5,-300 185.5,-300 185.5,-312 185.5,-312 185.5,-318 179.5,-324 173.5,-324"/>
<text text-anchor="middle" x="158.5" y="-303.5" font-family="sans" font-size="10.00">cp_ref</text>
</g>
<!-- 10&#45;&gt;1 -->
<g id="edge10" class="edge">
<title>10&#45;&gt;1</title>
<path fill="none" stroke="grey" stroke-width="2" d="M131.13,-297.44C108.46,-289.74 77.19,-275.53 59.5,-252 46.18,-234.29 41.75,-209.27 40.47,-190.27"/>
<polygon fill="grey" stroke="grey" stroke-width="2" points="43.96,-189.99 40.04,-180.15 36.97,-190.28 43.96,-189.99"/>
</g>
<!-- 10&#45;&gt;2 -->
<g id="edge11" class="edge">
<title>10&#45;&gt;2</title>
<path fill="none" stroke="grey" stroke-width="2" d="M146.39,-287.7C140.63,-279.47 133.64,-269.48 127.29,-260.42"/>
<polygon fill="grey" stroke="grey" stroke-width="2" points="130.08,-258.29 121.47,-252.1 124.34,-262.3 130.08,-258.29"/>
</g>
<!-- 10&#45;&gt;3 -->
<g id="edge12" class="edge">
<title>10&#45;&gt;3</title>
<path fill="none" stroke="grey" stroke-width="2" d="M170.86,-287.7C176.73,-279.47 183.87,-269.48 190.34,-260.42"/>
<polygon fill="grey" stroke="grey" stroke-width="2" points="193.32,-262.28 196.28,-252.1 187.62,-258.21 193.32,-262.28"/>
</g>
<!-- 13 -->
<g id="node14" class="node">
<title>13</title>
<path fill="none" stroke="#d89556" stroke-width="2" d="M408,-252C408,-252 279,-252 279,-252 273,-252 267,-246 267,-240 267,-240 267,-228 267,-228 267,-222 273,-216 279,-216 279,-216 408,-216 408,-216 414,-216 420,-222 420,-228 420,-228 420,-240 420,-240 420,-246 414,-252 408,-252"/>
<text text-anchor="middle" x="343.5" y="-237" font-family="sans" font-size="10.00">generate_mutations_branch</text>
<text text-anchor="middle" x="343.5" y="-226" font-family="sans" font-size="10.00">branch: 1</text>
</g>
<!-- 10&#45;&gt;13 -->
<g id="edge21" class="edge">
<title>10&#45;&gt;13</title>
<path fill="none" stroke="grey" stroke-width="2" d="M185.8,-294.67C212.78,-284.46 254.84,-268.55 288.73,-255.72"/>
<polygon fill="grey" stroke="grey" stroke-width="2" points="290.39,-258.84 298.51,-252.02 287.91,-252.29 290.39,-258.84"/>
</g>
<!-- 11 -->
<g id="node12" class="node">
<title>11</title>
<path fill="none" stroke="#97d856" stroke-width="2" d="M345,-180C345,-180 236,-180 236,-180 230,-180 224,-174 224,-168 224,-168 224,-156 224,-156 224,-150 230,-144 236,-144 236,-144 345,-144 345,-144 351,-144 357,-150 357,-156 357,-156 357,-168 357,-168 357,-174 351,-180 345,-180"/>
<text text-anchor="middle" x="290.5" y="-165" font-family="sans" font-size="10.00">generate_mutations_tip</text>
<text text-anchor="middle" x="290.5" y="-154" font-family="sans" font-size="10.00">tip: L</text>
</g>
<!-- 11&#45;&gt;4 -->
<g id="edge13" class="edge">
<title>11&#45;&gt;4</title>
<path fill="none" stroke="grey" stroke-width="2" d="M268.75,-143.7C257.66,-134.88 244.03,-124.03 232.01,-114.47"/>
<polygon fill="grey" stroke="grey" stroke-width="2" points="234.01,-111.59 224,-108.1 229.65,-117.07 234.01,-111.59"/>
</g>
<!-- 11&#45;&gt;5 -->
<g id="edge14" class="edge">
<title>11&#45;&gt;5</title>
<path fill="none" stroke="grey" stroke-width="2" d="M286.54,-143.7C284.78,-135.98 282.66,-126.71 280.7,-118.11"/>
<polygon fill="grey" stroke="grey" stroke-width="2" points="284.05,-117.07 278.41,-108.1 277.23,-118.63 284.05,-117.07"/>
</g>
<!-- 11&#45;&gt;6 -->
<g id="edge15" class="edge">
<title>11&#45;&gt;6</title>
<path fill="none" stroke="grey" stroke-width="2" d="M304.34,-143.7C310.99,-135.39 319.08,-125.28 326.39,-116.14"/>
<polygon fill="grey" stroke="grey" stroke-width="2" points="329.3,-118.1 332.82,-108.1 323.84,-113.73 329.3,-118.1"/>
</g>
<!-- 12 -->
<g id="node13" class="node">
<title>12</title>
<path fill="none" stroke="#97d856" stroke-width="2" d="M528,-180C528,-180 419,-180 419,-180 413,-180 407,-174 407,-168 407,-168 407,-156 407,-156 407,-150 413,-144 419,-144 419,-144 528,-144 528,-144 534,-144 540,-150 540,-156 540,-156 540,-168 540,-168 540,-174 534,-180 528,-180"/>
<text text-anchor="middle" x="473.5" y="-165" font-family="sans" font-size="10.00">generate_mutations_tip</text>
<text text-anchor="middle" x="473.5" y="-154" font-family="sans" font-size="10.00">tip: O</text>
</g>
<!-- 12&#45;&gt;7 -->
<g id="edge16" class="edge">
<title>12&#45;&gt;7</title>
<path fill="none" stroke="grey" stroke-width="2" d="M459.9,-143.7C453.38,-135.39 445.43,-125.28 438.25,-116.14"/>
<polygon fill="grey" stroke="grey" stroke-width="2" points="440.87,-113.81 431.94,-108.1 435.37,-118.13 440.87,-113.81"/>
</g>
<!-- 12&#45;&gt;8 -->
<g id="edge17" class="edge">
<title>12&#45;&gt;8</title>
<path fill="none" stroke="grey" stroke-width="2" d="M477.7,-143.7C479.6,-135.9 481.88,-126.51 483.98,-117.83"/>
<polygon fill="grey" stroke="grey" stroke-width="2" points="487.39,-118.65 486.35,-108.1 480.58,-117 487.39,-118.65"/>
</g>
<!-- 12&#45;&gt;9 -->
<g id="edge18" class="edge">
<title>12&#45;&gt;9</title>
<path fill="none" stroke="grey" stroke-width="2" d="M495.5,-143.7C506.71,-134.88 520.5,-124.03 532.65,-114.47"/>
<polygon fill="grey" stroke="grey" stroke-width="2" points="535.06,-117.04 540.75,-108.1 530.73,-111.54 535.06,-117.04"/>
</g>
<!-- 13&#45;&gt;11 -->
<g id="edge19" class="edge">
<title>13&#45;&gt;11</title>
<path fill="none" stroke="grey" stroke-width="2" d="M330.4,-215.7C324.11,-207.39 316.45,-197.28 309.54,-188.14"/>
<polygon fill="grey" stroke="grey" stroke-width="2" points="312.28,-185.96 303.45,-180.1 306.7,-190.19 312.28,-185.96"/>
</g>
<!-- 13&#45;&gt;12 -->
<g id="edge20" class="edge">
<title>13&#45;&gt;12</title>
<path fill="none" stroke="grey" stroke-width="2" d="M375.3,-215.88C392.61,-206.55 414.22,-194.92 432.76,-184.94"/>
<polygon fill="grey" stroke="grey" stroke-width="2" points="434.43,-188.01 441.58,-180.19 431.11,-181.85 434.43,-188.01"/>
</g>
</g>
</svg>
