<?xml version="1.0" encoding="UTF-8" standalone="no"?>
<!DOCTYPE svg PUBLIC "-//W3C//DTD SVG 1.1//EN"
 "http://www.w3.org/Graphics/SVG/1.1/DTD/svg11.dtd">
<!-- Generated by graphviz version 2.43.0 (0)
 -->
<!-- Title: snakemake_dag Pages: 1 -->
<svg width="240pt" height="260pt"
 viewBox="0.00 0.00 240.00 260.00" xmlns="http://www.w3.org/2000/svg" xmlns:xlink="http://www.w3.org/1999/xlink">
<g id="graph0" class="graph" transform="scale(1 1) rotate(0) translate(4 256)">
<title>snakemake_dag</title>
<polygon fill="white" stroke="transparent" points="-4,4 -4,-256 236,-256 236,4 -4,4"/>
<!-- 0 -->
<g id="node1" class="node">
<title>0</title>
<path fill="none" stroke="#afd856" stroke-width="2" stroke-dasharray="5,2" d="M123,-36C123,-36 93,-36 93,-36 87,-36 81,-30 81,-24 81,-24 81,-12 81,-12 81,-6 87,0 93,0 93,0 123,0 123,0 129,0 135,-6 135,-12 135,-12 135,-24 135,-24 135,-30 129,-36 123,-36"/>
<text text-anchor="middle" x="108" y="-15.5" font-family="sans" font-size="10.00">all</text>
</g>
<!-- 1 -->
<g id="node2" class="node">
<title>1</title>
<path fill="none" stroke="#d85656" stroke-width="2" stroke-dasharray="5,2" d="M80,-108C80,-108 12,-108 12,-108 6,-108 0,-102 0,-96 0,-96 0,-84 0,-84 0,-78 6,-72 12,-72 12,-72 80,-72 80,-72 86,-72 92,-78 92,-84 92,-84 92,-96 92,-96 92,-102 86,-108 80,-108"/>
<text text-anchor="middle" x="46" y="-87.5" font-family="sans" font-size="10.00">reference_stats</text>
</g>
<!-- 1&#45;&gt;0 -->
<g id="edge1" class="edge">
<title>1&#45;&gt;0</title>
<path fill="none" stroke="grey" stroke-width="2" d="M61.33,-71.7C68.76,-63.3 77.82,-53.07 85.98,-43.86"/>
<polygon fill="grey" stroke="grey" stroke-width="2" points="88.84,-45.91 92.85,-36.1 83.6,-41.27 88.84,-45.91"/>
</g>
<!-- 2 -->
<g id="node3" class="node">
<title>2</title>
<path fill="none" stroke="#59d856" stroke-width="2" stroke-dasharray="5,2" d="M220,-108C220,-108 122,-108 122,-108 116,-108 110,-102 110,-96 110,-96 110,-84 110,-84 110,-78 116,-72 122,-72 122,-72 220,-72 220,-72 226,-72 232,-78 232,-84 232,-84 232,-96 232,-96 232,-102 226,-108 220,-108"/>
<text text-anchor="middle" x="171" y="-87.5" font-family="sans" font-size="10.00">reference_subsample</text>
</g>
<!-- 2&#45;&gt;0 -->
<g id="edge2" class="edge">
<title>2&#45;&gt;0</title>
<path fill="none" stroke="grey" stroke-width="2" d="M155.43,-71.7C147.8,-63.22 138.48,-52.86 130.12,-43.58"/>
<polygon fill="grey" stroke="grey" stroke-width="2" points="132.69,-41.2 123.39,-36.1 127.48,-45.88 132.69,-41.2"/>
</g>
<!-- 3 -->
<g id="node4" class="node">
<title>3</title>
<path fill="none" stroke="#56d8a9" stroke-width="2" stroke-dasharray="5,2" d="M138,-252C138,-252 78,-252 78,-252 72,-252 66,-246 66,-240 66,-240 66,-228 66,-228 66,-222 72,-216 78,-216 78,-216 138,-216 138,-216 144,-216 150,-222 150,-228 150,-228 150,-240 150,-240 150,-246 144,-252 138,-252"/>
<text text-anchor="middle" x="108" y="-231.5" font-family="sans" font-size="10.00">reference_get</text>
</g>
<!-- 3&#45;&gt;1 -->
<g id="edge3" class="edge">
<title>3&#45;&gt;1</title>
<path fill="none" stroke="grey" stroke-width="2" d="M100.52,-215.87C89.86,-191.46 70.2,-146.43 57.63,-117.64"/>
<polygon fill="grey" stroke="grey" stroke-width="2" points="60.71,-115.95 53.51,-108.19 54.3,-118.75 60.71,-115.95"/>
</g>
<!-- 4 -->
<g id="node5" class="node">
<title>4</title>
<path fill="none" stroke="#d8ac56" stroke-width="2" stroke-dasharray="5,2" d="M200.5,-180C200.5,-180 119.5,-180 119.5,-180 113.5,-180 107.5,-174 107.5,-168 107.5,-168 107.5,-156 107.5,-156 107.5,-150 113.5,-144 119.5,-144 119.5,-144 200.5,-144 200.5,-144 206.5,-144 212.5,-150 212.5,-156 212.5,-156 212.5,-168 212.5,-168 212.5,-174 206.5,-180 200.5,-180"/>
<text text-anchor="middle" x="160" y="-159.5" font-family="sans" font-size="10.00">reference_convert</text>
</g>
<!-- 3&#45;&gt;4 -->
<g id="edge5" class="edge">
<title>3&#45;&gt;4</title>
<path fill="none" stroke="grey" stroke-width="2" d="M120.85,-215.7C127.03,-207.39 134.54,-197.28 141.32,-188.14"/>
<polygon fill="grey" stroke="grey" stroke-width="2" points="144.14,-190.22 147.29,-180.1 138.52,-186.04 144.14,-190.22"/>
</g>
<!-- 4&#45;&gt;2 -->
<g id="edge4" class="edge">
<title>4&#45;&gt;2</title>
<path fill="none" stroke="grey" stroke-width="2" d="M162.72,-143.7C163.93,-135.98 165.39,-126.71 166.74,-118.11"/>
<polygon fill="grey" stroke="grey" stroke-width="2" points="170.22,-118.53 168.31,-108.1 163.3,-117.44 170.22,-118.53"/>
</g>
</g>
</svg>
