<?xml version="1.0" encoding="UTF-8" standalone="no"?>
<!DOCTYPE svg PUBLIC "-//W3C//DTD SVG 1.1//EN"
 "http://www.w3.org/Graphics/SVG/1.1/DTD/svg11.dtd">
<!-- Generated by graphviz version 2.43.0 (0)
 -->
<!-- Title: snakemake_dag Pages: 1 -->
<svg width="285pt" height="436pt"
 viewBox="0.00 0.00 284.66 436.00" xmlns="http://www.w3.org/2000/svg" xmlns:xlink="http://www.w3.org/1999/xlink">
<g id="graph0" class="graph" transform="scale(1 1) rotate(0) translate(4 432)">
<title>snakemake_dag</title>
<polygon fill="white" stroke="transparent" points="-4,4 -4,-432 280.66,-432 280.66,4 -4,4"/>
<!-- 0 -->
<g id="node1" class="node">
<title>0</title>
<path fill="none" stroke="#afd856" stroke-width="2" d="M83.66,-36C83.66,-36 53.66,-36 53.66,-36 47.66,-36 41.66,-30 41.66,-24 41.66,-24 41.66,-12 41.66,-12 41.66,-6 47.66,0 53.66,0 53.66,0 83.66,0 83.66,0 89.66,0 95.66,-6 95.66,-12 95.66,-12 95.66,-24 95.66,-24 95.66,-30 89.66,-36 83.66,-36"/>
<text text-anchor="middle" x="68.66" y="-15.5" font-family="sans" font-size="10.00">all</text>
</g>
<!-- 1 -->
<g id="node2" class="node">
<title>1</title>
<path fill="none" stroke="#56c9d8" stroke-width="2" stroke-dasharray="5,2" d="M122.66,-356C122.66,-356 54.66,-356 54.66,-356 48.66,-356 42.66,-350 42.66,-344 42.66,-344 42.66,-332 42.66,-332 42.66,-326 48.66,-320 54.66,-320 54.66,-320 122.66,-320 122.66,-320 128.66,-320 134.66,-326 134.66,-332 134.66,-332 134.66,-344 134.66,-344 134.66,-350 128.66,-356 122.66,-356"/>
<text text-anchor="middle" x="88.66" y="-335.5" font-family="sans" font-size="10.00">samtools_faidx</text>
</g>
<!-- 1&#45;&gt;0 -->
<g id="edge1" class="edge">
<title>1&#45;&gt;0</title>
<path fill="none" stroke="grey" stroke-width="2" d="M52.15,-319.92C38.06,-311.29 23.49,-299.35 15.66,-284 -25.37,-203.5 25.33,-94.14 52.96,-44.91"/>
<polygon fill="grey" stroke="grey" stroke-width="2" points="56.04,-46.57 57.99,-36.16 49.97,-43.09 56.04,-46.57"/>
</g>
<!-- 2 -->
<g id="node3" class="node">
<title>2</title>
<path fill="none" stroke="#5692d8" stroke-width="2" stroke-dasharray="5,2" d="M238.66,-281.5C238.66,-281.5 208.66,-281.5 208.66,-281.5 202.66,-281.5 196.66,-275.5 196.66,-269.5 196.66,-269.5 196.66,-257.5 196.66,-257.5 196.66,-251.5 202.66,-245.5 208.66,-245.5 208.66,-245.5 238.66,-245.5 238.66,-245.5 244.66,-245.5 250.66,-251.5 250.66,-257.5 250.66,-257.5 250.66,-269.5 250.66,-269.5 250.66,-275.5 244.66,-281.5 238.66,-281.5"/>
<text text-anchor="middle" x="223.66" y="-261" font-family="sans" font-size="10.00">simug</text>
</g>
<!-- 1&#45;&gt;2 -->
<g id="edge6" class="edge">
<title>1&#45;&gt;2</title>
<path fill="none" stroke="grey" stroke-width="2" d="M120.66,-319.82C140.76,-309.02 166.74,-295.07 187.58,-283.88"/>
<polygon fill="grey" stroke="grey" stroke-width="2" points="189.3,-286.93 196.45,-279.11 185.99,-280.76 189.3,-286.93"/>
</g>
<!-- 3 -->
<g id="node4" class="node">
<title>3</title>
<path fill="none" stroke="#56d8a9" stroke-width="2" stroke-dasharray="5,2" d="M128.16,-284C128.16,-284 37.16,-284 37.16,-284 31.16,-284 25.16,-278 25.16,-272 25.16,-272 25.16,-255 25.16,-255 25.16,-249 31.16,-243 37.16,-243 37.16,-243 128.16,-243 128.16,-243 134.16,-243 140.16,-249 140.16,-255 140.16,-255 140.16,-272 140.16,-272 140.16,-278 134.16,-284 128.16,-284"/>
<text text-anchor="middle" x="82.66" y="-272" font-family="sans" font-size="10.00">generate_mutations</text>
<text text-anchor="middle" x="82.66" y="-261" font-family="sans" font-size="10.00">N: 100</text>
<text text-anchor="middle" x="82.66" y="-250" font-family="sans" font-size="10.00">R: 2</text>
</g>
<!-- 1&#45;&gt;3 -->
<g id="edge8" class="edge">
<title>1&#45;&gt;3</title>
<path fill="none" stroke="grey" stroke-width="2" d="M87.24,-319.82C86.61,-312.2 85.85,-303 85.13,-294.32"/>
<polygon fill="grey" stroke="grey" stroke-width="2" points="88.6,-293.8 84.29,-284.12 81.62,-294.37 88.6,-293.8"/>
</g>
<!-- 7 -->
<g id="node8" class="node">
<title>7</title>
<path fill="none" stroke="#d85656" stroke-width="2" d="M213.16,-207C213.16,-207 170.16,-207 170.16,-207 164.16,-207 158.16,-201 158.16,-195 158.16,-195 158.16,-156 158.16,-156 158.16,-150 164.16,-144 170.16,-144 170.16,-144 213.16,-144 213.16,-144 219.16,-144 225.16,-150 225.16,-156 225.16,-156 225.16,-195 225.16,-195 225.16,-201 219.16,-207 213.16,-207"/>
<text text-anchor="middle" x="191.66" y="-195" font-family="sans" font-size="10.00">iss_base</text>
<text text-anchor="middle" x="191.66" y="-184" font-family="sans" font-size="10.00">AF: 0.6</text>
<text text-anchor="middle" x="191.66" y="-173" font-family="sans" font-size="10.00">N: 100</text>
<text text-anchor="middle" x="191.66" y="-162" font-family="sans" font-size="10.00">NR: 50000</text>
<text text-anchor="middle" x="191.66" y="-151" font-family="sans" font-size="10.00">R: 2</text>
</g>
<!-- 1&#45;&gt;7 -->
<g id="edge12" class="edge">
<title>1&#45;&gt;7</title>
<path fill="none" stroke="grey" stroke-width="2" d="M113.04,-319.8C125.04,-310.34 138.97,-297.75 148.66,-284 162.96,-263.72 173.46,-238 180.51,-216.8"/>
<polygon fill="grey" stroke="grey" stroke-width="2" points="183.9,-217.7 183.6,-207.11 177.23,-215.58 183.9,-217.7"/>
</g>
<!-- 2&#45;&gt;0 -->
<g id="edge2" class="edge">
<title>2&#45;&gt;0</title>
<path fill="none" stroke="grey" stroke-width="2" d="M230.5,-245.12C238.77,-221.18 249.85,-177.27 234.66,-144 209.5,-88.85 145.85,-52.25 105.08,-33.6"/>
<polygon fill="grey" stroke="grey" stroke-width="2" points="106.31,-30.32 95.75,-29.46 103.47,-36.72 106.31,-30.32"/>
</g>
<!-- 2&#45;&gt;7 -->
<g id="edge13" class="edge">
<title>2&#45;&gt;7</title>
<path fill="none" stroke="grey" stroke-width="2" d="M217.19,-245.1C214.11,-236.84 210.31,-226.6 206.58,-216.58"/>
<polygon fill="grey" stroke="grey" stroke-width="2" points="209.82,-215.26 203.05,-207.1 203.26,-217.7 209.82,-215.26"/>
</g>
<!-- 8 -->
<g id="node9" class="node">
<title>8</title>
<path fill="none" stroke="#56d873" stroke-width="2" d="M128.16,-196C128.16,-196 75.16,-196 75.16,-196 69.16,-196 63.16,-190 63.16,-184 63.16,-184 63.16,-167 63.16,-167 63.16,-161 69.16,-155 75.16,-155 75.16,-155 128.16,-155 128.16,-155 134.16,-155 140.16,-161 140.16,-167 140.16,-167 140.16,-184 140.16,-184 140.16,-190 134.16,-196 128.16,-196"/>
<text text-anchor="middle" x="101.66" y="-184" font-family="sans" font-size="10.00">iss_mutated</text>
<text text-anchor="middle" x="101.66" y="-173" font-family="sans" font-size="10.00">AF: 0.6</text>
<text text-anchor="middle" x="101.66" y="-162" font-family="sans" font-size="10.00">NR: 50000</text>
</g>
<!-- 2&#45;&gt;8 -->
<g id="edge15" class="edge">
<title>2&#45;&gt;8</title>
<path fill="none" stroke="grey" stroke-width="2" d="M199.27,-245.3C181.62,-232.87 157.49,-215.86 137.64,-201.86"/>
<polygon fill="grey" stroke="grey" stroke-width="2" points="139.62,-198.97 129.43,-196.07 135.58,-204.69 139.62,-198.97"/>
</g>
<!-- 3&#45;&gt;0 -->
<g id="edge3" class="edge">
<title>3&#45;&gt;0</title>
<path fill="none" stroke="grey" stroke-width="2" d="M69.44,-242.88C63.34,-232.66 56.77,-219.67 53.66,-207 39.36,-148.73 45.41,-131.43 53.66,-72 54.85,-63.48 57.05,-54.39 59.41,-46.2"/>
<polygon fill="grey" stroke="grey" stroke-width="2" points="62.83,-46.99 62.42,-36.41 56.14,-44.94 62.83,-46.99"/>
</g>
<!-- 3&#45;&gt;8 -->
<g id="edge14" class="edge">
<title>3&#45;&gt;8</title>
<path fill="none" stroke="grey" stroke-width="2" d="M86.97,-242.99C89.39,-232.07 92.44,-218.23 95.14,-206.02"/>
<polygon fill="grey" stroke="grey" stroke-width="2" points="98.56,-206.75 97.3,-196.24 91.73,-205.24 98.56,-206.75"/>
</g>
<!-- 4 -->
<g id="node5" class="node">
<title>4</title>
<path fill="none" stroke="#70d856" stroke-width="2" d="M130.66,-108C130.66,-108 74.66,-108 74.66,-108 68.66,-108 62.66,-102 62.66,-96 62.66,-96 62.66,-84 62.66,-84 62.66,-78 68.66,-72 74.66,-72 74.66,-72 130.66,-72 130.66,-72 136.66,-72 142.66,-78 142.66,-84 142.66,-84 142.66,-96 142.66,-96 142.66,-102 136.66,-108 130.66,-108"/>
<text text-anchor="middle" x="102.66" y="-87.5" font-family="sans" font-size="10.00">merge_reads</text>
</g>
<!-- 4&#45;&gt;0 -->
<g id="edge4" class="edge">
<title>4&#45;&gt;0</title>
<path fill="none" stroke="grey" stroke-width="2" d="M94.26,-71.7C90.39,-63.73 85.71,-54.1 81.42,-45.26"/>
<polygon fill="grey" stroke="grey" stroke-width="2" points="84.49,-43.57 76.97,-36.1 78.19,-46.63 84.49,-43.57"/>
</g>
<!-- 5 -->
<g id="node6" class="node">
<title>5</title>
<path fill="none" stroke="#d88d56" stroke-width="2" stroke-dasharray="5,2" d="M133.16,-428C133.16,-428 44.16,-428 44.16,-428 38.16,-428 32.16,-422 32.16,-416 32.16,-416 32.16,-404 32.16,-404 32.16,-398 38.16,-392 44.16,-392 44.16,-392 133.16,-392 133.16,-392 139.16,-392 145.16,-398 145.16,-404 145.16,-404 145.16,-416 145.16,-416 145.16,-422 139.16,-428 133.16,-428"/>
<text text-anchor="middle" x="88.66" y="-413" font-family="sans" font-size="10.00">cp_files</text>
<text text-anchor="middle" x="88.66" y="-402" font-family="sans" font-size="10.00">files: Qrob_PM1N.fa</text>
</g>
<!-- 5&#45;&gt;1 -->
<g id="edge5" class="edge">
<title>5&#45;&gt;1</title>
<path fill="none" stroke="grey" stroke-width="2" d="M88.66,-391.7C88.66,-383.98 88.66,-374.71 88.66,-366.11"/>
<polygon fill="grey" stroke="grey" stroke-width="2" points="92.16,-366.1 88.66,-356.1 85.16,-366.1 92.16,-366.1"/>
</g>
<!-- 6 -->
<g id="node7" class="node">
<title>6</title>
<path fill="none" stroke="#d8cb56" stroke-width="2" stroke-dasharray="5,2" d="M245.66,-356C245.66,-356 201.66,-356 201.66,-356 195.66,-356 189.66,-350 189.66,-344 189.66,-344 189.66,-332 189.66,-332 189.66,-326 195.66,-320 201.66,-320 201.66,-320 245.66,-320 245.66,-320 251.66,-320 257.66,-326 257.66,-332 257.66,-332 257.66,-344 257.66,-344 257.66,-350 251.66,-356 245.66,-356"/>
<text text-anchor="middle" x="223.66" y="-335.5" font-family="sans" font-size="10.00">vcf2model</text>
</g>
<!-- 6&#45;&gt;2 -->
<g id="edge7" class="edge">
<title>6&#45;&gt;2</title>
<path fill="none" stroke="grey" stroke-width="2" d="M223.66,-319.82C223.66,-311.42 223.66,-301.12 223.66,-291.69"/>
<polygon fill="grey" stroke="grey" stroke-width="2" points="227.16,-291.56 223.66,-281.56 220.16,-291.56 227.16,-291.56"/>
</g>
<!-- 7&#45;&gt;4 -->
<g id="edge9" class="edge">
<title>7&#45;&gt;4</title>
<path fill="none" stroke="grey" stroke-width="2" d="M159.03,-143.88C148.85,-134.33 137.78,-123.95 128.16,-114.93"/>
<polygon fill="grey" stroke="grey" stroke-width="2" points="130.5,-112.32 120.81,-108.03 125.71,-117.42 130.5,-112.32"/>
</g>
<!-- 8&#45;&gt;4 -->
<g id="edge10" class="edge">
<title>8&#45;&gt;4</title>
<path fill="none" stroke="grey" stroke-width="2" d="M101.9,-154.71C102.03,-143.86 102.19,-130.23 102.33,-118.37"/>
<polygon fill="grey" stroke="grey" stroke-width="2" points="105.84,-118.14 102.46,-108.1 98.84,-118.06 105.84,-118.14"/>
</g>
<!-- 9 -->
<g id="node10" class="node">
<title>9</title>
<path fill="none" stroke="#d88d56" stroke-width="2" stroke-dasharray="5,2" d="M264.66,-428C264.66,-428 182.66,-428 182.66,-428 176.66,-428 170.66,-422 170.66,-416 170.66,-416 170.66,-404 170.66,-404 170.66,-398 176.66,-392 182.66,-392 182.66,-392 264.66,-392 264.66,-392 270.66,-392 276.66,-398 276.66,-404 276.66,-404 276.66,-416 276.66,-416 276.66,-422 270.66,-428 264.66,-428"/>
<text text-anchor="middle" x="223.66" y="-413" font-family="sans" font-size="10.00">cp_files</text>
<text text-anchor="middle" x="223.66" y="-402" font-family="sans" font-size="10.00">files: siteshz3P.vcf</text>
</g>
<!-- 9&#45;&gt;6 -->
<g id="edge11" class="edge">
<title>9&#45;&gt;6</title>
<path fill="none" stroke="grey" stroke-width="2" d="M223.66,-391.7C223.66,-383.98 223.66,-374.71 223.66,-366.11"/>
<polygon fill="grey" stroke="grey" stroke-width="2" points="227.16,-366.1 223.66,-356.1 220.16,-366.1 227.16,-366.1"/>
</g>
</g>
</svg>
