<?xml version="1.0" encoding="UTF-8" standalone="no"?>
<!DOCTYPE svg PUBLIC "-//W3C//DTD SVG 1.1//EN"
 "http://www.w3.org/Graphics/SVG/1.1/DTD/svg11.dtd">
<!-- Generated by graphviz version 2.43.0 (0)
 -->
<!-- Title: snakemake_dag Pages: 1 -->
<svg width="417pt" height="364pt"
 viewBox="0.00 0.00 416.92 364.00" xmlns="http://www.w3.org/2000/svg" xmlns:xlink="http://www.w3.org/1999/xlink">
<g id="graph0" class="graph" transform="scale(1 1) rotate(0) translate(4 360)">
<title>snakemake_dag</title>
<polygon fill="white" stroke="transparent" points="-4,4 -4,-360 412.92,-360 412.92,4 -4,4"/>
<!-- 0 -->
<g id="node1" class="node">
<title>0</title>
<path fill="none" stroke="#70d856" stroke-width="2" d="M336.54,-36C336.54,-36 306.54,-36 306.54,-36 300.54,-36 294.54,-30 294.54,-24 294.54,-24 294.54,-12 294.54,-12 294.54,-6 300.54,0 306.54,0 306.54,0 336.54,0 336.54,0 342.54,0 348.54,-6 348.54,-12 348.54,-12 348.54,-24 348.54,-24 348.54,-30 342.54,-36 336.54,-36"/>
<text text-anchor="middle" x="321.54" y="-15.5" font-family="sans" font-size="10.00">all</text>
</g>
<!-- 1 -->
<g id="node2" class="node">
<title>1</title>
<path fill="none" stroke="#d8cb56" stroke-width="2" d="M182.54,-356C182.54,-356 114.54,-356 114.54,-356 108.54,-356 102.54,-350 102.54,-344 102.54,-344 102.54,-332 102.54,-332 102.54,-326 108.54,-320 114.54,-320 114.54,-320 182.54,-320 182.54,-320 188.54,-320 194.54,-326 194.54,-332 194.54,-332 194.54,-344 194.54,-344 194.54,-350 188.54,-356 182.54,-356"/>
<text text-anchor="middle" x="148.54" y="-335.5" font-family="sans" font-size="10.00">samtools_faidx</text>
</g>
<!-- 1&#45;&gt;0 -->
<g id="edge1" class="edge">
<title>1&#45;&gt;0</title>
<path fill="none" stroke="grey" stroke-width="2" d="M194.92,-334.12C237.72,-329.39 301.16,-316.91 345.54,-284 377.93,-259.98 382.45,-245.77 393.54,-207 410.05,-149.3 418.19,-125.27 390.54,-72 383.19,-57.84 370.16,-46.34 357.39,-37.72"/>
<polygon fill="grey" stroke="grey" stroke-width="2" points="358.98,-34.59 348.66,-32.21 355.25,-40.51 358.98,-34.59"/>
</g>
<!-- 2 -->
<g id="node3" class="node">
<title>2</title>
<path fill="none" stroke="#d85656" stroke-width="2" d="M67.54,-281.5C67.54,-281.5 37.54,-281.5 37.54,-281.5 31.54,-281.5 25.54,-275.5 25.54,-269.5 25.54,-269.5 25.54,-257.5 25.54,-257.5 25.54,-251.5 31.54,-245.5 37.54,-245.5 37.54,-245.5 67.54,-245.5 67.54,-245.5 73.54,-245.5 79.54,-251.5 79.54,-257.5 79.54,-257.5 79.54,-269.5 79.54,-269.5 79.54,-275.5 73.54,-281.5 67.54,-281.5"/>
<text text-anchor="middle" x="52.54" y="-261" font-family="sans" font-size="10.00">simug</text>
</g>
<!-- 1&#45;&gt;2 -->
<g id="edge6" class="edge">
<title>1&#45;&gt;2</title>
<path fill="none" stroke="grey" stroke-width="2" d="M125.79,-319.82C113.12,-310.25 97.16,-298.2 83.38,-287.79"/>
<polygon fill="grey" stroke="grey" stroke-width="2" points="85.22,-284.79 75.13,-281.56 81,-290.38 85.22,-284.79"/>
</g>
<!-- 3 -->
<g id="node4" class="node">
<title>3</title>
<path fill="none" stroke="#56c9d8" stroke-width="2" d="M324.04,-284C324.04,-284 233.04,-284 233.04,-284 227.04,-284 221.04,-278 221.04,-272 221.04,-272 221.04,-255 221.04,-255 221.04,-249 227.04,-243 233.04,-243 233.04,-243 324.04,-243 324.04,-243 330.04,-243 336.04,-249 336.04,-255 336.04,-255 336.04,-272 336.04,-272 336.04,-278 330.04,-284 324.04,-284"/>
<text text-anchor="middle" x="278.54" y="-272" font-family="sans" font-size="10.00">generate_mutations</text>
<text text-anchor="middle" x="278.54" y="-261" font-family="sans" font-size="10.00">N: 100</text>
<text text-anchor="middle" x="278.54" y="-250" font-family="sans" font-size="10.00">R: 2</text>
</g>
<!-- 1&#45;&gt;3 -->
<g id="edge8" class="edge">
<title>1&#45;&gt;3</title>
<path fill="none" stroke="grey" stroke-width="2" d="M179.35,-319.82C195.72,-310.69 216.13,-299.31 234.18,-289.24"/>
<polygon fill="grey" stroke="grey" stroke-width="2" points="236.33,-292.05 243.36,-284.12 232.92,-285.93 236.33,-292.05"/>
</g>
<!-- 7 -->
<g id="node8" class="node">
<title>7</title>
<path fill="none" stroke="#56d873" stroke-width="2" d="M74.04,-207C74.04,-207 31.04,-207 31.04,-207 25.04,-207 19.04,-201 19.04,-195 19.04,-195 19.04,-156 19.04,-156 19.04,-150 25.04,-144 31.04,-144 31.04,-144 74.04,-144 74.04,-144 80.04,-144 86.04,-150 86.04,-156 86.04,-156 86.04,-195 86.04,-195 86.04,-201 80.04,-207 74.04,-207"/>
<text text-anchor="middle" x="52.54" y="-195" font-family="sans" font-size="10.00">iss_base</text>
<text text-anchor="middle" x="52.54" y="-184" font-family="sans" font-size="10.00">AF: 0.6</text>
<text text-anchor="middle" x="52.54" y="-173" font-family="sans" font-size="10.00">N: 100</text>
<text text-anchor="middle" x="52.54" y="-162" font-family="sans" font-size="10.00">NR: 50000</text>
<text text-anchor="middle" x="52.54" y="-151" font-family="sans" font-size="10.00">R: 2</text>
</g>
<!-- 1&#45;&gt;7 -->
<g id="edge13" class="edge">
<title>1&#45;&gt;7</title>
<path fill="none" stroke="grey" stroke-width="2" d="M138.27,-319.82C123.53,-295.18 95.96,-249.09 76.06,-215.82"/>
<polygon fill="grey" stroke="grey" stroke-width="2" points="79.06,-214.02 70.92,-207.23 73.05,-217.61 79.06,-214.02"/>
</g>
<!-- 9 -->
<g id="node10" class="node">
<title>9</title>
<path fill="none" stroke="#56d873" stroke-width="2" d="M159.04,-207C159.04,-207 116.04,-207 116.04,-207 110.04,-207 104.04,-201 104.04,-195 104.04,-195 104.04,-156 104.04,-156 104.04,-150 110.04,-144 116.04,-144 116.04,-144 159.04,-144 159.04,-144 165.04,-144 171.04,-150 171.04,-156 171.04,-156 171.04,-195 171.04,-195 171.04,-201 165.04,-207 159.04,-207"/>
<text text-anchor="middle" x="137.54" y="-195" font-family="sans" font-size="10.00">iss_base</text>
<text text-anchor="middle" x="137.54" y="-184" font-family="sans" font-size="10.00">AF: 0.8</text>
<text text-anchor="middle" x="137.54" y="-173" font-family="sans" font-size="10.00">N: 100</text>
<text text-anchor="middle" x="137.54" y="-162" font-family="sans" font-size="10.00">NR: 50000</text>
<text text-anchor="middle" x="137.54" y="-151" font-family="sans" font-size="10.00">R: 2</text>
</g>
<!-- 1&#45;&gt;9 -->
<g id="edge16" class="edge">
<title>1&#45;&gt;9</title>
<path fill="none" stroke="grey" stroke-width="2" d="M147.36,-319.82C145.7,-295.6 142.62,-250.65 140.35,-217.53"/>
<polygon fill="grey" stroke="grey" stroke-width="2" points="143.82,-216.97 139.65,-207.23 136.84,-217.45 143.82,-216.97"/>
</g>
<!-- 2&#45;&gt;0 -->
<g id="edge2" class="edge">
<title>2&#45;&gt;0</title>
<path fill="none" stroke="grey" stroke-width="2" d="M34.38,-245.34C25.01,-235.2 14.51,-221.53 9.54,-207 0.48,-180.51 -5.8,-167.43 9.54,-144 70.83,-50.39 215.34,-26.88 284.02,-20.98"/>
<polygon fill="grey" stroke="grey" stroke-width="2" points="284.67,-24.44 294.37,-20.18 284.13,-17.46 284.67,-24.44"/>
</g>
<!-- 2&#45;&gt;7 -->
<g id="edge14" class="edge">
<title>2&#45;&gt;7</title>
<path fill="none" stroke="grey" stroke-width="2" d="M52.54,-245.1C52.54,-237.01 52.54,-227.02 52.54,-217.2"/>
<polygon fill="grey" stroke="grey" stroke-width="2" points="56.04,-217.1 52.54,-207.1 49.04,-217.1 56.04,-217.1"/>
</g>
<!-- 2&#45;&gt;9 -->
<g id="edge17" class="edge">
<title>2&#45;&gt;9</title>
<path fill="none" stroke="grey" stroke-width="2" d="M69.74,-245.1C78.49,-236.24 89.49,-225.11 100.07,-214.41"/>
<polygon fill="grey" stroke="grey" stroke-width="2" points="102.75,-216.68 107.29,-207.1 97.77,-211.76 102.75,-216.68"/>
</g>
<!-- 3&#45;&gt;0 -->
<g id="edge3" class="edge">
<title>3&#45;&gt;0</title>
<path fill="none" stroke="grey" stroke-width="2" d="M331.11,-242.83C346.6,-234.3 361.74,-222.59 370.54,-207 400.04,-154.75 392.41,-127.87 370.54,-72 366.35,-61.28 358.85,-51.43 350.96,-43.2"/>
<polygon fill="grey" stroke="grey" stroke-width="2" points="353.3,-40.59 343.69,-36.13 348.42,-45.61 353.3,-40.59"/>
</g>
<!-- 8 -->
<g id="node9" class="node">
<title>8</title>
<path fill="none" stroke="#afd856" stroke-width="2" d="M254.04,-196C254.04,-196 201.04,-196 201.04,-196 195.04,-196 189.04,-190 189.04,-184 189.04,-184 189.04,-167 189.04,-167 189.04,-161 195.04,-155 201.04,-155 201.04,-155 254.04,-155 254.04,-155 260.04,-155 266.04,-161 266.04,-167 266.04,-167 266.04,-184 266.04,-184 266.04,-190 260.04,-196 254.04,-196"/>
<text text-anchor="middle" x="227.54" y="-184" font-family="sans" font-size="10.00">iss_mutated</text>
<text text-anchor="middle" x="227.54" y="-173" font-family="sans" font-size="10.00">AF: 0.6</text>
<text text-anchor="middle" x="227.54" y="-162" font-family="sans" font-size="10.00">NR: 50000</text>
</g>
<!-- 3&#45;&gt;8 -->
<g id="edge15" class="edge">
<title>3&#45;&gt;8</title>
<path fill="none" stroke="grey" stroke-width="2" d="M266.97,-242.99C260.3,-231.74 251.8,-217.4 244.4,-204.92"/>
<polygon fill="grey" stroke="grey" stroke-width="2" points="247.36,-203.05 239.25,-196.24 241.34,-206.62 247.36,-203.05"/>
</g>
<!-- 10 -->
<g id="node11" class="node">
<title>10</title>
<path fill="none" stroke="#afd856" stroke-width="2" d="M349.04,-196C349.04,-196 296.04,-196 296.04,-196 290.04,-196 284.04,-190 284.04,-184 284.04,-184 284.04,-167 284.04,-167 284.04,-161 290.04,-155 296.04,-155 296.04,-155 349.04,-155 349.04,-155 355.04,-155 361.04,-161 361.04,-167 361.04,-167 361.04,-184 361.04,-184 361.04,-190 355.04,-196 349.04,-196"/>
<text text-anchor="middle" x="322.54" y="-184" font-family="sans" font-size="10.00">iss_mutated</text>
<text text-anchor="middle" x="322.54" y="-173" font-family="sans" font-size="10.00">AF: 0.8</text>
<text text-anchor="middle" x="322.54" y="-162" font-family="sans" font-size="10.00">NR: 50000</text>
</g>
<!-- 3&#45;&gt;10 -->
<g id="edge18" class="edge">
<title>3&#45;&gt;10</title>
<path fill="none" stroke="grey" stroke-width="2" d="M288.53,-242.99C294.22,-231.85 301.47,-217.68 307.81,-205.29"/>
<polygon fill="grey" stroke="grey" stroke-width="2" points="311.01,-206.73 312.44,-196.24 304.77,-203.54 311.01,-206.73"/>
</g>
<!-- 4 -->
<g id="node5" class="node">
<title>4</title>
<path fill="none" stroke="#56d8a9" stroke-width="2" d="M251.54,-108C251.54,-108 195.54,-108 195.54,-108 189.54,-108 183.54,-102 183.54,-96 183.54,-96 183.54,-84 183.54,-84 183.54,-78 189.54,-72 195.54,-72 195.54,-72 251.54,-72 251.54,-72 257.54,-72 263.54,-78 263.54,-84 263.54,-84 263.54,-96 263.54,-96 263.54,-102 257.54,-108 251.54,-108"/>
<text text-anchor="middle" x="223.54" y="-87.5" font-family="sans" font-size="10.00">merge_reads</text>
</g>
<!-- 4&#45;&gt;0 -->
<g id="edge4" class="edge">
<title>4&#45;&gt;0</title>
<path fill="none" stroke="grey" stroke-width="2" d="M247.52,-71.88C260.09,-62.89 275.67,-51.76 289.29,-42.03"/>
<polygon fill="grey" stroke="grey" stroke-width="2" points="291.37,-44.85 297.48,-36.19 287.3,-39.15 291.37,-44.85"/>
</g>
<!-- 5 -->
<g id="node6" class="node">
<title>5</title>
<path fill="none" stroke="#56d8a9" stroke-width="2" d="M349.54,-108C349.54,-108 293.54,-108 293.54,-108 287.54,-108 281.54,-102 281.54,-96 281.54,-96 281.54,-84 281.54,-84 281.54,-78 287.54,-72 293.54,-72 293.54,-72 349.54,-72 349.54,-72 355.54,-72 361.54,-78 361.54,-84 361.54,-84 361.54,-96 361.54,-96 361.54,-102 355.54,-108 349.54,-108"/>
<text text-anchor="middle" x="321.54" y="-87.5" font-family="sans" font-size="10.00">merge_reads</text>
</g>
<!-- 5&#45;&gt;0 -->
<g id="edge5" class="edge">
<title>5&#45;&gt;0</title>
<path fill="none" stroke="grey" stroke-width="2" d="M321.54,-71.7C321.54,-63.98 321.54,-54.71 321.54,-46.11"/>
<polygon fill="grey" stroke="grey" stroke-width="2" points="325.04,-46.1 321.54,-36.1 318.04,-46.1 325.04,-46.1"/>
</g>
<!-- 6 -->
<g id="node7" class="node">
<title>6</title>
<path fill="none" stroke="#d88d56" stroke-width="2" d="M72.54,-356C72.54,-356 28.54,-356 28.54,-356 22.54,-356 16.54,-350 16.54,-344 16.54,-344 16.54,-332 16.54,-332 16.54,-326 22.54,-320 28.54,-320 28.54,-320 72.54,-320 72.54,-320 78.54,-320 84.54,-326 84.54,-332 84.54,-332 84.54,-344 84.54,-344 84.54,-350 78.54,-356 72.54,-356"/>
<text text-anchor="middle" x="50.54" y="-335.5" font-family="sans" font-size="10.00">vcf2model</text>
</g>
<!-- 6&#45;&gt;2 -->
<g id="edge7" class="edge">
<title>6&#45;&gt;2</title>
<path fill="none" stroke="grey" stroke-width="2" d="M51.02,-319.82C51.25,-311.42 51.53,-301.12 51.79,-291.69"/>
<polygon fill="grey" stroke="grey" stroke-width="2" points="55.29,-291.65 52.07,-281.56 48.3,-291.46 55.29,-291.65"/>
</g>
<!-- 7&#45;&gt;4 -->
<g id="edge9" class="edge">
<title>7&#45;&gt;4</title>
<path fill="none" stroke="grey" stroke-width="2" d="M86.48,-148.84C89.16,-147.13 91.87,-145.49 94.54,-144 119.74,-129.94 149.44,-117.48 173.98,-108.19"/>
<polygon fill="grey" stroke="grey" stroke-width="2" points="175.31,-111.43 183.46,-104.65 172.87,-104.87 175.31,-111.43"/>
</g>
<!-- 8&#45;&gt;4 -->
<g id="edge10" class="edge">
<title>8&#45;&gt;4</title>
<path fill="none" stroke="grey" stroke-width="2" d="M226.59,-154.71C226.07,-143.86 225.42,-130.23 224.85,-118.37"/>
<polygon fill="grey" stroke="grey" stroke-width="2" points="228.34,-117.92 224.36,-108.1 221.34,-118.26 228.34,-117.92"/>
</g>
<!-- 9&#45;&gt;5 -->
<g id="edge11" class="edge">
<title>9&#45;&gt;5</title>
<path fill="none" stroke="grey" stroke-width="2" d="M171.3,-149.37C174.36,-147.45 177.47,-145.63 180.54,-144 189.05,-139.48 234.47,-122.61 271.49,-109.1"/>
<polygon fill="grey" stroke="grey" stroke-width="2" points="272.99,-112.28 281.18,-105.57 270.59,-105.7 272.99,-112.28"/>
</g>
<!-- 10&#45;&gt;5 -->
<g id="edge12" class="edge">
<title>10&#45;&gt;5</title>
<path fill="none" stroke="grey" stroke-width="2" d="M322.3,-154.71C322.17,-143.86 322.01,-130.23 321.87,-118.37"/>
<polygon fill="grey" stroke="grey" stroke-width="2" points="325.37,-118.06 321.75,-108.1 318.37,-118.14 325.37,-118.06"/>
</g>
</g>
</svg>
