<?xml version="1.0" encoding="UTF-8" standalone="no"?>
<!DOCTYPE svg PUBLIC "-//W3C//DTD SVG 1.1//EN"
 "http://www.w3.org/Graphics/SVG/1.1/DTD/svg11.dtd">
<!-- Generated by graphviz version 2.43.0 (0)
 -->
<!-- Title: snakemake_dag Pages: 1 -->
<svg width="701pt" height="332pt"
 viewBox="0.00 0.00 701.29 332.00" xmlns="http://www.w3.org/2000/svg" xmlns:xlink="http://www.w3.org/1999/xlink">
<g id="graph0" class="graph" transform="scale(1 1) rotate(0) translate(4 328)">
<title>snakemake_dag</title>
<polygon fill="white" stroke="transparent" points="-4,4 -4,-328 697.29,-328 697.29,4 -4,4"/>
<!-- 0 -->
<g id="node1" class="node">
<title>0</title>
<path fill="none" stroke="#d6d856" stroke-width="2" d="M378,-36C378,-36 348,-36 348,-36 342,-36 336,-30 336,-24 336,-24 336,-12 336,-12 336,-6 342,0 348,0 348,0 378,0 378,0 384,0 390,-6 390,-12 390,-12 390,-24 390,-24 390,-30 384,-36 378,-36"/>
<text text-anchor="middle" x="363" y="-15.5" font-family="sans" font-size="10.00">all</text>
</g>
<!-- 1 -->
<g id="node2" class="node">
<title>1</title>
<path fill="none" stroke="#97d856" stroke-width="2" d="M232,-324C232,-324 202,-324 202,-324 196,-324 190,-318 190,-312 190,-312 190,-300 190,-300 190,-294 196,-288 202,-288 202,-288 232,-288 232,-288 238,-288 244,-294 244,-300 244,-300 244,-312 244,-312 244,-318 238,-324 232,-324"/>
<text text-anchor="middle" x="217" y="-303.5" font-family="sans" font-size="10.00">cp_ref</text>
</g>
<!-- 1&#45;&gt;0 -->
<g id="edge1" class="edge">
<title>1&#45;&gt;0</title>
<path fill="none" stroke="grey" stroke-width="2" d="M244.16,-305.16C334.06,-303.99 620.09,-286.07 687,-108 692.63,-93.02 697.36,-84.19 687,-72 650.56,-29.12 477.57,-20.86 400.36,-19.32"/>
<polygon fill="grey" stroke="grey" stroke-width="2" points="400.18,-15.82 390.12,-19.14 400.06,-22.82 400.18,-15.82"/>
</g>
<!-- 2 -->
<g id="node3" class="node">
<title>2</title>
<path fill="none" stroke="#d89556" stroke-width="2" d="M49,-252C49,-252 19,-252 19,-252 13,-252 7,-246 7,-240 7,-240 7,-228 7,-228 7,-222 13,-216 19,-216 19,-216 49,-216 49,-216 55,-216 61,-222 61,-228 61,-228 61,-240 61,-240 61,-246 55,-252 49,-252"/>
<text text-anchor="middle" x="34" y="-231.5" font-family="sans" font-size="10.00">simug</text>
</g>
<!-- 1&#45;&gt;2 -->
<g id="edge12" class="edge">
<title>1&#45;&gt;2</title>
<path fill="none" stroke="grey" stroke-width="2" d="M190,-294.67C158.37,-282.57 105.83,-262.48 70.57,-248.99"/>
<polygon fill="grey" stroke="grey" stroke-width="2" points="71.7,-245.67 61.11,-245.37 69.2,-252.21 71.7,-245.67"/>
</g>
<!-- 3 -->
<g id="node4" class="node">
<title>3</title>
<path fill="none" stroke="#569ad8" stroke-width="2" d="M112.5,-180C112.5,-180 55.5,-180 55.5,-180 49.5,-180 43.5,-174 43.5,-168 43.5,-168 43.5,-156 43.5,-156 43.5,-150 49.5,-144 55.5,-144 55.5,-144 112.5,-144 112.5,-144 118.5,-144 124.5,-150 124.5,-156 124.5,-156 124.5,-168 124.5,-168 124.5,-174 118.5,-180 112.5,-180"/>
<text text-anchor="middle" x="84" y="-165" font-family="sans" font-size="10.00">iss_cambium</text>
<text text-anchor="middle" x="84" y="-154" font-family="sans" font-size="10.00">cambium: 1</text>
</g>
<!-- 1&#45;&gt;3 -->
<g id="edge14" class="edge">
<title>1&#45;&gt;3</title>
<path fill="none" stroke="grey" stroke-width="2" d="M200.96,-287.87C177.59,-262.92 134.06,-216.45 107.2,-187.77"/>
<polygon fill="grey" stroke="grey" stroke-width="2" points="109.49,-185.1 100.1,-180.19 104.38,-189.88 109.49,-185.1"/>
</g>
<!-- 4 -->
<g id="node5" class="node">
<title>4</title>
<path fill="none" stroke="#569ad8" stroke-width="2" d="M211.5,-180C211.5,-180 154.5,-180 154.5,-180 148.5,-180 142.5,-174 142.5,-168 142.5,-168 142.5,-156 142.5,-156 142.5,-150 148.5,-144 154.5,-144 154.5,-144 211.5,-144 211.5,-144 217.5,-144 223.5,-150 223.5,-156 223.5,-156 223.5,-168 223.5,-168 223.5,-174 217.5,-180 211.5,-180"/>
<text text-anchor="middle" x="183" y="-165" font-family="sans" font-size="10.00">iss_cambium</text>
<text text-anchor="middle" x="183" y="-154" font-family="sans" font-size="10.00">cambium: 2</text>
</g>
<!-- 1&#45;&gt;4 -->
<g id="edge15" class="edge">
<title>1&#45;&gt;4</title>
<path fill="none" stroke="grey" stroke-width="2" d="M211.85,-287.89C208.81,-277.54 204.99,-264.07 202,-252 196.9,-231.43 191.93,-207.97 188.35,-190.31"/>
<polygon fill="grey" stroke="grey" stroke-width="2" points="191.71,-189.26 186.31,-180.14 184.84,-190.63 191.71,-189.26"/>
</g>
<!-- 5 -->
<g id="node6" class="node">
<title>5</title>
<path fill="none" stroke="#569ad8" stroke-width="2" d="M280.5,-252C280.5,-252 223.5,-252 223.5,-252 217.5,-252 211.5,-246 211.5,-240 211.5,-240 211.5,-228 211.5,-228 211.5,-222 217.5,-216 223.5,-216 223.5,-216 280.5,-216 280.5,-216 286.5,-216 292.5,-222 292.5,-228 292.5,-228 292.5,-240 292.5,-240 292.5,-246 286.5,-252 280.5,-252"/>
<text text-anchor="middle" x="252" y="-237" font-family="sans" font-size="10.00">iss_cambium</text>
<text text-anchor="middle" x="252" y="-226" font-family="sans" font-size="10.00">cambium: 3</text>
</g>
<!-- 1&#45;&gt;5 -->
<g id="edge16" class="edge">
<title>1&#45;&gt;5</title>
<path fill="none" stroke="grey" stroke-width="2" d="M225.65,-287.7C229.64,-279.73 234.45,-270.1 238.87,-261.26"/>
<polygon fill="grey" stroke="grey" stroke-width="2" points="242.11,-262.61 243.45,-252.1 235.85,-259.48 242.11,-262.61"/>
</g>
<!-- 15 -->
<g id="node16" class="node">
<title>15</title>
<path fill="none" stroke="#d85656" stroke-width="2" d="M451.5,-252C451.5,-252 322.5,-252 322.5,-252 316.5,-252 310.5,-246 310.5,-240 310.5,-240 310.5,-228 310.5,-228 310.5,-222 316.5,-216 322.5,-216 322.5,-216 451.5,-216 451.5,-216 457.5,-216 463.5,-222 463.5,-228 463.5,-228 463.5,-240 463.5,-240 463.5,-246 457.5,-252 451.5,-252"/>
<text text-anchor="middle" x="387" y="-237" font-family="sans" font-size="10.00">generate_mutations_branch</text>
<text text-anchor="middle" x="387" y="-226" font-family="sans" font-size="10.00">branch: 1</text>
</g>
<!-- 1&#45;&gt;15 -->
<g id="edge25" class="edge">
<title>1&#45;&gt;15</title>
<path fill="none" stroke="grey" stroke-width="2" d="M244.31,-293.75C268.96,-283.61 305.85,-268.41 335.95,-256.02"/>
<polygon fill="grey" stroke="grey" stroke-width="2" points="337.55,-259.15 345.46,-252.1 334.88,-252.67 337.55,-259.15"/>
</g>
<!-- 2&#45;&gt;0 -->
<g id="edge2" class="edge">
<title>2&#45;&gt;0</title>
<path fill="none" stroke="grey" stroke-width="2" d="M29.48,-215.8C25.52,-196.99 22.07,-166.53 34,-144 60.66,-93.67 87.88,-94.96 140,-72 202.16,-44.61 280.58,-30.18 325.93,-23.61"/>
<polygon fill="grey" stroke="grey" stroke-width="2" points="326.49,-27.07 335.9,-22.21 325.52,-20.13 326.49,-27.07"/>
</g>
<!-- 3&#45;&gt;0 -->
<g id="edge3" class="edge">
<title>3&#45;&gt;0</title>
<path fill="none" stroke="grey" stroke-width="2" d="M100.99,-143.97C121.6,-124.16 158.18,-91.67 195,-72 237.35,-49.37 290.94,-34.56 326.06,-26.5"/>
<polygon fill="grey" stroke="grey" stroke-width="2" points="326.89,-29.9 335.89,-24.3 325.37,-23.06 326.89,-29.9"/>
</g>
<!-- 4&#45;&gt;0 -->
<g id="edge4" class="edge">
<title>4&#45;&gt;0</title>
<path fill="none" stroke="grey" stroke-width="2" d="M186.28,-143.95C190.94,-124.12 201.31,-91.61 222,-72 250.65,-44.84 294.53,-31.29 325.72,-24.73"/>
<polygon fill="grey" stroke="grey" stroke-width="2" points="326.63,-28.12 335.77,-22.77 325.29,-21.25 326.63,-28.12"/>
</g>
<!-- 5&#45;&gt;0 -->
<g id="edge5" class="edge">
<title>5&#45;&gt;0</title>
<path fill="none" stroke="grey" stroke-width="2" d="M246.94,-215.85C238.78,-184.5 226.34,-117.05 255,-72 270.67,-47.37 301.41,-33.84 326.1,-26.63"/>
<polygon fill="grey" stroke="grey" stroke-width="2" points="327.16,-29.97 335.91,-23.99 325.35,-23.21 327.16,-29.97"/>
</g>
<!-- 6 -->
<g id="node7" class="node">
<title>6</title>
<path fill="none" stroke="#56d89a" stroke-width="2" d="M450,-108C450,-108 420,-108 420,-108 414,-108 408,-102 408,-96 408,-96 408,-84 408,-84 408,-78 414,-72 420,-72 420,-72 450,-72 450,-72 456,-72 462,-78 462,-84 462,-84 462,-96 462,-96 462,-102 456,-108 450,-108"/>
<text text-anchor="middle" x="435" y="-93" font-family="sans" font-size="10.00">iss_leaf</text>
<text text-anchor="middle" x="435" y="-82" font-family="sans" font-size="10.00">leaf: 1</text>
</g>
<!-- 6&#45;&gt;0 -->
<g id="edge6" class="edge">
<title>6&#45;&gt;0</title>
<path fill="none" stroke="grey" stroke-width="2" d="M417.2,-71.7C408.4,-63.14 397.62,-52.66 388,-43.3"/>
<polygon fill="grey" stroke="grey" stroke-width="2" points="390.2,-40.57 380.59,-36.1 385.32,-45.58 390.2,-40.57"/>
</g>
<!-- 7 -->
<g id="node8" class="node">
<title>7</title>
<path fill="none" stroke="#56d89a" stroke-width="2" d="M306,-108C306,-108 276,-108 276,-108 270,-108 264,-102 264,-96 264,-96 264,-84 264,-84 264,-78 270,-72 276,-72 276,-72 306,-72 306,-72 312,-72 318,-78 318,-84 318,-84 318,-96 318,-96 318,-102 312,-108 306,-108"/>
<text text-anchor="middle" x="291" y="-93" font-family="sans" font-size="10.00">iss_leaf</text>
<text text-anchor="middle" x="291" y="-82" font-family="sans" font-size="10.00">leaf: 2</text>
</g>
<!-- 7&#45;&gt;0 -->
<g id="edge7" class="edge">
<title>7&#45;&gt;0</title>
<path fill="none" stroke="grey" stroke-width="2" d="M308.8,-71.7C317.6,-63.14 328.38,-52.66 338,-43.3"/>
<polygon fill="grey" stroke="grey" stroke-width="2" points="340.68,-45.58 345.41,-36.1 335.8,-40.57 340.68,-45.58"/>
</g>
<!-- 8 -->
<g id="node9" class="node">
<title>8</title>
<path fill="none" stroke="#56d89a" stroke-width="2" d="M378,-108C378,-108 348,-108 348,-108 342,-108 336,-102 336,-96 336,-96 336,-84 336,-84 336,-78 342,-72 348,-72 348,-72 378,-72 378,-72 384,-72 390,-78 390,-84 390,-84 390,-96 390,-96 390,-102 384,-108 378,-108"/>
<text text-anchor="middle" x="363" y="-93" font-family="sans" font-size="10.00">iss_leaf</text>
<text text-anchor="middle" x="363" y="-82" font-family="sans" font-size="10.00">leaf: 3</text>
</g>
<!-- 8&#45;&gt;0 -->
<g id="edge8" class="edge">
<title>8&#45;&gt;0</title>
<path fill="none" stroke="grey" stroke-width="2" d="M363,-71.7C363,-63.98 363,-54.71 363,-46.11"/>
<polygon fill="grey" stroke="grey" stroke-width="2" points="366.5,-46.1 363,-36.1 359.5,-46.1 366.5,-46.1"/>
</g>
<!-- 9 -->
<g id="node10" class="node">
<title>9</title>
<path fill="none" stroke="#56d89a" stroke-width="2" d="M666,-108C666,-108 636,-108 636,-108 630,-108 624,-102 624,-96 624,-96 624,-84 624,-84 624,-78 630,-72 636,-72 636,-72 666,-72 666,-72 672,-72 678,-78 678,-84 678,-84 678,-96 678,-96 678,-102 672,-108 666,-108"/>
<text text-anchor="middle" x="651" y="-93" font-family="sans" font-size="10.00">iss_leaf</text>
<text text-anchor="middle" x="651" y="-82" font-family="sans" font-size="10.00">leaf: 1</text>
</g>
<!-- 9&#45;&gt;0 -->
<g id="edge9" class="edge">
<title>9&#45;&gt;0</title>
<path fill="none" stroke="grey" stroke-width="2" d="M623.76,-75.33C620.84,-74.11 617.88,-72.97 615,-72 540.62,-47 449.78,-31.37 400.01,-24.01"/>
<polygon fill="grey" stroke="grey" stroke-width="2" points="400.43,-20.53 390.03,-22.56 399.43,-27.46 400.43,-20.53"/>
</g>
<!-- 10 -->
<g id="node11" class="node">
<title>10</title>
<path fill="none" stroke="#56d89a" stroke-width="2" d="M522,-108C522,-108 492,-108 492,-108 486,-108 480,-102 480,-96 480,-96 480,-84 480,-84 480,-78 486,-72 492,-72 492,-72 522,-72 522,-72 528,-72 534,-78 534,-84 534,-84 534,-96 534,-96 534,-102 528,-108 522,-108"/>
<text text-anchor="middle" x="507" y="-93" font-family="sans" font-size="10.00">iss_leaf</text>
<text text-anchor="middle" x="507" y="-82" font-family="sans" font-size="10.00">leaf: 2</text>
</g>
<!-- 10&#45;&gt;0 -->
<g id="edge10" class="edge">
<title>10&#45;&gt;0</title>
<path fill="none" stroke="grey" stroke-width="2" d="M479.91,-75.83C457.23,-64.81 424.64,-48.97 399.63,-36.81"/>
<polygon fill="grey" stroke="grey" stroke-width="2" points="400.98,-33.57 390.45,-32.35 397.92,-39.87 400.98,-33.57"/>
</g>
<!-- 11 -->
<g id="node12" class="node">
<title>11</title>
<path fill="none" stroke="#56d89a" stroke-width="2" d="M594,-108C594,-108 564,-108 564,-108 558,-108 552,-102 552,-96 552,-96 552,-84 552,-84 552,-78 558,-72 564,-72 564,-72 594,-72 594,-72 600,-72 606,-78 606,-84 606,-84 606,-96 606,-96 606,-102 600,-108 594,-108"/>
<text text-anchor="middle" x="579" y="-93" font-family="sans" font-size="10.00">iss_leaf</text>
<text text-anchor="middle" x="579" y="-82" font-family="sans" font-size="10.00">leaf: 3</text>
</g>
<!-- 11&#45;&gt;0 -->
<g id="edge11" class="edge">
<title>11&#45;&gt;0</title>
<path fill="none" stroke="grey" stroke-width="2" d="M551.67,-75.56C548.77,-74.29 545.84,-73.08 543,-72 494.58,-53.57 436.85,-37.58 400.06,-28.12"/>
<polygon fill="grey" stroke="grey" stroke-width="2" points="400.82,-24.7 390.27,-25.62 399.1,-31.48 400.82,-24.7"/>
</g>
<!-- 12 -->
<g id="node13" class="node">
<title>12</title>
<path fill="none" stroke="#59d856" stroke-width="2" d="M56,-324C56,-324 12,-324 12,-324 6,-324 0,-318 0,-312 0,-312 0,-300 0,-300 0,-294 6,-288 12,-288 12,-288 56,-288 56,-288 62,-288 68,-294 68,-300 68,-300 68,-312 68,-312 68,-318 62,-324 56,-324"/>
<text text-anchor="middle" x="34" y="-303.5" font-family="sans" font-size="10.00">vcf2model</text>
</g>
<!-- 12&#45;&gt;2 -->
<g id="edge13" class="edge">
<title>12&#45;&gt;2</title>
<path fill="none" stroke="grey" stroke-width="2" d="M34,-287.7C34,-279.98 34,-270.71 34,-262.11"/>
<polygon fill="grey" stroke="grey" stroke-width="2" points="37.5,-262.1 34,-252.1 30.5,-262.1 37.5,-262.1"/>
</g>
<!-- 13 -->
<g id="node14" class="node">
<title>13</title>
<path fill="none" stroke="#56d8d8" stroke-width="2" d="M422.5,-180C422.5,-180 313.5,-180 313.5,-180 307.5,-180 301.5,-174 301.5,-168 301.5,-168 301.5,-156 301.5,-156 301.5,-150 307.5,-144 313.5,-144 313.5,-144 422.5,-144 422.5,-144 428.5,-144 434.5,-150 434.5,-156 434.5,-156 434.5,-168 434.5,-168 434.5,-174 428.5,-180 422.5,-180"/>
<text text-anchor="middle" x="368" y="-165" font-family="sans" font-size="10.00">generate_mutations_tip</text>
<text text-anchor="middle" x="368" y="-154" font-family="sans" font-size="10.00">tip: L</text>
</g>
<!-- 13&#45;&gt;6 -->
<g id="edge17" class="edge">
<title>13&#45;&gt;6</title>
<path fill="none" stroke="grey" stroke-width="2" d="M384.56,-143.7C392.68,-135.22 402.59,-124.86 411.47,-115.58"/>
<polygon fill="grey" stroke="grey" stroke-width="2" points="414.24,-117.75 418.63,-108.1 409.19,-112.91 414.24,-117.75"/>
</g>
<!-- 13&#45;&gt;7 -->
<g id="edge18" class="edge">
<title>13&#45;&gt;7</title>
<path fill="none" stroke="grey" stroke-width="2" d="M348.97,-143.7C339.46,-135.05 327.79,-124.45 317.43,-115.03"/>
<polygon fill="grey" stroke="grey" stroke-width="2" points="319.57,-112.24 309.81,-108.1 314.86,-117.42 319.57,-112.24"/>
</g>
<!-- 13&#45;&gt;8 -->
<g id="edge19" class="edge">
<title>13&#45;&gt;8</title>
<path fill="none" stroke="grey" stroke-width="2" d="M366.76,-143.7C366.21,-135.98 365.55,-126.71 364.94,-118.11"/>
<polygon fill="grey" stroke="grey" stroke-width="2" points="368.43,-117.83 364.22,-108.1 361.44,-118.33 368.43,-117.83"/>
</g>
<!-- 14 -->
<g id="node15" class="node">
<title>14</title>
<path fill="none" stroke="#56d8d8" stroke-width="2" d="M603.5,-180C603.5,-180 494.5,-180 494.5,-180 488.5,-180 482.5,-174 482.5,-168 482.5,-168 482.5,-156 482.5,-156 482.5,-150 488.5,-144 494.5,-144 494.5,-144 603.5,-144 603.5,-144 609.5,-144 615.5,-150 615.5,-156 615.5,-156 615.5,-168 615.5,-168 615.5,-174 609.5,-180 603.5,-180"/>
<text text-anchor="middle" x="549" y="-165" font-family="sans" font-size="10.00">generate_mutations_tip</text>
<text text-anchor="middle" x="549" y="-154" font-family="sans" font-size="10.00">tip: O</text>
</g>
<!-- 14&#45;&gt;9 -->
<g id="edge20" class="edge">
<title>14&#45;&gt;9</title>
<path fill="none" stroke="grey" stroke-width="2" d="M573.95,-143.88C587.04,-134.89 603.26,-123.76 617.44,-114.03"/>
<polygon fill="grey" stroke="grey" stroke-width="2" points="619.69,-116.73 625.95,-108.19 615.73,-110.96 619.69,-116.73"/>
</g>
<!-- 14&#45;&gt;10 -->
<g id="edge21" class="edge">
<title>14&#45;&gt;10</title>
<path fill="none" stroke="grey" stroke-width="2" d="M538.62,-143.7C533.74,-135.56 527.81,-125.69 522.42,-116.7"/>
<polygon fill="grey" stroke="grey" stroke-width="2" points="525.41,-114.88 517.26,-108.1 519.41,-118.48 525.41,-114.88"/>
</g>
<!-- 14&#45;&gt;11 -->
<g id="edge22" class="edge">
<title>14&#45;&gt;11</title>
<path fill="none" stroke="grey" stroke-width="2" d="M556.42,-143.7C559.79,-135.81 563.87,-126.3 567.62,-117.55"/>
<polygon fill="grey" stroke="grey" stroke-width="2" points="570.95,-118.67 571.67,-108.1 564.51,-115.92 570.95,-118.67"/>
</g>
<!-- 15&#45;&gt;13 -->
<g id="edge23" class="edge">
<title>15&#45;&gt;13</title>
<path fill="none" stroke="grey" stroke-width="2" d="M382.3,-215.7C380.19,-207.9 377.64,-198.51 375.28,-189.83"/>
<polygon fill="grey" stroke="grey" stroke-width="2" points="378.64,-188.84 372.64,-180.1 371.88,-190.67 378.64,-188.84"/>
</g>
<!-- 15&#45;&gt;14 -->
<g id="edge24" class="edge">
<title>15&#45;&gt;14</title>
<path fill="none" stroke="grey" stroke-width="2" d="M426.63,-215.88C448.78,-206.31 476.56,-194.3 500.06,-184.15"/>
<polygon fill="grey" stroke="grey" stroke-width="2" points="501.71,-187.25 509.5,-180.07 498.93,-180.82 501.71,-187.25"/>
</g>
</g>
</svg>
