<?xml version="1.0" encoding="UTF-8" standalone="no"?>
<!DOCTYPE svg PUBLIC "-//W3C//DTD SVG 1.1//EN"
 "http://www.w3.org/Graphics/SVG/1.1/DTD/svg11.dtd">
<!-- Generated by graphviz version 2.43.0 (0)
 -->
<!-- Title: snakemake_dag Pages: 1 -->
<svg width="251pt" height="404pt"
 viewBox="0.00 0.00 251.00 404.00" xmlns="http://www.w3.org/2000/svg" xmlns:xlink="http://www.w3.org/1999/xlink">
<g id="graph0" class="graph" transform="scale(1 1) rotate(0) translate(4 400)">
<title>snakemake_dag</title>
<polygon fill="white" stroke="transparent" points="-4,4 -4,-400 247,-400 247,4 -4,4"/>
<!-- 0 -->
<g id="node1" class="node">
<title>0</title>
<path fill="none" stroke="#d8a456" stroke-width="2" d="M157.5,-36C157.5,-36 127.5,-36 127.5,-36 121.5,-36 115.5,-30 115.5,-24 115.5,-24 115.5,-12 115.5,-12 115.5,-6 121.5,0 127.5,0 127.5,0 157.5,0 157.5,0 163.5,0 169.5,-6 169.5,-12 169.5,-12 169.5,-24 169.5,-24 169.5,-30 163.5,-36 157.5,-36"/>
<text text-anchor="middle" x="142.5" y="-15.5" font-family="sans" font-size="10.00">all</text>
</g>
<!-- 1 -->
<g id="node2" class="node">
<title>1</title>
<path fill="none" stroke="#56d87b" stroke-width="2" stroke-dasharray="5,2" d="M139.5,-180C139.5,-180 59.5,-180 59.5,-180 53.5,-180 47.5,-174 47.5,-168 47.5,-168 47.5,-156 47.5,-156 47.5,-150 53.5,-144 59.5,-144 59.5,-144 139.5,-144 139.5,-144 145.5,-144 151.5,-150 151.5,-156 151.5,-156 151.5,-168 151.5,-168 151.5,-174 145.5,-180 139.5,-180"/>
<text text-anchor="middle" x="99.5" y="-159.5" font-family="sans" font-size="10.00">sample_reference</text>
</g>
<!-- 1&#45;&gt;0 -->
<g id="edge1" class="edge">
<title>1&#45;&gt;0</title>
<path fill="none" stroke="grey" stroke-width="2" d="M102.39,-143.68C105.65,-125.55 111.55,-96.39 119.5,-72 122.36,-63.23 126.14,-53.91 129.8,-45.58"/>
<polygon fill="grey" stroke="grey" stroke-width="2" points="133.05,-46.9 133.99,-36.35 126.67,-44.01 133.05,-46.9"/>
</g>
<!-- 2 -->
<g id="node3" class="node">
<title>2</title>
<path fill="none" stroke="#56a2d8" stroke-width="2" d="M231,-108C231,-108 140,-108 140,-108 134,-108 128,-102 128,-96 128,-96 128,-84 128,-84 128,-78 134,-72 140,-72 140,-72 231,-72 231,-72 237,-72 243,-78 243,-84 243,-84 243,-96 243,-96 243,-102 237,-108 231,-108"/>
<text text-anchor="middle" x="185.5" y="-87.5" font-family="sans" font-size="10.00">generate_mutations</text>
</g>
<!-- 1&#45;&gt;2 -->
<g id="edge7" class="edge">
<title>1&#45;&gt;2</title>
<path fill="none" stroke="grey" stroke-width="2" d="M120.76,-143.7C131.59,-134.88 144.92,-124.03 156.66,-114.47"/>
<polygon fill="grey" stroke="grey" stroke-width="2" points="158.94,-117.13 164.49,-108.1 154.52,-111.7 158.94,-117.13"/>
</g>
<!-- 2&#45;&gt;0 -->
<g id="edge2" class="edge">
<title>2&#45;&gt;0</title>
<path fill="none" stroke="grey" stroke-width="2" d="M174.87,-71.7C169.87,-63.56 163.81,-53.69 158.29,-44.7"/>
<polygon fill="grey" stroke="grey" stroke-width="2" points="161.22,-42.79 153.01,-36.1 155.26,-46.46 161.22,-42.79"/>
</g>
<!-- 3 -->
<g id="node4" class="node">
<title>3</title>
<path fill="none" stroke="#78d856" stroke-width="2" stroke-dasharray="5,2" d="M101,-324C101,-324 12,-324 12,-324 6,-324 0,-318 0,-312 0,-312 0,-300 0,-300 0,-294 6,-288 12,-288 12,-288 101,-288 101,-288 107,-288 113,-294 113,-300 113,-300 113,-312 113,-312 113,-318 107,-324 101,-324"/>
<text text-anchor="middle" x="56.5" y="-309" font-family="sans" font-size="10.00">uncompress_source</text>
<text text-anchor="middle" x="56.5" y="-298" font-family="sans" font-size="10.00">files: Qrob_PM1N.fa</text>
</g>
<!-- 3&#45;&gt;1 -->
<g id="edge3" class="edge">
<title>3&#45;&gt;1</title>
<path fill="none" stroke="grey" stroke-width="2" d="M48.06,-287.89C40.21,-269.43 31.13,-239.51 41.5,-216 46.49,-204.69 55.21,-194.74 64.4,-186.62"/>
<polygon fill="grey" stroke="grey" stroke-width="2" points="66.67,-189.28 72.16,-180.23 62.22,-183.88 66.67,-189.28"/>
</g>
<!-- 4 -->
<g id="node5" class="node">
<title>4</title>
<path fill="none" stroke="#c6d856" stroke-width="2" stroke-dasharray="5,2" d="M120,-252C120,-252 63,-252 63,-252 57,-252 51,-246 51,-240 51,-240 51,-228 51,-228 51,-222 57,-216 63,-216 63,-216 120,-216 120,-216 126,-216 132,-222 132,-228 132,-228 132,-240 132,-240 132,-246 126,-252 120,-252"/>
<text text-anchor="middle" x="91.5" y="-231.5" font-family="sans" font-size="10.00">index_source</text>
</g>
<!-- 3&#45;&gt;4 -->
<g id="edge9" class="edge">
<title>3&#45;&gt;4</title>
<path fill="none" stroke="grey" stroke-width="2" d="M65.15,-287.7C69.14,-279.73 73.95,-270.1 78.37,-261.26"/>
<polygon fill="grey" stroke="grey" stroke-width="2" points="81.61,-262.61 82.95,-252.1 75.35,-259.48 81.61,-262.61"/>
</g>
<!-- 4&#45;&gt;1 -->
<g id="edge4" class="edge">
<title>4&#45;&gt;1</title>
<path fill="none" stroke="grey" stroke-width="2" d="M93.48,-215.7C94.36,-207.98 95.42,-198.71 96.4,-190.11"/>
<polygon fill="grey" stroke="grey" stroke-width="2" points="99.89,-190.44 97.55,-180.1 92.93,-189.64 99.89,-190.44"/>
</g>
<!-- 5 -->
<g id="node6" class="node">
<title>5</title>
<path fill="none" stroke="#d85656" stroke-width="2" stroke-dasharray="5,2" d="M224.5,-252C224.5,-252 162.5,-252 162.5,-252 156.5,-252 150.5,-246 150.5,-240 150.5,-240 150.5,-228 150.5,-228 150.5,-222 156.5,-216 162.5,-216 162.5,-216 224.5,-216 224.5,-216 230.5,-216 236.5,-222 236.5,-228 236.5,-228 236.5,-240 236.5,-240 236.5,-246 230.5,-252 224.5,-252"/>
<text text-anchor="middle" x="193.5" y="-231.5" font-family="sans" font-size="10.00">reference_bed</text>
</g>
<!-- 5&#45;&gt;1 -->
<g id="edge5" class="edge">
<title>5&#45;&gt;1</title>
<path fill="none" stroke="grey" stroke-width="2" d="M170.26,-215.7C158.31,-206.8 143.58,-195.82 130.65,-186.2"/>
<polygon fill="grey" stroke="grey" stroke-width="2" points="132.58,-183.27 122.47,-180.1 128.4,-188.88 132.58,-183.27"/>
</g>
<!-- 5&#45;&gt;2 -->
<g id="edge6" class="edge">
<title>5&#45;&gt;2</title>
<path fill="none" stroke="grey" stroke-width="2" d="M192.54,-215.87C191.17,-191.67 188.67,-147.21 187.04,-118.39"/>
<polygon fill="grey" stroke="grey" stroke-width="2" points="190.53,-117.98 186.47,-108.19 183.54,-118.37 190.53,-117.98"/>
</g>
<!-- 6 -->
<g id="node7" class="node">
<title>6</title>
<path fill="none" stroke="#56d8c9" stroke-width="2" stroke-dasharray="5,2" d="M79.5,-396C79.5,-396 33.5,-396 33.5,-396 27.5,-396 21.5,-390 21.5,-384 21.5,-384 21.5,-372 21.5,-372 21.5,-366 27.5,-360 33.5,-360 33.5,-360 79.5,-360 79.5,-360 85.5,-360 91.5,-366 91.5,-372 91.5,-372 91.5,-384 91.5,-384 91.5,-390 85.5,-396 79.5,-396"/>
<text text-anchor="middle" x="56.5" y="-375.5" font-family="sans" font-size="10.00">get_source</text>
</g>
<!-- 6&#45;&gt;3 -->
<g id="edge8" class="edge">
<title>6&#45;&gt;3</title>
<path fill="none" stroke="grey" stroke-width="2" d="M56.5,-359.7C56.5,-351.98 56.5,-342.71 56.5,-334.11"/>
<polygon fill="grey" stroke="grey" stroke-width="2" points="60,-334.1 56.5,-324.1 53,-334.1 60,-334.1"/>
</g>
</g>
</svg>
