<?xml version="1.0" encoding="UTF-8" standalone="no"?>
<!DOCTYPE svg PUBLIC "-//W3C//DTD SVG 1.1//EN"
 "http://www.w3.org/Graphics/SVG/1.1/DTD/svg11.dtd">
<!-- Generated by graphviz version 2.43.0 (0)
 -->
<!-- Title: snakemake_dag Pages: 1 -->
<svg width="1500pt" height="364pt"
 viewBox="0.00 0.00 1500.02 364.00" xmlns="http://www.w3.org/2000/svg" xmlns:xlink="http://www.w3.org/1999/xlink">
<g id="graph0" class="graph" transform="scale(1 1) rotate(0) translate(4 360)">
<title>snakemake_dag</title>
<polygon fill="white" stroke="transparent" points="-4,4 -4,-360 1496.02,-360 1496.02,4 -4,4"/>
<!-- 0 -->
<g id="node1" class="node">
<title>0</title>
<path fill="none" stroke="#d8cb56" stroke-width="2" stroke-dasharray="5,2" d="M794.5,-36C794.5,-36 764.5,-36 764.5,-36 758.5,-36 752.5,-30 752.5,-24 752.5,-24 752.5,-12 752.5,-12 752.5,-6 758.5,0 764.5,0 764.5,0 794.5,0 794.5,0 800.5,0 806.5,-6 806.5,-12 806.5,-12 806.5,-24 806.5,-24 806.5,-30 800.5,-36 794.5,-36"/>
<text text-anchor="middle" x="779.5" y="-15.5" font-family="sans" font-size="10.00">all</text>
</g>
<!-- 1 -->
<g id="node2" class="node">
<title>1</title>
<path fill="none" stroke="#d85656" stroke-width="2" stroke-dasharray="5,2" d="M838.5,-356C838.5,-356 770.5,-356 770.5,-356 764.5,-356 758.5,-350 758.5,-344 758.5,-344 758.5,-332 758.5,-332 758.5,-326 764.5,-320 770.5,-320 770.5,-320 838.5,-320 838.5,-320 844.5,-320 850.5,-326 850.5,-332 850.5,-332 850.5,-344 850.5,-344 850.5,-350 844.5,-356 838.5,-356"/>
<text text-anchor="middle" x="804.5" y="-335.5" font-family="sans" font-size="10.00">samtools_faidx</text>
</g>
<!-- 1&#45;&gt;0 -->
<g id="edge1" class="edge">
<title>1&#45;&gt;0</title>
<path fill="none" stroke="grey" stroke-width="2" d="M850.72,-334.72C962.87,-328.82 1246.86,-311.55 1337.5,-284 1422.9,-258.04 1523.62,-222.7 1481.5,-144 1454.28,-93.14 1427.92,-91.16 1373.5,-72 1270.02,-35.57 930.83,-23.14 817.07,-19.93"/>
<polygon fill="grey" stroke="grey" stroke-width="2" points="816.88,-16.43 806.78,-19.65 816.69,-23.42 816.88,-16.43"/>
</g>
<!-- 2 -->
<g id="node3" class="node">
<title>2</title>
<path fill="none" stroke="#56d873" stroke-width="2" stroke-dasharray="5,2" d="M760.5,-281.5C760.5,-281.5 730.5,-281.5 730.5,-281.5 724.5,-281.5 718.5,-275.5 718.5,-269.5 718.5,-269.5 718.5,-257.5 718.5,-257.5 718.5,-251.5 724.5,-245.5 730.5,-245.5 730.5,-245.5 760.5,-245.5 760.5,-245.5 766.5,-245.5 772.5,-251.5 772.5,-257.5 772.5,-257.5 772.5,-269.5 772.5,-269.5 772.5,-275.5 766.5,-281.5 760.5,-281.5"/>
<text text-anchor="middle" x="745.5" y="-261" font-family="sans" font-size="10.00">simug</text>
</g>
<!-- 1&#45;&gt;2 -->
<g id="edge13" class="edge">
<title>1&#45;&gt;2</title>
<path fill="none" stroke="grey" stroke-width="2" d="M790.52,-319.82C783.17,-310.79 774.03,-299.55 765.9,-289.57"/>
<polygon fill="grey" stroke="grey" stroke-width="2" points="768.41,-287.11 759.38,-281.56 762.98,-291.52 768.41,-287.11"/>
</g>
<!-- 3 -->
<g id="node4" class="node">
<title>3</title>
<path fill="none" stroke="#5692d8" stroke-width="2" stroke-dasharray="5,2" d="M438,-284C438,-284 347,-284 347,-284 341,-284 335,-278 335,-272 335,-272 335,-255 335,-255 335,-249 341,-243 347,-243 347,-243 438,-243 438,-243 444,-243 450,-249 450,-255 450,-255 450,-272 450,-272 450,-278 444,-284 438,-284"/>
<text text-anchor="middle" x="392.5" y="-272" font-family="sans" font-size="10.00">generate_mutations</text>
<text text-anchor="middle" x="392.5" y="-261" font-family="sans" font-size="10.00">N: 100</text>
<text text-anchor="middle" x="392.5" y="-250" font-family="sans" font-size="10.00">R: 2</text>
</g>
<!-- 1&#45;&gt;3 -->
<g id="edge15" class="edge">
<title>1&#45;&gt;3</title>
<path fill="none" stroke="grey" stroke-width="2" d="M758.42,-322.22C755.41,-321.42 752.42,-320.67 749.5,-320 650.04,-297.03 532.76,-280.83 460.51,-272.08"/>
<polygon fill="grey" stroke="grey" stroke-width="2" points="460.53,-268.56 450.18,-270.85 459.7,-275.51 460.53,-268.56"/>
</g>
<!-- 4 -->
<g id="node5" class="node">
<title>4</title>
<path fill="none" stroke="#5692d8" stroke-width="2" stroke-dasharray="5,2" d="M1316,-284C1316,-284 1225,-284 1225,-284 1219,-284 1213,-278 1213,-272 1213,-272 1213,-255 1213,-255 1213,-249 1219,-243 1225,-243 1225,-243 1316,-243 1316,-243 1322,-243 1328,-249 1328,-255 1328,-255 1328,-272 1328,-272 1328,-278 1322,-284 1316,-284"/>
<text text-anchor="middle" x="1270.5" y="-272" font-family="sans" font-size="10.00">generate_mutations</text>
<text text-anchor="middle" x="1270.5" y="-261" font-family="sans" font-size="10.00">N: 100</text>
<text text-anchor="middle" x="1270.5" y="-250" font-family="sans" font-size="10.00">R: 3</text>
</g>
<!-- 1&#45;&gt;4 -->
<g id="edge16" class="edge">
<title>1&#45;&gt;4</title>
<path fill="none" stroke="grey" stroke-width="2" d="M850.89,-329.78C933.6,-316.92 1106.85,-289.96 1202.85,-275.02"/>
<polygon fill="grey" stroke="grey" stroke-width="2" points="1203.4,-278.48 1212.75,-273.49 1202.33,-271.56 1203.4,-278.48"/>
</g>
<!-- 14 -->
<g id="node15" class="node">
<title>14</title>
<path fill="none" stroke="#56d8a9" stroke-width="2" stroke-dasharray="5,2" d="M626,-207C626,-207 589,-207 589,-207 583,-207 577,-201 577,-195 577,-195 577,-156 577,-156 577,-150 583,-144 589,-144 589,-144 626,-144 626,-144 632,-144 638,-150 638,-156 638,-156 638,-195 638,-195 638,-201 632,-207 626,-207"/>
<text text-anchor="middle" x="607.5" y="-195" font-family="sans" font-size="10.00">iss_base</text>
<text text-anchor="middle" x="607.5" y="-184" font-family="sans" font-size="10.00">AF: 0.6</text>
<text text-anchor="middle" x="607.5" y="-173" font-family="sans" font-size="10.00">N: 100</text>
<text text-anchor="middle" x="607.5" y="-162" font-family="sans" font-size="10.00">NR: 4667</text>
<text text-anchor="middle" x="607.5" y="-151" font-family="sans" font-size="10.00">R: 2</text>
</g>
<!-- 1&#45;&gt;14 -->
<g id="edge33" class="edge">
<title>1&#45;&gt;14</title>
<path fill="none" stroke="grey" stroke-width="2" d="M758.32,-322C735.77,-313.22 709.13,-300.57 688.5,-284 665.02,-265.14 644.65,-238.02 630.21,-215.74"/>
<polygon fill="grey" stroke="grey" stroke-width="2" points="633.08,-213.73 624.78,-207.15 627.17,-217.47 633.08,-213.73"/>
</g>
<!-- 16 -->
<g id="node17" class="node">
<title>16</title>
<path fill="none" stroke="#56d8a9" stroke-width="2" stroke-dasharray="5,2" d="M705,-207C705,-207 668,-207 668,-207 662,-207 656,-201 656,-195 656,-195 656,-156 656,-156 656,-150 662,-144 668,-144 668,-144 705,-144 705,-144 711,-144 717,-150 717,-156 717,-156 717,-195 717,-195 717,-201 711,-207 705,-207"/>
<text text-anchor="middle" x="686.5" y="-195" font-family="sans" font-size="10.00">iss_base</text>
<text text-anchor="middle" x="686.5" y="-184" font-family="sans" font-size="10.00">AF: 0.6</text>
<text text-anchor="middle" x="686.5" y="-173" font-family="sans" font-size="10.00">N: 100</text>
<text text-anchor="middle" x="686.5" y="-162" font-family="sans" font-size="10.00">NR: 7000</text>
<text text-anchor="middle" x="686.5" y="-151" font-family="sans" font-size="10.00">R: 2</text>
</g>
<!-- 1&#45;&gt;16 -->
<g id="edge36" class="edge">
<title>1&#45;&gt;16</title>
<path fill="none" stroke="grey" stroke-width="2" d="M758.11,-320.79C740.42,-312.4 721.62,-300.4 709.5,-284 695.37,-264.87 689.54,-238.9 687.29,-217.27"/>
<polygon fill="grey" stroke="grey" stroke-width="2" points="690.76,-216.73 686.45,-207.05 683.78,-217.3 690.76,-216.73"/>
</g>
<!-- 18 -->
<g id="node19" class="node">
<title>18</title>
<path fill="none" stroke="#56d8a9" stroke-width="2" stroke-dasharray="5,2" d="M49,-207C49,-207 12,-207 12,-207 6,-207 0,-201 0,-195 0,-195 0,-156 0,-156 0,-150 6,-144 12,-144 12,-144 49,-144 49,-144 55,-144 61,-150 61,-156 61,-156 61,-195 61,-195 61,-201 55,-207 49,-207"/>
<text text-anchor="middle" x="30.5" y="-195" font-family="sans" font-size="10.00">iss_base</text>
<text text-anchor="middle" x="30.5" y="-184" font-family="sans" font-size="10.00">AF: 0.8</text>
<text text-anchor="middle" x="30.5" y="-173" font-family="sans" font-size="10.00">N: 100</text>
<text text-anchor="middle" x="30.5" y="-162" font-family="sans" font-size="10.00">NR: 4667</text>
<text text-anchor="middle" x="30.5" y="-151" font-family="sans" font-size="10.00">R: 2</text>
</g>
<!-- 1&#45;&gt;18 -->
<g id="edge39" class="edge">
<title>1&#45;&gt;18</title>
<path fill="none" stroke="grey" stroke-width="2" d="M758.48,-321.95C755.46,-321.22 752.45,-320.56 749.5,-320 536.68,-279.76 474.59,-332.51 263.5,-284 173.09,-263.22 149.97,-253.16 69.5,-207 69.41,-206.95 69.32,-206.9 69.23,-206.85"/>
<polygon fill="grey" stroke="grey" stroke-width="2" points="71.34,-204.03 61.01,-201.65 67.59,-209.95 71.34,-204.03"/>
</g>
<!-- 20 -->
<g id="node21" class="node">
<title>20</title>
<path fill="none" stroke="#56d8a9" stroke-width="2" stroke-dasharray="5,2" d="M223,-207C223,-207 186,-207 186,-207 180,-207 174,-201 174,-195 174,-195 174,-156 174,-156 174,-150 180,-144 186,-144 186,-144 223,-144 223,-144 229,-144 235,-150 235,-156 235,-156 235,-195 235,-195 235,-201 229,-207 223,-207"/>
<text text-anchor="middle" x="204.5" y="-195" font-family="sans" font-size="10.00">iss_base</text>
<text text-anchor="middle" x="204.5" y="-184" font-family="sans" font-size="10.00">AF: 0.8</text>
<text text-anchor="middle" x="204.5" y="-173" font-family="sans" font-size="10.00">N: 100</text>
<text text-anchor="middle" x="204.5" y="-162" font-family="sans" font-size="10.00">NR: 7000</text>
<text text-anchor="middle" x="204.5" y="-151" font-family="sans" font-size="10.00">R: 2</text>
</g>
<!-- 1&#45;&gt;20 -->
<g id="edge42" class="edge">
<title>1&#45;&gt;20</title>
<path fill="none" stroke="grey" stroke-width="2" d="M758.47,-321.99C755.45,-321.24 752.44,-320.57 749.5,-320 563.86,-283.87 499.28,-358.61 325.5,-284 290.2,-268.84 258.1,-239.22 235.84,-214.9"/>
<polygon fill="grey" stroke="grey" stroke-width="2" points="238.25,-212.34 228.97,-207.22 233.03,-217.01 238.25,-212.34"/>
</g>
<!-- 22 -->
<g id="node23" class="node">
<title>22</title>
<path fill="none" stroke="#56d8a9" stroke-width="2" stroke-dasharray="5,2" d="M823,-207C823,-207 786,-207 786,-207 780,-207 774,-201 774,-195 774,-195 774,-156 774,-156 774,-150 780,-144 786,-144 786,-144 823,-144 823,-144 829,-144 835,-150 835,-156 835,-156 835,-195 835,-195 835,-201 829,-207 823,-207"/>
<text text-anchor="middle" x="804.5" y="-195" font-family="sans" font-size="10.00">iss_base</text>
<text text-anchor="middle" x="804.5" y="-184" font-family="sans" font-size="10.00">AF: 0.6</text>
<text text-anchor="middle" x="804.5" y="-173" font-family="sans" font-size="10.00">N: 100</text>
<text text-anchor="middle" x="804.5" y="-162" font-family="sans" font-size="10.00">NR: 4667</text>
<text text-anchor="middle" x="804.5" y="-151" font-family="sans" font-size="10.00">R: 3</text>
</g>
<!-- 1&#45;&gt;22 -->
<g id="edge45" class="edge">
<title>1&#45;&gt;22</title>
<path fill="none" stroke="grey" stroke-width="2" d="M804.5,-319.82C804.5,-295.6 804.5,-250.65 804.5,-217.53"/>
<polygon fill="grey" stroke="grey" stroke-width="2" points="808,-217.23 804.5,-207.23 801,-217.23 808,-217.23"/>
</g>
<!-- 24 -->
<g id="node25" class="node">
<title>24</title>
<path fill="none" stroke="#56d8a9" stroke-width="2" stroke-dasharray="5,2" d="M981,-207C981,-207 944,-207 944,-207 938,-207 932,-201 932,-195 932,-195 932,-156 932,-156 932,-150 938,-144 944,-144 944,-144 981,-144 981,-144 987,-144 993,-150 993,-156 993,-156 993,-195 993,-195 993,-201 987,-207 981,-207"/>
<text text-anchor="middle" x="962.5" y="-195" font-family="sans" font-size="10.00">iss_base</text>
<text text-anchor="middle" x="962.5" y="-184" font-family="sans" font-size="10.00">AF: 0.6</text>
<text text-anchor="middle" x="962.5" y="-173" font-family="sans" font-size="10.00">N: 100</text>
<text text-anchor="middle" x="962.5" y="-162" font-family="sans" font-size="10.00">NR: 7000</text>
<text text-anchor="middle" x="962.5" y="-151" font-family="sans" font-size="10.00">R: 3</text>
</g>
<!-- 1&#45;&gt;24 -->
<g id="edge48" class="edge">
<title>1&#45;&gt;24</title>
<path fill="none" stroke="grey" stroke-width="2" d="M821.41,-319.82C845.98,-294.86 892.2,-247.91 925.04,-214.55"/>
<polygon fill="grey" stroke="grey" stroke-width="2" points="927.73,-216.81 932.25,-207.23 922.74,-211.9 927.73,-216.81"/>
</g>
<!-- 26 -->
<g id="node27" class="node">
<title>26</title>
<path fill="none" stroke="#56d8a9" stroke-width="2" stroke-dasharray="5,2" d="M1060,-207C1060,-207 1023,-207 1023,-207 1017,-207 1011,-201 1011,-195 1011,-195 1011,-156 1011,-156 1011,-150 1017,-144 1023,-144 1023,-144 1060,-144 1060,-144 1066,-144 1072,-150 1072,-156 1072,-156 1072,-195 1072,-195 1072,-201 1066,-207 1060,-207"/>
<text text-anchor="middle" x="1041.5" y="-195" font-family="sans" font-size="10.00">iss_base</text>
<text text-anchor="middle" x="1041.5" y="-184" font-family="sans" font-size="10.00">AF: 0.8</text>
<text text-anchor="middle" x="1041.5" y="-173" font-family="sans" font-size="10.00">N: 100</text>
<text text-anchor="middle" x="1041.5" y="-162" font-family="sans" font-size="10.00">NR: 4667</text>
<text text-anchor="middle" x="1041.5" y="-151" font-family="sans" font-size="10.00">R: 3</text>
</g>
<!-- 1&#45;&gt;26 -->
<g id="edge51" class="edge">
<title>1&#45;&gt;26</title>
<path fill="none" stroke="grey" stroke-width="2" d="M833.79,-319.79C850.8,-309.64 872.55,-296.39 891.5,-284 941.45,-251.35 953.32,-242.21 1001.5,-207 1001.78,-206.8 1002.06,-206.59 1002.34,-206.39"/>
<polygon fill="grey" stroke="grey" stroke-width="2" points="1004.64,-209.04 1010.58,-200.27 1000.47,-203.42 1004.64,-209.04"/>
</g>
<!-- 28 -->
<g id="node29" class="node">
<title>28</title>
<path fill="none" stroke="#56d8a9" stroke-width="2" stroke-dasharray="5,2" d="M902,-207C902,-207 865,-207 865,-207 859,-207 853,-201 853,-195 853,-195 853,-156 853,-156 853,-150 859,-144 865,-144 865,-144 902,-144 902,-144 908,-144 914,-150 914,-156 914,-156 914,-195 914,-195 914,-201 908,-207 902,-207"/>
<text text-anchor="middle" x="883.5" y="-195" font-family="sans" font-size="10.00">iss_base</text>
<text text-anchor="middle" x="883.5" y="-184" font-family="sans" font-size="10.00">AF: 0.8</text>
<text text-anchor="middle" x="883.5" y="-173" font-family="sans" font-size="10.00">N: 100</text>
<text text-anchor="middle" x="883.5" y="-162" font-family="sans" font-size="10.00">NR: 7000</text>
<text text-anchor="middle" x="883.5" y="-151" font-family="sans" font-size="10.00">R: 3</text>
</g>
<!-- 1&#45;&gt;28 -->
<g id="edge54" class="edge">
<title>1&#45;&gt;28</title>
<path fill="none" stroke="grey" stroke-width="2" d="M812.95,-319.82C825.03,-295.28 847.58,-249.48 863.94,-216.25"/>
<polygon fill="grey" stroke="grey" stroke-width="2" points="867.1,-217.75 868.37,-207.23 860.82,-214.66 867.1,-217.75"/>
</g>
<!-- 2&#45;&gt;0 -->
<g id="edge2" class="edge">
<title>2&#45;&gt;0</title>
<path fill="none" stroke="grey" stroke-width="2" d="M746.2,-245.28C747.79,-211.69 752.5,-135.19 764.5,-72 766.15,-63.32 768.56,-54 770.97,-45.63"/>
<polygon fill="grey" stroke="grey" stroke-width="2" points="774.34,-46.59 773.86,-36 767.63,-44.58 774.34,-46.59"/>
</g>
<!-- 2&#45;&gt;14 -->
<g id="edge34" class="edge">
<title>2&#45;&gt;14</title>
<path fill="none" stroke="grey" stroke-width="2" d="M718.37,-248.73C698.1,-238.1 669.96,-222.61 646.5,-207 646.42,-206.94 646.33,-206.89 646.24,-206.83"/>
<polygon fill="grey" stroke="grey" stroke-width="2" points="648.46,-204.11 638.26,-201.25 644.45,-209.85 648.46,-204.11"/>
</g>
<!-- 2&#45;&gt;16 -->
<g id="edge37" class="edge">
<title>2&#45;&gt;16</title>
<path fill="none" stroke="grey" stroke-width="2" d="M733.56,-245.1C727.72,-236.58 720.44,-225.97 713.36,-215.65"/>
<polygon fill="grey" stroke="grey" stroke-width="2" points="716.04,-213.37 707.5,-207.1 710.27,-217.33 716.04,-213.37"/>
</g>
<!-- 2&#45;&gt;18 -->
<g id="edge40" class="edge">
<title>2&#45;&gt;18</title>
<path fill="none" stroke="grey" stroke-width="2" d="M718.3,-260.71C602.3,-253 151.47,-222.49 70.91,-205.56"/>
<polygon fill="grey" stroke="grey" stroke-width="2" points="71.59,-202.12 61.02,-202.86 69.75,-208.87 71.59,-202.12"/>
</g>
<!-- 2&#45;&gt;20 -->
<g id="edge43" class="edge">
<title>2&#45;&gt;20</title>
<path fill="none" stroke="grey" stroke-width="2" d="M718.19,-260.36C624.7,-252.92 319.59,-227.65 244.71,-206.07"/>
<polygon fill="grey" stroke="grey" stroke-width="2" points="245.65,-202.69 235.05,-202.77 243.39,-209.31 245.65,-202.69"/>
</g>
<!-- 2&#45;&gt;22 -->
<g id="edge46" class="edge">
<title>2&#45;&gt;22</title>
<path fill="none" stroke="grey" stroke-width="2" d="M757.44,-245.1C763.28,-236.58 770.56,-225.97 777.64,-215.65"/>
<polygon fill="grey" stroke="grey" stroke-width="2" points="780.73,-217.33 783.5,-207.1 774.96,-213.37 780.73,-217.33"/>
</g>
<!-- 2&#45;&gt;24 -->
<g id="edge49" class="edge">
<title>2&#45;&gt;24</title>
<path fill="none" stroke="grey" stroke-width="2" d="M772.72,-257.06C808.48,-249.24 872.59,-232.83 922.5,-207 922.69,-206.9 922.89,-206.8 923.08,-206.7"/>
<polygon fill="grey" stroke="grey" stroke-width="2" points="924.92,-209.67 931.75,-201.57 921.36,-203.65 924.92,-209.67"/>
</g>
<!-- 2&#45;&gt;26 -->
<g id="edge52" class="edge">
<title>2&#45;&gt;26</title>
<path fill="none" stroke="grey" stroke-width="2" d="M772.51,-260.52C820.58,-256.18 923.26,-243.12 1001.5,-207 1001.7,-206.91 1001.9,-206.82 1002.09,-206.72"/>
<polygon fill="grey" stroke="grey" stroke-width="2" points="1003.83,-209.76 1010.9,-201.87 1000.45,-203.63 1003.83,-209.76"/>
</g>
<!-- 2&#45;&gt;28 -->
<g id="edge55" class="edge">
<title>2&#45;&gt;28</title>
<path fill="none" stroke="grey" stroke-width="2" d="M772.71,-248.38C792.71,-237.7 820.33,-222.29 843.5,-207 843.79,-206.81 844.07,-206.62 844.36,-206.43"/>
<polygon fill="grey" stroke="grey" stroke-width="2" points="846.58,-209.15 852.79,-200.57 842.58,-203.4 846.58,-209.15"/>
</g>
<!-- 3&#45;&gt;0 -->
<g id="edge3" class="edge">
<title>3&#45;&gt;0</title>
<path fill="none" stroke="grey" stroke-width="2" d="M382.73,-242.76C371.89,-217.76 358.28,-174.29 377.5,-144 417.57,-80.87 650.4,-38.8 742.25,-24.46"/>
<polygon fill="grey" stroke="grey" stroke-width="2" points="742.88,-27.9 752.23,-22.92 741.81,-20.98 742.88,-27.9"/>
</g>
<!-- 15 -->
<g id="node16" class="node">
<title>15</title>
<path fill="none" stroke="#d88d56" stroke-width="2" stroke-dasharray="5,2" d="M452,-196C452,-196 399,-196 399,-196 393,-196 387,-190 387,-184 387,-184 387,-167 387,-167 387,-161 393,-155 399,-155 399,-155 452,-155 452,-155 458,-155 464,-161 464,-167 464,-167 464,-184 464,-184 464,-190 458,-196 452,-196"/>
<text text-anchor="middle" x="425.5" y="-184" font-family="sans" font-size="10.00">iss_mutated</text>
<text text-anchor="middle" x="425.5" y="-173" font-family="sans" font-size="10.00">AF: 0.6</text>
<text text-anchor="middle" x="425.5" y="-162" font-family="sans" font-size="10.00">NR: 4667</text>
</g>
<!-- 3&#45;&gt;15 -->
<g id="edge35" class="edge">
<title>3&#45;&gt;15</title>
<path fill="none" stroke="grey" stroke-width="2" d="M399.99,-242.99C404.22,-231.96 409.59,-217.96 414.31,-205.65"/>
<polygon fill="grey" stroke="grey" stroke-width="2" points="417.61,-206.83 417.93,-196.24 411.08,-204.32 417.61,-206.83"/>
</g>
<!-- 17 -->
<g id="node18" class="node">
<title>17</title>
<path fill="none" stroke="#d88d56" stroke-width="2" stroke-dasharray="5,2" d="M547,-196C547,-196 494,-196 494,-196 488,-196 482,-190 482,-184 482,-184 482,-167 482,-167 482,-161 488,-155 494,-155 494,-155 547,-155 547,-155 553,-155 559,-161 559,-167 559,-167 559,-184 559,-184 559,-190 553,-196 547,-196"/>
<text text-anchor="middle" x="520.5" y="-184" font-family="sans" font-size="10.00">iss_mutated</text>
<text text-anchor="middle" x="520.5" y="-173" font-family="sans" font-size="10.00">AF: 0.6</text>
<text text-anchor="middle" x="520.5" y="-162" font-family="sans" font-size="10.00">NR: 7000</text>
</g>
<!-- 3&#45;&gt;17 -->
<g id="edge38" class="edge">
<title>3&#45;&gt;17</title>
<path fill="none" stroke="grey" stroke-width="2" d="M421.55,-242.99C439.66,-230.81 463.18,-215.01 482.73,-201.87"/>
<polygon fill="grey" stroke="grey" stroke-width="2" points="484.78,-204.72 491.13,-196.24 480.87,-198.91 484.78,-204.72"/>
</g>
<!-- 19 -->
<g id="node20" class="node">
<title>19</title>
<path fill="none" stroke="#d88d56" stroke-width="2" stroke-dasharray="5,2" d="M144,-196C144,-196 91,-196 91,-196 85,-196 79,-190 79,-184 79,-184 79,-167 79,-167 79,-161 85,-155 91,-155 91,-155 144,-155 144,-155 150,-155 156,-161 156,-167 156,-167 156,-184 156,-184 156,-190 150,-196 144,-196"/>
<text text-anchor="middle" x="117.5" y="-184" font-family="sans" font-size="10.00">iss_mutated</text>
<text text-anchor="middle" x="117.5" y="-173" font-family="sans" font-size="10.00">AF: 0.8</text>
<text text-anchor="middle" x="117.5" y="-162" font-family="sans" font-size="10.00">NR: 4667</text>
</g>
<!-- 3&#45;&gt;19 -->
<g id="edge41" class="edge">
<title>3&#45;&gt;19</title>
<path fill="none" stroke="grey" stroke-width="2" d="M334.56,-253.95C287.42,-245.7 219.86,-230.88 164.5,-207 160.79,-205.4 157.04,-203.51 153.37,-201.48"/>
<polygon fill="grey" stroke="grey" stroke-width="2" points="154.85,-198.29 144.46,-196.19 151.28,-204.3 154.85,-198.29"/>
</g>
<!-- 21 -->
<g id="node22" class="node">
<title>21</title>
<path fill="none" stroke="#d88d56" stroke-width="2" stroke-dasharray="5,2" d="M318,-196C318,-196 265,-196 265,-196 259,-196 253,-190 253,-184 253,-184 253,-167 253,-167 253,-161 259,-155 265,-155 265,-155 318,-155 318,-155 324,-155 330,-161 330,-167 330,-167 330,-184 330,-184 330,-190 324,-196 318,-196"/>
<text text-anchor="middle" x="291.5" y="-184" font-family="sans" font-size="10.00">iss_mutated</text>
<text text-anchor="middle" x="291.5" y="-173" font-family="sans" font-size="10.00">AF: 0.8</text>
<text text-anchor="middle" x="291.5" y="-162" font-family="sans" font-size="10.00">NR: 7000</text>
</g>
<!-- 3&#45;&gt;21 -->
<g id="edge44" class="edge">
<title>3&#45;&gt;21</title>
<path fill="none" stroke="grey" stroke-width="2" d="M369.58,-242.99C355.6,-231.08 337.56,-215.72 322.34,-202.76"/>
<polygon fill="grey" stroke="grey" stroke-width="2" points="324.56,-200.05 314.68,-196.24 320.02,-205.38 324.56,-200.05"/>
</g>
<!-- 4&#45;&gt;0 -->
<g id="edge4" class="edge">
<title>4&#45;&gt;0</title>
<path fill="none" stroke="grey" stroke-width="2" d="M1328.24,-253.48C1378.37,-244.33 1445.38,-228.47 1461.5,-207 1478.31,-184.61 1478.88,-165.96 1461.5,-144 1380.57,-41.75 948.13,-23.04 817.13,-19.7"/>
<polygon fill="grey" stroke="grey" stroke-width="2" points="816.9,-16.2 806.82,-19.46 816.73,-23.2 816.9,-16.2"/>
</g>
<!-- 23 -->
<g id="node24" class="node">
<title>23</title>
<path fill="none" stroke="#d88d56" stroke-width="2" stroke-dasharray="5,2" d="M1155,-196C1155,-196 1102,-196 1102,-196 1096,-196 1090,-190 1090,-184 1090,-184 1090,-167 1090,-167 1090,-161 1096,-155 1102,-155 1102,-155 1155,-155 1155,-155 1161,-155 1167,-161 1167,-167 1167,-167 1167,-184 1167,-184 1167,-190 1161,-196 1155,-196"/>
<text text-anchor="middle" x="1128.5" y="-184" font-family="sans" font-size="10.00">iss_mutated</text>
<text text-anchor="middle" x="1128.5" y="-173" font-family="sans" font-size="10.00">AF: 0.6</text>
<text text-anchor="middle" x="1128.5" y="-162" font-family="sans" font-size="10.00">NR: 4667</text>
</g>
<!-- 4&#45;&gt;23 -->
<g id="edge47" class="edge">
<title>4&#45;&gt;23</title>
<path fill="none" stroke="grey" stroke-width="2" d="M1236.84,-242.99C1218.85,-232.47 1196.38,-219.18 1176.5,-207 1173.55,-205.19 1170.5,-203.31 1167.45,-201.4"/>
<polygon fill="grey" stroke="grey" stroke-width="2" points="1169.21,-198.37 1158.88,-196.01 1165.48,-204.3 1169.21,-198.37"/>
</g>
<!-- 25 -->
<g id="node26" class="node">
<title>25</title>
<path fill="none" stroke="#d88d56" stroke-width="2" stroke-dasharray="5,2" d="M1345,-196C1345,-196 1292,-196 1292,-196 1286,-196 1280,-190 1280,-184 1280,-184 1280,-167 1280,-167 1280,-161 1286,-155 1292,-155 1292,-155 1345,-155 1345,-155 1351,-155 1357,-161 1357,-167 1357,-167 1357,-184 1357,-184 1357,-190 1351,-196 1345,-196"/>
<text text-anchor="middle" x="1318.5" y="-184" font-family="sans" font-size="10.00">iss_mutated</text>
<text text-anchor="middle" x="1318.5" y="-173" font-family="sans" font-size="10.00">AF: 0.6</text>
<text text-anchor="middle" x="1318.5" y="-162" font-family="sans" font-size="10.00">NR: 7000</text>
</g>
<!-- 4&#45;&gt;25 -->
<g id="edge50" class="edge">
<title>4&#45;&gt;25</title>
<path fill="none" stroke="grey" stroke-width="2" d="M1281.39,-242.99C1287.61,-231.85 1295.52,-217.68 1302.43,-205.29"/>
<polygon fill="grey" stroke="grey" stroke-width="2" points="1305.67,-206.67 1307.49,-196.24 1299.56,-203.26 1305.67,-206.67"/>
</g>
<!-- 27 -->
<g id="node28" class="node">
<title>27</title>
<path fill="none" stroke="#d88d56" stroke-width="2" stroke-dasharray="5,2" d="M1440,-196C1440,-196 1387,-196 1387,-196 1381,-196 1375,-190 1375,-184 1375,-184 1375,-167 1375,-167 1375,-161 1381,-155 1387,-155 1387,-155 1440,-155 1440,-155 1446,-155 1452,-161 1452,-167 1452,-167 1452,-184 1452,-184 1452,-190 1446,-196 1440,-196"/>
<text text-anchor="middle" x="1413.5" y="-184" font-family="sans" font-size="10.00">iss_mutated</text>
<text text-anchor="middle" x="1413.5" y="-173" font-family="sans" font-size="10.00">AF: 0.8</text>
<text text-anchor="middle" x="1413.5" y="-162" font-family="sans" font-size="10.00">NR: 4667</text>
</g>
<!-- 4&#45;&gt;27 -->
<g id="edge53" class="edge">
<title>4&#45;&gt;27</title>
<path fill="none" stroke="grey" stroke-width="2" d="M1305.41,-242.89C1323.73,-232.45 1346.48,-219.27 1366.5,-207 1369.32,-205.27 1372.22,-203.46 1375.13,-201.63"/>
<polygon fill="grey" stroke="grey" stroke-width="2" points="1377.26,-204.42 1383.81,-196.09 1373.5,-198.52 1377.26,-204.42"/>
</g>
<!-- 29 -->
<g id="node30" class="node">
<title>29</title>
<path fill="none" stroke="#d88d56" stroke-width="2" stroke-dasharray="5,2" d="M1250,-196C1250,-196 1197,-196 1197,-196 1191,-196 1185,-190 1185,-184 1185,-184 1185,-167 1185,-167 1185,-161 1191,-155 1197,-155 1197,-155 1250,-155 1250,-155 1256,-155 1262,-161 1262,-167 1262,-167 1262,-184 1262,-184 1262,-190 1256,-196 1250,-196"/>
<text text-anchor="middle" x="1223.5" y="-184" font-family="sans" font-size="10.00">iss_mutated</text>
<text text-anchor="middle" x="1223.5" y="-173" font-family="sans" font-size="10.00">AF: 0.8</text>
<text text-anchor="middle" x="1223.5" y="-162" font-family="sans" font-size="10.00">NR: 7000</text>
</g>
<!-- 4&#45;&gt;29 -->
<g id="edge56" class="edge">
<title>4&#45;&gt;29</title>
<path fill="none" stroke="grey" stroke-width="2" d="M1259.83,-242.99C1253.75,-231.85 1246.01,-217.68 1239.23,-205.29"/>
<polygon fill="grey" stroke="grey" stroke-width="2" points="1242.15,-203.33 1234.29,-196.24 1236.01,-206.69 1242.15,-203.33"/>
</g>
<!-- 5 -->
<g id="node6" class="node">
<title>5</title>
<path fill="none" stroke="#afd856" stroke-width="2" stroke-dasharray="5,2" d="M607.5,-108C607.5,-108 551.5,-108 551.5,-108 545.5,-108 539.5,-102 539.5,-96 539.5,-96 539.5,-84 539.5,-84 539.5,-78 545.5,-72 551.5,-72 551.5,-72 607.5,-72 607.5,-72 613.5,-72 619.5,-78 619.5,-84 619.5,-84 619.5,-96 619.5,-96 619.5,-102 613.5,-108 607.5,-108"/>
<text text-anchor="middle" x="579.5" y="-87.5" font-family="sans" font-size="10.00">merge_reads</text>
</g>
<!-- 5&#45;&gt;0 -->
<g id="edge5" class="edge">
<title>5&#45;&gt;0</title>
<path fill="none" stroke="grey" stroke-width="2" d="M619.97,-74.83C655.81,-62.29 707.7,-44.13 742.46,-31.96"/>
<polygon fill="grey" stroke="grey" stroke-width="2" points="743.94,-35.15 752.22,-28.55 741.63,-28.55 743.94,-35.15"/>
</g>
<!-- 6 -->
<g id="node7" class="node">
<title>6</title>
<path fill="none" stroke="#afd856" stroke-width="2" stroke-dasharray="5,2" d="M705.5,-108C705.5,-108 649.5,-108 649.5,-108 643.5,-108 637.5,-102 637.5,-96 637.5,-96 637.5,-84 637.5,-84 637.5,-78 643.5,-72 649.5,-72 649.5,-72 705.5,-72 705.5,-72 711.5,-72 717.5,-78 717.5,-84 717.5,-84 717.5,-96 717.5,-96 717.5,-102 711.5,-108 705.5,-108"/>
<text text-anchor="middle" x="677.5" y="-87.5" font-family="sans" font-size="10.00">merge_reads</text>
</g>
<!-- 6&#45;&gt;0 -->
<g id="edge6" class="edge">
<title>6&#45;&gt;0</title>
<path fill="none" stroke="grey" stroke-width="2" d="M702.45,-71.88C715.54,-62.89 731.76,-51.76 745.94,-42.03"/>
<polygon fill="grey" stroke="grey" stroke-width="2" points="748.19,-44.73 754.45,-36.19 744.23,-38.96 748.19,-44.73"/>
</g>
<!-- 7 -->
<g id="node8" class="node">
<title>7</title>
<path fill="none" stroke="#afd856" stroke-width="2" stroke-dasharray="5,2" d="M145.5,-108C145.5,-108 89.5,-108 89.5,-108 83.5,-108 77.5,-102 77.5,-96 77.5,-96 77.5,-84 77.5,-84 77.5,-78 83.5,-72 89.5,-72 89.5,-72 145.5,-72 145.5,-72 151.5,-72 157.5,-78 157.5,-84 157.5,-84 157.5,-96 157.5,-96 157.5,-102 151.5,-108 145.5,-108"/>
<text text-anchor="middle" x="117.5" y="-87.5" font-family="sans" font-size="10.00">merge_reads</text>
</g>
<!-- 7&#45;&gt;0 -->
<g id="edge7" class="edge">
<title>7&#45;&gt;0</title>
<path fill="none" stroke="grey" stroke-width="2" d="M157.66,-83.1C181.91,-79.64 213.45,-75.3 241.5,-72 429.37,-49.88 654.91,-29.74 742.34,-22.17"/>
<polygon fill="grey" stroke="grey" stroke-width="2" points="742.65,-25.66 752.31,-21.31 742.04,-18.68 742.65,-25.66"/>
</g>
<!-- 8 -->
<g id="node9" class="node">
<title>8</title>
<path fill="none" stroke="#afd856" stroke-width="2" stroke-dasharray="5,2" d="M318.5,-108C318.5,-108 262.5,-108 262.5,-108 256.5,-108 250.5,-102 250.5,-96 250.5,-96 250.5,-84 250.5,-84 250.5,-78 256.5,-72 262.5,-72 262.5,-72 318.5,-72 318.5,-72 324.5,-72 330.5,-78 330.5,-84 330.5,-84 330.5,-96 330.5,-96 330.5,-102 324.5,-108 318.5,-108"/>
<text text-anchor="middle" x="290.5" y="-87.5" font-family="sans" font-size="10.00">merge_reads</text>
</g>
<!-- 8&#45;&gt;0 -->
<g id="edge8" class="edge">
<title>8&#45;&gt;0</title>
<path fill="none" stroke="grey" stroke-width="2" d="M330.68,-75.46C335.31,-74.17 339.99,-72.98 344.5,-72 489.61,-40.6 666.27,-26.27 742.05,-21.24"/>
<polygon fill="grey" stroke="grey" stroke-width="2" points="742.73,-24.7 752.48,-20.56 742.28,-17.72 742.73,-24.7"/>
</g>
<!-- 9 -->
<g id="node10" class="node">
<title>9</title>
<path fill="none" stroke="#afd856" stroke-width="2" stroke-dasharray="5,2" d="M841.5,-108C841.5,-108 785.5,-108 785.5,-108 779.5,-108 773.5,-102 773.5,-96 773.5,-96 773.5,-84 773.5,-84 773.5,-78 779.5,-72 785.5,-72 785.5,-72 841.5,-72 841.5,-72 847.5,-72 853.5,-78 853.5,-84 853.5,-84 853.5,-96 853.5,-96 853.5,-102 847.5,-108 841.5,-108"/>
<text text-anchor="middle" x="813.5" y="-87.5" font-family="sans" font-size="10.00">merge_reads</text>
</g>
<!-- 9&#45;&gt;0 -->
<g id="edge9" class="edge">
<title>9&#45;&gt;0</title>
<path fill="none" stroke="grey" stroke-width="2" d="M805.1,-71.7C801.23,-63.73 796.55,-54.1 792.26,-45.26"/>
<polygon fill="grey" stroke="grey" stroke-width="2" points="795.33,-43.57 787.81,-36.1 789.03,-46.63 795.33,-43.57"/>
</g>
<!-- 10 -->
<g id="node11" class="node">
<title>10</title>
<path fill="none" stroke="#afd856" stroke-width="2" stroke-dasharray="5,2" d="M1037.5,-108C1037.5,-108 981.5,-108 981.5,-108 975.5,-108 969.5,-102 969.5,-96 969.5,-96 969.5,-84 969.5,-84 969.5,-78 975.5,-72 981.5,-72 981.5,-72 1037.5,-72 1037.5,-72 1043.5,-72 1049.5,-78 1049.5,-84 1049.5,-84 1049.5,-96 1049.5,-96 1049.5,-102 1043.5,-108 1037.5,-108"/>
<text text-anchor="middle" x="1009.5" y="-87.5" font-family="sans" font-size="10.00">merge_reads</text>
</g>
<!-- 10&#45;&gt;0 -->
<g id="edge10" class="edge">
<title>10&#45;&gt;0</title>
<path fill="none" stroke="grey" stroke-width="2" d="M969.44,-74.92C966.42,-73.92 963.42,-72.93 960.5,-72 910.9,-56.14 853.06,-39.53 816.37,-29.22"/>
<polygon fill="grey" stroke="grey" stroke-width="2" points="817.18,-25.82 806.61,-26.49 815.3,-32.56 817.18,-25.82"/>
</g>
<!-- 11 -->
<g id="node12" class="node">
<title>11</title>
<path fill="none" stroke="#afd856" stroke-width="2" stroke-dasharray="5,2" d="M1135.5,-108C1135.5,-108 1079.5,-108 1079.5,-108 1073.5,-108 1067.5,-102 1067.5,-96 1067.5,-96 1067.5,-84 1067.5,-84 1067.5,-78 1073.5,-72 1079.5,-72 1079.5,-72 1135.5,-72 1135.5,-72 1141.5,-72 1147.5,-78 1147.5,-84 1147.5,-84 1147.5,-96 1147.5,-96 1147.5,-102 1141.5,-108 1135.5,-108"/>
<text text-anchor="middle" x="1107.5" y="-87.5" font-family="sans" font-size="10.00">merge_reads</text>
</g>
<!-- 11&#45;&gt;0 -->
<g id="edge11" class="edge">
<title>11&#45;&gt;0</title>
<path fill="none" stroke="grey" stroke-width="2" d="M1067.27,-74.52C1064.32,-73.62 1061.37,-72.77 1058.5,-72 973.2,-49.23 870.73,-32.38 816.84,-24.31"/>
<polygon fill="grey" stroke="grey" stroke-width="2" points="817.13,-20.82 806.73,-22.82 816.11,-27.74 817.13,-20.82"/>
</g>
<!-- 12 -->
<g id="node13" class="node">
<title>12</title>
<path fill="none" stroke="#afd856" stroke-width="2" stroke-dasharray="5,2" d="M939.5,-108C939.5,-108 883.5,-108 883.5,-108 877.5,-108 871.5,-102 871.5,-96 871.5,-96 871.5,-84 871.5,-84 871.5,-78 877.5,-72 883.5,-72 883.5,-72 939.5,-72 939.5,-72 945.5,-72 951.5,-78 951.5,-84 951.5,-84 951.5,-96 951.5,-96 951.5,-102 945.5,-108 939.5,-108"/>
<text text-anchor="middle" x="911.5" y="-87.5" font-family="sans" font-size="10.00">merge_reads</text>
</g>
<!-- 12&#45;&gt;0 -->
<g id="edge12" class="edge">
<title>12&#45;&gt;0</title>
<path fill="none" stroke="grey" stroke-width="2" d="M879.21,-71.88C859.97,-61.67 835.51,-48.7 815.62,-38.16"/>
<polygon fill="grey" stroke="grey" stroke-width="2" points="817.04,-34.94 806.56,-33.35 813.76,-41.13 817.04,-34.94"/>
</g>
<!-- 13 -->
<g id="node14" class="node">
<title>13</title>
<path fill="none" stroke="#56c9d8" stroke-width="2" stroke-dasharray="5,2" d="M728.5,-356C728.5,-356 684.5,-356 684.5,-356 678.5,-356 672.5,-350 672.5,-344 672.5,-344 672.5,-332 672.5,-332 672.5,-326 678.5,-320 684.5,-320 684.5,-320 728.5,-320 728.5,-320 734.5,-320 740.5,-326 740.5,-332 740.5,-332 740.5,-344 740.5,-344 740.5,-350 734.5,-356 728.5,-356"/>
<text text-anchor="middle" x="706.5" y="-335.5" font-family="sans" font-size="10.00">vcf2model</text>
</g>
<!-- 13&#45;&gt;2 -->
<g id="edge14" class="edge">
<title>13&#45;&gt;2</title>
<path fill="none" stroke="grey" stroke-width="2" d="M715.74,-319.82C720.45,-311.06 726.28,-300.23 731.53,-290.47"/>
<polygon fill="grey" stroke="grey" stroke-width="2" points="734.67,-292.02 736.32,-281.56 728.5,-288.71 734.67,-292.02"/>
</g>
<!-- 14&#45;&gt;5 -->
<g id="edge17" class="edge">
<title>14&#45;&gt;5</title>
<path fill="none" stroke="grey" stroke-width="2" d="M597.23,-143.88C594.35,-135.28 591.23,-125.99 588.43,-117.64"/>
<polygon fill="grey" stroke="grey" stroke-width="2" points="591.71,-116.39 585.21,-108.03 585.07,-118.62 591.71,-116.39"/>
</g>
<!-- 15&#45;&gt;5 -->
<g id="edge18" class="edge">
<title>15&#45;&gt;5</title>
<path fill="none" stroke="grey" stroke-width="2" d="M454.51,-154.93C460.39,-151.18 466.58,-147.37 472.5,-144 492,-132.89 514.15,-121.7 533.22,-112.48"/>
<polygon fill="grey" stroke="grey" stroke-width="2" points="534.8,-115.6 542.3,-108.12 531.77,-109.29 534.8,-115.6"/>
</g>
<!-- 16&#45;&gt;6 -->
<g id="edge19" class="edge">
<title>16&#45;&gt;6</title>
<path fill="none" stroke="grey" stroke-width="2" d="M683.2,-143.88C682.29,-135.47 681.32,-126.4 680.43,-118.19"/>
<polygon fill="grey" stroke="grey" stroke-width="2" points="683.89,-117.59 679.34,-108.03 676.93,-118.34 683.89,-117.59"/>
</g>
<!-- 17&#45;&gt;6 -->
<g id="edge20" class="edge">
<title>17&#45;&gt;6</title>
<path fill="none" stroke="grey" stroke-width="2" d="M549.48,-154.88C555.36,-151.13 561.57,-147.34 567.5,-144 587.43,-132.79 610.09,-121.62 629.64,-112.45"/>
<polygon fill="grey" stroke="grey" stroke-width="2" points="631.37,-115.5 638.97,-108.11 628.42,-109.15 631.37,-115.5"/>
</g>
<!-- 18&#45;&gt;7 -->
<g id="edge21" class="edge">
<title>18&#45;&gt;7</title>
<path fill="none" stroke="grey" stroke-width="2" d="M61.42,-144.83C71.51,-135.14 82.6,-124.49 92.23,-115.25"/>
<polygon fill="grey" stroke="grey" stroke-width="2" points="94.81,-117.63 99.6,-108.18 89.96,-112.58 94.81,-117.63"/>
</g>
<!-- 19&#45;&gt;7 -->
<g id="edge22" class="edge">
<title>19&#45;&gt;7</title>
<path fill="none" stroke="grey" stroke-width="2" d="M117.5,-154.71C117.5,-143.86 117.5,-130.23 117.5,-118.37"/>
<polygon fill="grey" stroke="grey" stroke-width="2" points="121,-118.1 117.5,-108.1 114,-118.1 121,-118.1"/>
</g>
<!-- 20&#45;&gt;8 -->
<g id="edge23" class="edge">
<title>20&#45;&gt;8</title>
<path fill="none" stroke="grey" stroke-width="2" d="M235.06,-144.83C244.97,-135.21 255.84,-124.66 265.3,-115.46"/>
<polygon fill="grey" stroke="grey" stroke-width="2" points="267.82,-117.9 272.55,-108.42 262.94,-112.88 267.82,-117.9"/>
</g>
<!-- 21&#45;&gt;8 -->
<g id="edge24" class="edge">
<title>21&#45;&gt;8</title>
<path fill="none" stroke="grey" stroke-width="2" d="M291.26,-154.71C291.13,-143.86 290.97,-130.23 290.83,-118.37"/>
<polygon fill="grey" stroke="grey" stroke-width="2" points="294.32,-118.06 290.7,-108.1 287.32,-118.14 294.32,-118.06"/>
</g>
<!-- 22&#45;&gt;9 -->
<g id="edge25" class="edge">
<title>22&#45;&gt;9</title>
<path fill="none" stroke="grey" stroke-width="2" d="M807.8,-143.88C808.71,-135.47 809.68,-126.4 810.57,-118.19"/>
<polygon fill="grey" stroke="grey" stroke-width="2" points="814.07,-118.34 811.66,-108.03 807.11,-117.59 814.07,-118.34"/>
</g>
<!-- 23&#45;&gt;9 -->
<g id="edge26" class="edge">
<title>23&#45;&gt;9</title>
<path fill="none" stroke="grey" stroke-width="2" d="M1101.84,-154.91C1095.15,-150.75 1087.79,-146.78 1080.5,-144 991.72,-110.09 959.74,-130.75 863.54,-107.98"/>
<polygon fill="grey" stroke="grey" stroke-width="2" points="864.26,-104.55 853.71,-105.56 862.58,-111.35 864.26,-104.55"/>
</g>
<!-- 24&#45;&gt;10 -->
<g id="edge27" class="edge">
<title>24&#45;&gt;10</title>
<path fill="none" stroke="grey" stroke-width="2" d="M979.73,-143.88C984.74,-134.99 990.15,-125.38 994.97,-116.82"/>
<polygon fill="grey" stroke="grey" stroke-width="2" points="998.06,-118.46 999.92,-108.03 991.96,-115.02 998.06,-118.46"/>
</g>
<!-- 25&#45;&gt;10 -->
<g id="edge28" class="edge">
<title>25&#45;&gt;10</title>
<path fill="none" stroke="grey" stroke-width="2" d="M1292.43,-154.92C1285.88,-150.76 1278.66,-146.79 1271.5,-144 1185.01,-110.3 1153.6,-130.37 1059.62,-108.01"/>
<polygon fill="grey" stroke="grey" stroke-width="2" points="1060.26,-104.56 1049.71,-105.55 1058.58,-111.35 1060.26,-104.56"/>
</g>
<!-- 26&#45;&gt;11 -->
<g id="edge29" class="edge">
<title>26&#45;&gt;11</title>
<path fill="none" stroke="grey" stroke-width="2" d="M1065.7,-143.88C1072.95,-134.71 1080.81,-124.77 1087.74,-116"/>
<polygon fill="grey" stroke="grey" stroke-width="2" points="1090.59,-118.04 1094.04,-108.03 1085.1,-113.7 1090.59,-118.04"/>
</g>
<!-- 27&#45;&gt;11 -->
<g id="edge30" class="edge">
<title>27&#45;&gt;11</title>
<path fill="none" stroke="grey" stroke-width="2" d="M1387.11,-154.94C1380.63,-150.83 1373.52,-146.88 1366.5,-144 1297.42,-115.7 1211.56,-101.97 1158.14,-95.71"/>
<polygon fill="grey" stroke="grey" stroke-width="2" points="1158.23,-92.2 1147.9,-94.56 1157.44,-99.16 1158.23,-92.2"/>
</g>
<!-- 28&#45;&gt;12 -->
<g id="edge31" class="edge">
<title>28&#45;&gt;12</title>
<path fill="none" stroke="grey" stroke-width="2" d="M893.77,-143.88C896.65,-135.28 899.77,-125.99 902.57,-117.64"/>
<polygon fill="grey" stroke="grey" stroke-width="2" points="905.93,-118.62 905.79,-108.03 899.29,-116.39 905.93,-118.62"/>
</g>
<!-- 29&#45;&gt;12 -->
<g id="edge32" class="edge">
<title>29&#45;&gt;12</title>
<path fill="none" stroke="grey" stroke-width="2" d="M1197.44,-154.91C1190.88,-150.75 1183.66,-146.78 1176.5,-144 1088.7,-109.91 1056.87,-130.6 961.46,-107.96"/>
<polygon fill="grey" stroke="grey" stroke-width="2" points="962.26,-104.56 951.71,-105.55 960.58,-111.35 962.26,-104.56"/>
</g>
</g>
</svg>
