<?xml version="1.0" encoding="UTF-8" standalone="no"?>
<!DOCTYPE svg PUBLIC "-//W3C//DTD SVG 1.1//EN"
 "http://www.w3.org/Graphics/SVG/1.1/DTD/svg11.dtd">
<!-- Generated by graphviz version 2.43.0 (0)
 -->
<!-- Title: snakemake_dag Pages: 1 -->
<svg width="276pt" height="404pt"
 viewBox="0.00 0.00 276.00 404.00" xmlns="http://www.w3.org/2000/svg" xmlns:xlink="http://www.w3.org/1999/xlink">
<g id="graph0" class="graph" transform="scale(1 1) rotate(0) translate(4 400)">
<title>snakemake_dag</title>
<polygon fill="white" stroke="transparent" points="-4,4 -4,-400 272,-400 272,4 -4,4"/>
<!-- 0 -->
<g id="node1" class="node">
<title>0</title>
<path fill="none" stroke="#78d856" stroke-width="2" d="M141,-36C141,-36 111,-36 111,-36 105,-36 99,-30 99,-24 99,-24 99,-12 99,-12 99,-6 105,0 111,0 111,0 141,0 141,0 147,0 153,-6 153,-12 153,-12 153,-24 153,-24 153,-30 147,-36 141,-36"/>
<text text-anchor="middle" x="126" y="-15.5" font-family="sans" font-size="10.00">all</text>
</g>
<!-- 1 -->
<g id="node2" class="node">
<title>1</title>
<path fill="none" stroke="#d85656" stroke-width="2" stroke-dasharray="5,2" d="M110,-252C110,-252 12,-252 12,-252 6,-252 0,-246 0,-240 0,-240 0,-228 0,-228 0,-222 6,-216 12,-216 12,-216 110,-216 110,-216 116,-216 122,-222 122,-228 122,-228 122,-240 122,-240 122,-246 116,-252 110,-252"/>
<text text-anchor="middle" x="61" y="-231.5" font-family="sans" font-size="10.00">chromosomes_length</text>
</g>
<!-- 1&#45;&gt;0 -->
<g id="edge1" class="edge">
<title>1&#45;&gt;0</title>
<path fill="none" stroke="grey" stroke-width="2" d="M66.21,-215.85C77.5,-178.68 104.3,-90.44 117.85,-45.82"/>
<polygon fill="grey" stroke="grey" stroke-width="2" points="121.21,-46.82 120.77,-36.23 114.51,-44.78 121.21,-46.82"/>
</g>
<!-- 2 -->
<g id="node3" class="node">
<title>2</title>
<path fill="none" stroke="#c6d856" stroke-width="2" d="M195,-108C195,-108 149,-108 149,-108 143,-108 137,-102 137,-96 137,-96 137,-84 137,-84 137,-78 143,-72 149,-72 149,-72 195,-72 195,-72 201,-72 207,-78 207,-84 207,-84 207,-96 207,-96 207,-102 201,-108 195,-108"/>
<text text-anchor="middle" x="172" y="-87.5" font-family="sans" font-size="10.00">split_reads</text>
</g>
<!-- 2&#45;&gt;0 -->
<g id="edge2" class="edge">
<title>2&#45;&gt;0</title>
<path fill="none" stroke="grey" stroke-width="2" d="M160.63,-71.7C155.28,-63.56 148.8,-53.69 142.89,-44.7"/>
<polygon fill="grey" stroke="grey" stroke-width="2" points="145.66,-42.54 137.24,-36.1 139.81,-46.38 145.66,-42.54"/>
</g>
<!-- 3 -->
<g id="node4" class="node">
<title>3</title>
<path fill="none" stroke="#56a2d8" stroke-width="2" stroke-dasharray="5,2" d="M158.5,-396C158.5,-396 105.5,-396 105.5,-396 99.5,-396 93.5,-390 93.5,-384 93.5,-384 93.5,-372 93.5,-372 93.5,-366 99.5,-360 105.5,-360 105.5,-360 158.5,-360 158.5,-360 164.5,-360 170.5,-366 170.5,-372 170.5,-372 170.5,-384 170.5,-384 170.5,-390 164.5,-396 158.5,-396"/>
<text text-anchor="middle" x="132" y="-375.5" font-family="sans" font-size="10.00">get_genome</text>
</g>
<!-- 3&#45;&gt;1 -->
<g id="edge3" class="edge">
<title>3&#45;&gt;1</title>
<path fill="none" stroke="grey" stroke-width="2" d="M123.44,-359.87C111.18,-335.35 88.52,-290.03 74.13,-261.26"/>
<polygon fill="grey" stroke="grey" stroke-width="2" points="77.2,-259.57 69.59,-252.19 70.94,-262.7 77.2,-259.57"/>
</g>
<!-- 6 -->
<g id="node7" class="node">
<title>6</title>
<path fill="none" stroke="#d8a456" stroke-width="2" stroke-dasharray="5,2" d="M228,-324C228,-324 148,-324 148,-324 142,-324 136,-318 136,-312 136,-312 136,-300 136,-300 136,-294 142,-288 148,-288 148,-288 228,-288 228,-288 234,-288 240,-294 240,-300 240,-300 240,-312 240,-312 240,-318 234,-324 228,-324"/>
<text text-anchor="middle" x="188" y="-303.5" font-family="sans" font-size="10.00">sample_reference</text>
</g>
<!-- 3&#45;&gt;6 -->
<g id="edge7" class="edge">
<title>3&#45;&gt;6</title>
<path fill="none" stroke="grey" stroke-width="2" d="M145.84,-359.7C152.49,-351.39 160.58,-341.28 167.89,-332.14"/>
<polygon fill="grey" stroke="grey" stroke-width="2" points="170.8,-334.1 174.32,-324.1 165.34,-329.73 170.8,-334.1"/>
</g>
<!-- 4 -->
<g id="node5" class="node">
<title>4</title>
<path fill="none" stroke="#56d87b" stroke-width="2" stroke-dasharray="5,2" d="M220,-180C220,-180 152,-180 152,-180 146,-180 140,-174 140,-168 140,-168 140,-156 140,-156 140,-150 146,-144 152,-144 152,-144 220,-144 220,-144 226,-144 232,-150 232,-156 232,-156 232,-168 232,-168 232,-174 226,-180 220,-180"/>
<text text-anchor="middle" x="186" y="-159.5" font-family="sans" font-size="10.00">generate_reads</text>
</g>
<!-- 4&#45;&gt;2 -->
<g id="edge4" class="edge">
<title>4&#45;&gt;2</title>
<path fill="none" stroke="grey" stroke-width="2" d="M182.54,-143.7C181,-135.98 179.14,-126.71 177.42,-118.11"/>
<polygon fill="grey" stroke="grey" stroke-width="2" points="180.81,-117.22 175.42,-108.1 173.95,-118.6 180.81,-117.22"/>
</g>
<!-- 5 -->
<g id="node6" class="node">
<title>5</title>
<path fill="none" stroke="#56d8c9" stroke-width="2" stroke-dasharray="5,2" d="M256,-252C256,-252 152,-252 152,-252 146,-252 140,-246 140,-240 140,-240 140,-228 140,-228 140,-222 146,-216 152,-216 152,-216 256,-216 256,-216 262,-216 268,-222 268,-228 268,-228 268,-240 268,-240 268,-246 262,-252 256,-252"/>
<text text-anchor="middle" x="204" y="-231.5" font-family="sans" font-size="10.00">uncompress_reference</text>
</g>
<!-- 5&#45;&gt;4 -->
<g id="edge5" class="edge">
<title>5&#45;&gt;4</title>
<path fill="none" stroke="grey" stroke-width="2" d="M199.55,-215.7C197.55,-207.9 195.13,-198.51 192.9,-189.83"/>
<polygon fill="grey" stroke="grey" stroke-width="2" points="196.28,-188.92 190.4,-180.1 189.5,-190.66 196.28,-188.92"/>
</g>
<!-- 6&#45;&gt;5 -->
<g id="edge6" class="edge">
<title>6&#45;&gt;5</title>
<path fill="none" stroke="grey" stroke-width="2" d="M191.96,-287.7C193.72,-279.98 195.84,-270.71 197.8,-262.11"/>
<polygon fill="grey" stroke="grey" stroke-width="2" points="201.27,-262.63 200.09,-252.1 194.45,-261.07 201.27,-262.63"/>
</g>
</g>
</svg>
