<?xml version="1.0" encoding="UTF-8" standalone="no"?>
<!DOCTYPE svg PUBLIC "-//W3C//DTD SVG 1.1//EN"
 "http://www.w3.org/Graphics/SVG/1.1/DTD/svg11.dtd">
<!-- Generated by graphviz version 2.43.0 (0)
 -->
<!-- Title: snakemake_dag Pages: 1 -->
<svg width="95pt" height="188pt"
 viewBox="0.00 0.00 95.00 188.00" xmlns="http://www.w3.org/2000/svg" xmlns:xlink="http://www.w3.org/1999/xlink">
<g id="graph0" class="graph" transform="scale(1 1) rotate(0) translate(4 184)">
<title>snakemake_dag</title>
<polygon fill="white" stroke="transparent" points="-4,4 -4,-184 91,-184 91,4 -4,4"/>
<!-- 0 -->
<g id="node1" class="node">
<title>0</title>
<path fill="none" stroke="#56d8a9" stroke-width="2" stroke-dasharray="5,2" d="M58.5,-36C58.5,-36 28.5,-36 28.5,-36 22.5,-36 16.5,-30 16.5,-24 16.5,-24 16.5,-12 16.5,-12 16.5,-6 22.5,0 28.5,0 28.5,0 58.5,0 58.5,0 64.5,0 70.5,-6 70.5,-12 70.5,-12 70.5,-24 70.5,-24 70.5,-30 64.5,-36 58.5,-36"/>
<text text-anchor="middle" x="43.5" y="-15.5" font-family="sans" font-size="10.00">all</text>
</g>
<!-- 1 -->
<g id="node2" class="node">
<title>1</title>
<path fill="none" stroke="#afd856" stroke-width="2" stroke-dasharray="5,2" d="M75,-108C75,-108 12,-108 12,-108 6,-108 0,-102 0,-96 0,-96 0,-84 0,-84 0,-78 6,-72 12,-72 12,-72 75,-72 75,-72 81,-72 87,-78 87,-84 87,-84 87,-96 87,-96 87,-102 81,-108 75,-108"/>
<text text-anchor="middle" x="43.5" y="-87.5" font-family="sans" font-size="10.00">stat_reference</text>
</g>
<!-- 1&#45;&gt;0 -->
<g id="edge1" class="edge">
<title>1&#45;&gt;0</title>
<path fill="none" stroke="grey" stroke-width="2" d="M43.5,-71.7C43.5,-63.98 43.5,-54.71 43.5,-46.11"/>
<polygon fill="grey" stroke="grey" stroke-width="2" points="47,-46.1 43.5,-36.1 40,-46.1 47,-46.1"/>
</g>
<!-- 2 -->
<g id="node3" class="node">
<title>2</title>
<path fill="none" stroke="#d85656" stroke-width="2" stroke-dasharray="5,2" d="M73.5,-180C73.5,-180 13.5,-180 13.5,-180 7.5,-180 1.5,-174 1.5,-168 1.5,-168 1.5,-156 1.5,-156 1.5,-150 7.5,-144 13.5,-144 13.5,-144 73.5,-144 73.5,-144 79.5,-144 85.5,-150 85.5,-156 85.5,-156 85.5,-168 85.5,-168 85.5,-174 79.5,-180 73.5,-180"/>
<text text-anchor="middle" x="43.5" y="-159.5" font-family="sans" font-size="10.00">get_reference</text>
</g>
<!-- 2&#45;&gt;1 -->
<g id="edge2" class="edge">
<title>2&#45;&gt;1</title>
<path fill="none" stroke="grey" stroke-width="2" d="M43.5,-143.7C43.5,-135.98 43.5,-126.71 43.5,-118.11"/>
<polygon fill="grey" stroke="grey" stroke-width="2" points="47,-118.1 43.5,-108.1 40,-118.1 47,-118.1"/>
</g>
</g>
</svg>
