<?xml version="1.0" encoding="UTF-8" standalone="no"?>
<!DOCTYPE svg PUBLIC "-//W3C//DTD SVG 1.1//EN"
 "http://www.w3.org/Graphics/SVG/1.1/DTD/svg11.dtd">
<!-- Generated by graphviz version 2.43.0 (0)
 -->
<!-- Title: snakemake_dag Pages: 1 -->
<svg width="345pt" height="436pt"
 viewBox="0.00 0.00 344.90 436.00" xmlns="http://www.w3.org/2000/svg" xmlns:xlink="http://www.w3.org/1999/xlink">
<g id="graph0" class="graph" transform="scale(1 1) rotate(0) translate(4 432)">
<title>snakemake_dag</title>
<polygon fill="white" stroke="transparent" points="-4,4 -4,-432 340.9,-432 340.9,4 -4,4"/>
<!-- 0 -->
<g id="node1" class="node">
<title>0</title>
<path fill="none" stroke="#56c9d8" stroke-width="2" d="M264,-36C264,-36 234,-36 234,-36 228,-36 222,-30 222,-24 222,-24 222,-12 222,-12 222,-6 228,0 234,0 234,0 264,0 264,0 270,0 276,-6 276,-12 276,-12 276,-24 276,-24 276,-30 270,-36 264,-36"/>
<text text-anchor="middle" x="249" y="-15.5" font-family="sans" font-size="10.00">all</text>
</g>
<!-- 1 -->
<g id="node2" class="node">
<title>1</title>
<path fill="none" stroke="#56d8a9" stroke-width="2" d="M207,-356C207,-356 139,-356 139,-356 133,-356 127,-350 127,-344 127,-344 127,-332 127,-332 127,-326 133,-320 139,-320 139,-320 207,-320 207,-320 213,-320 219,-326 219,-332 219,-332 219,-344 219,-344 219,-350 213,-356 207,-356"/>
<text text-anchor="middle" x="173" y="-335.5" font-family="sans" font-size="10.00">samtools_faidx</text>
</g>
<!-- 1&#45;&gt;0 -->
<g id="edge1" class="edge">
<title>1&#45;&gt;0</title>
<path fill="none" stroke="grey" stroke-width="2" d="M219.32,-333.45C252.53,-328.21 295.13,-315.35 317,-284 369.81,-208.29 303.26,-94.82 268.13,-44.54"/>
<polygon fill="grey" stroke="grey" stroke-width="2" points="270.83,-42.3 262.17,-36.19 265.13,-46.37 270.83,-42.3"/>
</g>
<!-- 2 -->
<g id="node3" class="node">
<title>2</title>
<path fill="none" stroke="#d88d56" stroke-width="2" d="M85,-281.5C85,-281.5 55,-281.5 55,-281.5 49,-281.5 43,-275.5 43,-269.5 43,-269.5 43,-257.5 43,-257.5 43,-251.5 49,-245.5 55,-245.5 55,-245.5 85,-245.5 85,-245.5 91,-245.5 97,-251.5 97,-257.5 97,-257.5 97,-269.5 97,-269.5 97,-275.5 91,-281.5 85,-281.5"/>
<text text-anchor="middle" x="70" y="-261" font-family="sans" font-size="10.00">simug</text>
</g>
<!-- 1&#45;&gt;2 -->
<g id="edge6" class="edge">
<title>1&#45;&gt;2</title>
<path fill="none" stroke="grey" stroke-width="2" d="M148.59,-319.82C134.87,-310.16 117.55,-297.97 102.67,-287.5"/>
<polygon fill="grey" stroke="grey" stroke-width="2" points="104.43,-284.45 94.23,-281.56 100.4,-290.18 104.43,-284.45"/>
</g>
<!-- 3 -->
<g id="node4" class="node">
<title>3</title>
<path fill="none" stroke="#afd856" stroke-width="2" d="M295.5,-284C295.5,-284 204.5,-284 204.5,-284 198.5,-284 192.5,-278 192.5,-272 192.5,-272 192.5,-255 192.5,-255 192.5,-249 198.5,-243 204.5,-243 204.5,-243 295.5,-243 295.5,-243 301.5,-243 307.5,-249 307.5,-255 307.5,-255 307.5,-272 307.5,-272 307.5,-278 301.5,-284 295.5,-284"/>
<text text-anchor="middle" x="250" y="-272" font-family="sans" font-size="10.00">generate_mutations</text>
<text text-anchor="middle" x="250" y="-261" font-family="sans" font-size="10.00">N: 100</text>
<text text-anchor="middle" x="250" y="-250" font-family="sans" font-size="10.00">R: 2</text>
</g>
<!-- 1&#45;&gt;3 -->
<g id="edge8" class="edge">
<title>1&#45;&gt;3</title>
<path fill="none" stroke="grey" stroke-width="2" d="M191.25,-319.82C200.32,-311.28 211.49,-300.76 221.65,-291.2"/>
<polygon fill="grey" stroke="grey" stroke-width="2" points="224.28,-293.52 229.16,-284.12 219.48,-288.43 224.28,-293.52"/>
</g>
<!-- 7 -->
<g id="node8" class="node">
<title>7</title>
<path fill="none" stroke="#d8cb56" stroke-width="2" d="M147.5,-207C147.5,-207 104.5,-207 104.5,-207 98.5,-207 92.5,-201 92.5,-195 92.5,-195 92.5,-156 92.5,-156 92.5,-150 98.5,-144 104.5,-144 104.5,-144 147.5,-144 147.5,-144 153.5,-144 159.5,-150 159.5,-156 159.5,-156 159.5,-195 159.5,-195 159.5,-201 153.5,-207 147.5,-207"/>
<text text-anchor="middle" x="126" y="-195" font-family="sans" font-size="10.00">iss_base</text>
<text text-anchor="middle" x="126" y="-184" font-family="sans" font-size="10.00">AF: 0.6</text>
<text text-anchor="middle" x="126" y="-173" font-family="sans" font-size="10.00">N: 100</text>
<text text-anchor="middle" x="126" y="-162" font-family="sans" font-size="10.00">NR: 50000</text>
<text text-anchor="middle" x="126" y="-151" font-family="sans" font-size="10.00">R: 2</text>
</g>
<!-- 1&#45;&gt;7 -->
<g id="edge12" class="edge">
<title>1&#45;&gt;7</title>
<path fill="none" stroke="grey" stroke-width="2" d="M167.97,-319.82C160.85,-295.49 147.6,-250.26 137.89,-217.1"/>
<polygon fill="grey" stroke="grey" stroke-width="2" points="141.17,-215.85 135,-207.23 134.45,-217.81 141.17,-215.85"/>
</g>
<!-- 8 -->
<g id="node9" class="node">
<title>8</title>
<path fill="none" stroke="#70d856" stroke-width="2" d="M242.5,-196C242.5,-196 189.5,-196 189.5,-196 183.5,-196 177.5,-190 177.5,-184 177.5,-184 177.5,-167 177.5,-167 177.5,-161 183.5,-155 189.5,-155 189.5,-155 242.5,-155 242.5,-155 248.5,-155 254.5,-161 254.5,-167 254.5,-167 254.5,-184 254.5,-184 254.5,-190 248.5,-196 242.5,-196"/>
<text text-anchor="middle" x="216" y="-184" font-family="sans" font-size="10.00">iss_mutated</text>
<text text-anchor="middle" x="216" y="-173" font-family="sans" font-size="10.00">AF: 0.6</text>
<text text-anchor="middle" x="216" y="-162" font-family="sans" font-size="10.00">NR: 50000</text>
</g>
<!-- 1&#45;&gt;8 -->
<g id="edge14" class="edge">
<title>1&#45;&gt;8</title>
<path fill="none" stroke="grey" stroke-width="2" d="M173.32,-319.68C174.06,-300.56 176.44,-269.04 184,-243 187.74,-230.12 193.77,-216.65 199.6,-205.23"/>
<polygon fill="grey" stroke="grey" stroke-width="2" points="202.8,-206.66 204.38,-196.18 196.61,-203.38 202.8,-206.66"/>
</g>
<!-- 2&#45;&gt;0 -->
<g id="edge2" class="edge">
<title>2&#45;&gt;0</title>
<path fill="none" stroke="grey" stroke-width="2" d="M68.33,-245.29C66.78,-221.18 66.84,-176.64 84,-144 111.86,-90.99 173.37,-54.03 212.91,-34.68"/>
<polygon fill="grey" stroke="grey" stroke-width="2" points="214.44,-37.83 221.97,-30.37 211.43,-31.51 214.44,-37.83"/>
</g>
<!-- 2&#45;&gt;7 -->
<g id="edge13" class="edge">
<title>2&#45;&gt;7</title>
<path fill="none" stroke="grey" stroke-width="2" d="M81.33,-245.1C86.88,-236.58 93.79,-225.97 100.51,-215.65"/>
<polygon fill="grey" stroke="grey" stroke-width="2" points="103.55,-217.39 106.07,-207.1 97.68,-213.57 103.55,-217.39"/>
</g>
<!-- 3&#45;&gt;0 -->
<g id="edge3" class="edge">
<title>3&#45;&gt;0</title>
<path fill="none" stroke="grey" stroke-width="2" d="M256.19,-242.95C259.2,-232.42 262.49,-219.13 264,-207 271.39,-147.46 272.25,-131.43 264,-72 262.82,-63.48 260.61,-54.39 258.25,-46.2"/>
<polygon fill="grey" stroke="grey" stroke-width="2" points="261.52,-44.94 255.24,-36.41 254.83,-46.99 261.52,-44.94"/>
</g>
<!-- 3&#45;&gt;8 -->
<g id="edge15" class="edge">
<title>3&#45;&gt;8</title>
<path fill="none" stroke="grey" stroke-width="2" d="M242.28,-242.99C237.93,-231.96 232.39,-217.96 227.53,-205.65"/>
<polygon fill="grey" stroke="grey" stroke-width="2" points="230.73,-204.25 223.8,-196.24 224.22,-206.82 230.73,-204.25"/>
</g>
<!-- 4 -->
<g id="node5" class="node">
<title>4</title>
<path fill="none" stroke="#5692d8" stroke-width="2" d="M243,-108C243,-108 187,-108 187,-108 181,-108 175,-102 175,-96 175,-96 175,-84 175,-84 175,-78 181,-72 187,-72 187,-72 243,-72 243,-72 249,-72 255,-78 255,-84 255,-84 255,-96 255,-96 255,-102 249,-108 243,-108"/>
<text text-anchor="middle" x="215" y="-87.5" font-family="sans" font-size="10.00">merge_reads</text>
</g>
<!-- 4&#45;&gt;0 -->
<g id="edge4" class="edge">
<title>4&#45;&gt;0</title>
<path fill="none" stroke="grey" stroke-width="2" d="M223.4,-71.7C227.27,-63.73 231.95,-54.1 236.24,-45.26"/>
<polygon fill="grey" stroke="grey" stroke-width="2" points="239.47,-46.63 240.69,-36.1 233.17,-43.57 239.47,-46.63"/>
</g>
<!-- 5 -->
<g id="node6" class="node">
<title>5</title>
<path fill="none" stroke="#d85656" stroke-width="2" d="M225.5,-428C225.5,-428 136.5,-428 136.5,-428 130.5,-428 124.5,-422 124.5,-416 124.5,-416 124.5,-404 124.5,-404 124.5,-398 130.5,-392 136.5,-392 136.5,-392 225.5,-392 225.5,-392 231.5,-392 237.5,-398 237.5,-404 237.5,-404 237.5,-416 237.5,-416 237.5,-422 231.5,-428 225.5,-428"/>
<text text-anchor="middle" x="181" y="-413" font-family="sans" font-size="10.00">cp_files</text>
<text text-anchor="middle" x="181" y="-402" font-family="sans" font-size="10.00">files: Qrob_PM1N.fa</text>
</g>
<!-- 5&#45;&gt;1 -->
<g id="edge5" class="edge">
<title>5&#45;&gt;1</title>
<path fill="none" stroke="grey" stroke-width="2" d="M179.02,-391.7C178.14,-383.98 177.08,-374.71 176.1,-366.11"/>
<polygon fill="grey" stroke="grey" stroke-width="2" points="179.57,-365.64 174.95,-356.1 172.61,-366.44 179.57,-365.64"/>
</g>
<!-- 6 -->
<g id="node7" class="node">
<title>6</title>
<path fill="none" stroke="#56d873" stroke-width="2" d="M90,-356C90,-356 46,-356 46,-356 40,-356 34,-350 34,-344 34,-344 34,-332 34,-332 34,-326 40,-320 46,-320 46,-320 90,-320 90,-320 96,-320 102,-326 102,-332 102,-332 102,-344 102,-344 102,-350 96,-356 90,-356"/>
<text text-anchor="middle" x="68" y="-335.5" font-family="sans" font-size="10.00">vcf2model</text>
</g>
<!-- 6&#45;&gt;2 -->
<g id="edge7" class="edge">
<title>6&#45;&gt;2</title>
<path fill="none" stroke="grey" stroke-width="2" d="M68.47,-319.82C68.71,-311.42 68.99,-301.12 69.25,-291.69"/>
<polygon fill="grey" stroke="grey" stroke-width="2" points="72.75,-291.65 69.53,-281.56 65.75,-291.46 72.75,-291.65"/>
</g>
<!-- 7&#45;&gt;4 -->
<g id="edge9" class="edge">
<title>7&#45;&gt;4</title>
<path fill="none" stroke="grey" stroke-width="2" d="M158.63,-143.88C168.81,-134.33 179.88,-123.95 189.5,-114.93"/>
<polygon fill="grey" stroke="grey" stroke-width="2" points="191.95,-117.42 196.85,-108.03 187.16,-112.32 191.95,-117.42"/>
</g>
<!-- 8&#45;&gt;4 -->
<g id="edge10" class="edge">
<title>8&#45;&gt;4</title>
<path fill="none" stroke="grey" stroke-width="2" d="M215.76,-154.71C215.63,-143.86 215.47,-130.23 215.33,-118.37"/>
<polygon fill="grey" stroke="grey" stroke-width="2" points="218.82,-118.06 215.2,-108.1 211.82,-118.14 218.82,-118.06"/>
</g>
<!-- 9 -->
<g id="node10" class="node">
<title>9</title>
<path fill="none" stroke="#d85656" stroke-width="2" d="M94,-428C94,-428 12,-428 12,-428 6,-428 0,-422 0,-416 0,-416 0,-404 0,-404 0,-398 6,-392 12,-392 12,-392 94,-392 94,-392 100,-392 106,-398 106,-404 106,-404 106,-416 106,-416 106,-422 100,-428 94,-428"/>
<text text-anchor="middle" x="53" y="-413" font-family="sans" font-size="10.00">cp_files</text>
<text text-anchor="middle" x="53" y="-402" font-family="sans" font-size="10.00">files: siteshz3P.vcf</text>
</g>
<!-- 9&#45;&gt;6 -->
<g id="edge11" class="edge">
<title>9&#45;&gt;6</title>
<path fill="none" stroke="grey" stroke-width="2" d="M56.71,-391.7C58.36,-383.98 60.35,-374.71 62.19,-366.11"/>
<polygon fill="grey" stroke="grey" stroke-width="2" points="65.66,-366.62 64.33,-356.1 58.82,-365.15 65.66,-366.62"/>
</g>
</g>
</svg>
